SplineFontDB: 3.2
FontName: Untitled1
FullName: Untitled1
FamilyName: Untitled1
Weight: Regular
Copyright: Copyright (c) 2025, Matthew Stoodley
UComments: "2025-7-6: Created with FontForge (http://fontforge.org)"
Version: 001.000
ItalicAngle: 0
UnderlinePosition: -100
UnderlineWidth: 50
Ascent: 800
Descent: 200
InvalidEm: 0
LayerCount: 2
Layer: 0 0 "Back" 1
Layer: 1 0 "Fore" 0
XUID: [1021 281 1886307050 9432108]
StyleMap: 0x0000
FSType: 0
OS2Version: 0
OS2_WeightWidthSlopeOnly: 0
OS2_UseTypoMetrics: 1
CreationTime: 1751805543
ModificationTime: 1753816455
OS2TypoAscent: 0
OS2TypoAOffset: 1
OS2TypoDescent: 0
OS2TypoDOffset: 1
OS2TypoLinegap: 90
OS2WinAscent: 0
OS2WinAOffset: 1
OS2WinDescent: 0
OS2WinDOffset: 1
HheadAscent: 0
HheadAOffset: 1
HheadDescent: 0
HheadDOffset: 1
OS2Vendor: 'PfEd'
DEI: 91125
Encoding: UnicodeFull
UnicodeInterp: none
NameList: AGL For New Fonts
DisplaySize: -72
AntiAlias: 1
FitToEm: 0
WinInfo: 57798 13 10
BeginChars: 1114112 223

StartChar: uniE12C
Encoding: 57644 57644 0
Width: 1000
InSpiro: 1
Flags: HW
LayerCount: 2
Fore
SplineSet
99.462890625 355.078125 m 1
 199.462890625 355.078125 l 1
 199.462890625 628.61328125 l 1
 813.427734375 628.61328125 l 1
 813.427734375 355.078125 l 1
 913.427734375 355.078125 l 1
 913.427734375 728.61328125 l 1
 99.462890625 728.61328125 l 1
 99.462890625 355.078125 l 1
321.09375 518.45703125 m 1
 321.09375 518.45703125 403.452148438 448.698242188 486.23046875 359.08203125 c 0
 496.708984375 347.73828125 505.158203125 334.279296875 515.52734375 322.36328125 c 1
 524.84765625 333.12109375 532.404296875 345.142578125 541.796875 355.46875 c 0
 624.130859375 445.984375 705.76171875 517.87109375 705.76171875 517.87109375 c 1
 771.97265625 442.87109375 l 1
 771.97265625 442.87109375 693.640625 373.844726562 615.72265625 288.18359375 c 0
 602.236328125 273.357421875 592.177734375 257.84375 579.19921875 242.3828125 c 0
 586.211914062 232.575195312 595.474609375 223.857421875 601.85546875 213.96484375 c 0
 634.430664062 163.4609375 660.028320312 112.88671875 659.86328125 57.51953125 c 0
 659.719726562 9.3544921875 643.021484375 -32.7568359375 614.74609375 -60.83984375 c 0
 586.470703125 -88.9228515625 548.647460938 -102.110351562 512.01171875 -101.26953125 c 0
 438.740234375 -99.5869140625 366.803710938 -35.1572265625 367.67578125 58.10546875 c 0
 368.180664062 112.079101562 394.044921875 160.619140625 426.5625 210.44921875 c 0
 433.700195312 221.387695312 443.947265625 231.385742188 451.85546875 242.28515625 c 0
 438.005859375 258.772460938 427.197265625 275.510742188 412.6953125 291.2109375 c 0
 334.78125 375.560546875 256.34765625 442.28515625 256.34765625 442.28515625 c 1
 321.09375 518.45703125 l 1
515.72265625 162.5 m 1
 515.72265625 162.5 l 2
 514.250976562 160.307617188 511.768554688 157.932617188 510.3515625 155.76171875 c 0
 482.52734375 113.123046875 467.829101562 73.5625 467.67578125 57.12890625 c 0
 467.231445312 9.5771484375 491.223632812 -0.740234375 514.2578125 -1.26953125 c 0
 525.775390625 -1.5341796875 536.233398438 2.2060546875 544.23828125 10.15625 c 0
 552.243164062 18.1064453125 559.783203125 31.1484375 559.86328125 57.8125 c 0
 559.920898438 77.2744140625 545.47265625 116.971679688 517.87109375 159.765625 c 0
 517.30078125 160.649414062 516.301757812 161.61328125 515.72265625 162.5 c 1
EndSplineSet
Validated: 37
EndChar

StartChar: uniE12D
Encoding: 57645 57645 1
Width: 1000
Flags: HW
LayerCount: 2
Fore
SplineSet
66.2646484375 117.916992188 m 1
 138.203125 48.484375 l 1
 744.461914062 676.619140625 l 1
 672.5234375 746.051757812 l 1
 66.2646484375 117.916992188 l 1
268.999023438 -74.6123046875 m 1
 340.9375 -144.044921875 l 1
 947.196289062 484.08984375 l 1
 875.2578125 553.522460938 l 1
 268.999023438 -74.6123046875 l 1
EndSplineSet
Validated: 9
EndChar

StartChar: uniE12F
Encoding: 57647 57647 2
Width: 500
Flags: HW
LayerCount: 2
Fore
SplineSet
53.8662109375 639.001953125 m 1
 53.8662109375 539.001953125 l 1
 433.944335938 539.001953125 l 1
 433.944335938 639.001953125 l 1
 53.8662109375 639.001953125 l 1
53.8662109375 351.74609375 m 1
 53.8662109375 251.74609375 l 1
 433.944335938 251.74609375 l 1
 433.944335938 351.74609375 l 1
 53.8662109375 351.74609375 l 1
293.905273438 777.087890625 m 1
 193.905273438 777.087890625 l 1
 193.905273438 87.244140625 l 1
 293.905273438 87.244140625 l 1
 293.905273438 777.087890625 l 1
EndSplineSet
Validated: 5
EndChar

StartChar: uniE132
Encoding: 57650 57650 3
Width: 1000
Flags: HW
LayerCount: 2
Fore
SplineSet
75.6787109375 331.044921875 m 1
 75.6787109375 231.044921875 l 1
 924.311523438 231.044921875 l 1
 660.215820312 514.038085938 l 1
 587.120117188 445.82421875 l 1
 694.234375 331.044921875 l 1
 75.6787109375 331.044921875 l 1
443.452148438 474.892578125 m 1
 343.452148438 474.892578125 l 1
 343.452148438 85.9765625 l 1
 443.452148438 85.9765625 l 1
 443.452148438 474.892578125 l 1
EndSplineSet
Validated: 5
EndChar

StartChar: uniE133
Encoding: 57651 57651 4
Width: 1000
Flags: HW
LayerCount: 2
Back
SplineSet
98.095703125 333.349609375 m 1
 98.095703125 233.349609375 l 1
 946.796875 233.349609375 l 1
 682.627929688 516.34765625 l 1
 609.541015625 448.124023438 l 1
 716.6796875 333.349609375 l 1
 98.095703125 333.349609375 l 1
145.458984375 510.107421875 m 1
 45.458984375 510.107421875 l 1
 45.458984375 55.76171875 l 1
 145.458984375 55.76171875 l 1
 145.458984375 510.107421875 l 1
EndSplineSet
Fore
SplineSet
98.095703125 333.349609375 m 1
 98.095703125 233.349609375 l 1
 946.796875 233.349609375 l 1
 682.627929688 516.34765625 l 1
 609.541015625 448.124023438 l 1
 716.6796875 333.349609375 l 1
 98.095703125 333.349609375 l 1
145.458984375 510.107421875 m 1
 45.458984375 510.107421875 l 1
 45.458984375 55.76171875 l 1
 145.458984375 55.76171875 l 1
 145.458984375 510.107421875 l 1
EndSplineSet
Validated: 5
EndChar

StartChar: uniE134
Encoding: 57652 57652 5
Width: 1000
Flags: HW
LayerCount: 2
Fore
SplineSet
749.0703125 378.872070312 m 1
 745.936523438 758.615234375 474.880859375 836.858398438 343.091796875 652.275390625 c 0
 297.206054688 588.008789062 269.745117188 496.028320312 268.995117188 378.79296875 c 0
 266.733398438 27.244140625 269.000976562 -103.819335938 269.000976562 -108.694335938 c 1
 368.98828125 -107.057617188 l 1
 367.973632812 -45.0791015625 367.409179688 131.904296875 368.993164062 378.140625 c 0
 369.645507812 480.120117188 394.1953125 551.7734375 424.530273438 594.259765625 c 0
 510.581054688 714.782226562 647.020507812 626.9296875 649.07421875 378.046875 c 1
 749.0703125 378.872070312 l 1
EndSplineSet
Validated: 41
EndChar

StartChar: uniE135
Encoding: 57653 57653 6
Width: 1000
Flags: HW
LayerCount: 2
Fore
SplineSet
88.455078125 433.053710938 m 1
 88.455078125 333.053710938 l 1
 932.546875 333.053710938 l 1
 932.546875 433.053710938 l 1
 88.455078125 433.053710938 l 1
560.525390625 347.702148438 m 1
 460.525390625 347.702148438 l 1
 460.525390625 91.4521484375 l 1
 560.525390625 91.4521484375 l 1
 560.525390625 347.702148438 l 1
EndSplineSet
Validated: 5
EndChar

StartChar: uniE138
Encoding: 57656 57656 7
Width: 1000
Flags: HW
LayerCount: 2
Fore
SplineSet
809.375 -5.908203125 m 1
 195.41015625 -5.908203125 l 1
 195.41015625 267.626953125 l 1
 95.41015625 267.626953125 l 1
 95.41015625 -105.908203125 l 1
 909.375 -105.908203125 l 1
 909.375 267.626953125 l 1
 809.375 267.626953125 l 1
 809.375 -5.908203125 l 1
457.080078125 -53.22265625 m 1
 557.080078125 -53.22265625 l 1
 557.080078125 742.548828125 l 1
 274.100585938 478.3984375 l 1
 342.305664062 405.29296875 l 1
 457.080078125 512.431640625 l 1
 457.080078125 -53.22265625 l 1
EndSplineSet
Validated: 5
EndChar

StartChar: uniE139
Encoding: 57657 57657 8
Width: 1000
Flags: HW
LayerCount: 2
Fore
SplineSet
333.723632812 122.88671875 m 0
 454.704101562 122.88671875 531.288085938 -120.25390625 700.771484375 -120.25390625 c 0
 772.52734375 -120.25390625 842.860351562 -77.3720703125 920.259765625 9.0458984375 c 1
 920.259765625 9.0458984375 845.783203125 75.7509765625 845.755859375 75.7197265625 c 0
 775.818359375 -2.3662109375 729.024414062 -20.25390625 700.771484375 -20.25390625 c 0
 593.299804688 -20.25390625 511.998046875 222.88671875 333.723632812 222.88671875 c 0
 254.596679688 222.88671875 173.961914062 176.118164062 81.7294921875 76.296875 c 1
 155.1640625 8.4462890625 l 1
 239.908203125 100.165039062 297.448242188 122.88671875 333.723632812 122.88671875 c 0
109.912109375 301.123046875 m 1
 209.912109375 301.123046875 l 1
 209.912109375 574.658203125 l 1
 823.828125 574.658203125 l 1
 823.828125 301.123046875 l 1
 923.828125 301.123046875 l 1
 923.828125 674.658203125 l 1
 109.912109375 674.658203125 l 1
 109.912109375 301.123046875 l 1
EndSplineSet
Validated: 41
EndChar

StartChar: uniE13B
Encoding: 57659 57659 9
Width: 1000
Flags: HW
LayerCount: 2
Fore
SplineSet
455.454101562 -92.34765625 m 1
 555.444335938 -90.95703125 l 1
 544.555664062 692.369140625 l 1
 444.565429688 690.978515625 l 1
 455.454101562 -92.34765625 l 1
203.833007812 668.811523438 m 1
 126.108398438 605.916992188 l 1
 499.977539062 144.587890625 l 1
 873.899414062 605.9140625 l 1
 796.225585938 668.872070312 l 1
 499.983398438 303.3828125 l 1
 203.833007812 668.811523438 l 1
EndSplineSet
Validated: 5
EndChar

StartChar: uniE13C
Encoding: 57660 57660 10
Width: 1000
Flags: HW
LayerCount: 2
Fore
SplineSet
126.31640625 94.1455078125 m 1
 159.328125 53.0341796875 239.111328125 -65.4453125 239.111328125 -135.400390625 c 1
 339.111328125 -135.400390625 l 1
 339.111328125 -116.419921875 336.819335938 -77.26171875 308.868164062 -13.728515625 c 1
 517.3984375 -100.028320312 710.94140625 -56.5537109375 926.323242188 83.455078125 c 1
 871.82421875 167.293945312 l 1
 611.416015625 -1.9853515625 421.451171875 2.88671875 194.513671875 165.971679688 c 1
 126.31640625 94.1455078125 l 1
529.477539062 645.446289062 m 0
 633.874023438 643.0546875 756.614257812 471.1640625 707.181640625 380.8359375 c 0
 670.146484375 313.133789062 492.405273438 287.94140625 387.88671875 335.87109375 c 0
 338.76953125 358.39453125 325.70703125 387.694335938 325.70703125 421.326171875 c 0
 325.70703125 519.140625 443.932617188 645.446289062 529.477539062 645.446289062 c 0
225.70703125 421.326171875 m 0
 225.70703125 207.01171875 531.91015625 173.030273438 692.56640625 245.11328125 c 0
 734.116210938 263.755859375 772.370117188 291.625976562 794.966796875 332.93359375 c 0
 849.73828125 433.017578125 802.481445312 568.232421875 712.8046875 658.026367188 c 0
 664.501953125 706.391601562 602.33984375 743.779296875 533.766601562 745.396484375 c 0
 407.96875 745.573242188 298.461914062 633.751953125 253.244140625 536.354492188 c 0
 236.41796875 500.110351562 225.70703125 461.279296875 225.70703125 421.326171875 c 0
EndSplineSet
Validated: 41
EndChar

StartChar: uniE13E
Encoding: 57662 57662 11
Width: 1000
Flags: HW
LayerCount: 2
Fore
SplineSet
615.133789062 -15.1796875 m 0
 585.098632812 40.7919921875 682.75390625 158.668945312 752.3046875 158.668945312 c 0
 822.8984375 157.118164062 908.580078125 41.5458984375 876.953125 -14.125 c 0
 853.571289062 -55.2841796875 725.970703125 -75.47265625 649.219726562 -41.583984375 c 0
 629.51171875 -32.8828125 619.15234375 -22.669921875 615.133789062 -15.1796875 c 0
509.712890625 8.3505859375 m 0
 509.712890625 -160.422851562 751.190429688 -188.799804688 880.349609375 -133.006835938 c 0
 928.37109375 -112.262695312 983.572265625 -70.236328125 983.572265625 13.365234375 c 0
 983.572265625 43.9755859375 975.858398438 73.251953125 963.735351562 100.404296875 c 0
 929.033203125 178.127929688 847.120117188 256.56640625 755.787109375 258.629882812 c 0
 654.044921875 258.766601562 567.650390625 172.594726562 532.038085938 98.73046875 c 0
 518.567382812 70.7900390625 509.712890625 40.416015625 509.712890625 8.3505859375 c 0
118.649414062 -10.931640625 m 0
 88.62109375 45.0283203125 186.231445312 162.869140625 255.771484375 162.869140625 c 0
 326.466796875 161.31640625 412.12890625 45.7666015625 380.517578125 -9.876953125 c 0
 357.137695312 -51.0322265625 229.508789062 -71.2265625 152.739257812 -37.3349609375 c 0
 133.026367188 -28.6328125 122.666992188 -18.4189453125 118.649414062 -10.931640625 c 0
13.228515625 12.5986328125 m 0
 13.228515625 -156.189453125 254.74609375 -184.543945312 383.905273438 -128.759765625 c 0
 431.927734375 -108.018554688 487.1328125 -65.9951171875 487.1328125 17.5927734375 c 0
 487.1328125 48.2060546875 479.4140625 77.482421875 467.286132812 104.6328125 c 0
 432.599609375 182.28125 350.6875 260.764648438 259.327148438 262.828125 c 0
 157.315429688 262.970703125 71.0419921875 176.591796875 35.546875 102.961914062 c 0
 22.0791015625 75.0263671875 13.228515625 44.658203125 13.228515625 12.5986328125 c 0
60.107421875 383.30078125 m 1
 60.107421875 283.30078125 l 1
 952.83203125 283.30078125 l 1
 952.83203125 383.30078125 l 1
 60.107421875 383.30078125 l 1
EndSplineSet
Validated: 41
EndChar

StartChar: uniE13F
Encoding: 57663 57663 12
Width: 1000
Flags: HW
LayerCount: 2
Fore
SplineSet
95.263671875 329.6875 m 1
 95.263671875 229.6875 l 1
 903.270507812 229.6875 l 1
 639.17578125 512.681640625 l 1
 566.080078125 444.466796875 l 1
 673.194335938 329.6875 l 1
 95.263671875 329.6875 l 1
904.736328125 571.337890625 m 1
 804.736328125 571.337890625 l 1
 804.736328125 28.662109375 l 1
 904.736328125 28.662109375 l 1
 904.736328125 571.337890625 l 1
EndSplineSet
Validated: 5
EndChar

StartChar: uniE140
Encoding: 57664 57664 13
Width: 500
Flags: HW
LayerCount: 2
Fore
SplineSet
99.1025390625 774.174804688 m 1
 17.5341796875 716.342773438 l 1
 142.44140625 540.11328125 267.443359375 363.979492188 392.290039062 187.690429688 c 1
 473.920898438 245.522460938 l 2
 473.920898438 245.522460938 99.1650390625 774.086914062 99.1025390625 774.174804688 c 1
EndSplineSet
Validated: 9
EndChar

StartChar: uniE141
Encoding: 57665 57665 14
Width: 1000
Flags: HW
LayerCount: 2
Fore
SplineSet
734.20703125 350.87890625 m 1
 407.200195312 350.87890625 l 1
 585.497070312 681.59765625 l 1
 585.497070312 681.59765625 497.469726562 729.055664062 497.413085938 728.94921875 c 0
 239.674804688 250.87890625 239.674804688 250.87890625 239.674804688 250.87890625 c 1
 566.671875 250.87890625 l 1
 388.380859375 -79.7890625 l 1
 388.380859375 -79.7890625 476.405273438 -127.250976562 476.462890625 -127.14453125 c 0
 734.20703125 350.87890625 734.20703125 350.87890625 734.20703125 350.87890625 c 1
EndSplineSet
Validated: 41
EndChar

StartChar: uniE142
Encoding: 57666 57666 15
Width: 1000
Flags: HW
LayerCount: 2
Fore
SplineSet
93.017578125 361.81640625 m 1
 193.017578125 361.81640625 l 1
 193.017578125 635.3515625 l 1
 806.982421875 635.3515625 l 1
 806.982421875 361.81640625 l 1
 906.982421875 361.81640625 l 1
 906.982421875 735.3515625 l 1
 93.017578125 735.3515625 l 1
 93.017578125 361.81640625 l 1
286.356445312 168.115234375 m 1
 547.776367188 168.115234375 l 1
 412.197265625 -88.7216796875 l 1
 412.197265625 -88.7216796875 500.637695312 -135.407226562 500.693359375 -135.301757812 c 0
 713.649414062 268.115234375 713.649414062 268.115234375 713.649414062 268.115234375 c 1
 452.217773438 268.115234375 l 1
 587.803710938 525.00390625 l 1
 587.803710938 525.00390625 499.361328125 571.68359375 499.305664062 571.578125 c 0
 286.356445312 168.115234375 286.356445312 168.115234375 286.356445312 168.115234375 c 1
EndSplineSet
Validated: 41
EndChar

StartChar: uniE146
Encoding: 57670 57670 16
Width: 1000
Flags: HW
LayerCount: 2
Fore
SplineSet
803.3203125 734.912109375 m 1
 703.3203125 734.912109375 l 1
 703.3203125 -34.912109375 l 1
 388.671875 -34.912109375 l 1
 388.671875 -134.912109375 l 1
 803.3203125 -134.912109375 l 1
 803.3203125 734.912109375 l 1
425.440429688 547.848632812 m 0
 208.486328125 547.848632812 156.860351562 364.700195312 225.100585938 236.883789062 c 0
 239.375 210.146484375 258.889648438 186.021484375 284.241210938 168.4765625 c 1
 284.241210938 168.4765625 341.143554688 250.698242188 341.051757812 250.76171875 c 0
 316.541992188 267.723632812 297.004882812 308.866210938 297.004882812 348.8046875 c 0
 297.004882812 408.973632812 337.772460938 447.848632812 425.440429688 447.848632812 c 0
 478.736328125 447.848632812 505.249023438 431.013671875 519.811523438 412.78125 c 0
 556.447265625 366.913085938 535.826171875 282.118164062 489.243164062 251.2734375 c 1
 544.448242188 167.899414062 l 1
 602.125976562 206.08984375 638.61328125 278.83203125 638.61328125 353.3828125 c 0
 638.61328125 460.368164062 563.489257812 547.848632812 425.440429688 547.848632812 c 0
EndSplineSet
Validated: 41
EndChar

StartChar: uniE147
Encoding: 57671 57671 17
Width: 1000
Flags: HW
LayerCount: 2
Fore
SplineSet
806.982421875 213.232421875 m 1
 193.017578125 213.232421875 l 1
 193.017578125 486.767578125 l 1
 93.017578125 486.767578125 l 1
 93.017578125 113.232421875 l 1
 906.982421875 113.232421875 l 1
 906.982421875 486.767578125 l 1
 806.982421875 486.767578125 l 1
 806.982421875 213.232421875 l 1
EndSplineSet
Validated: 9
EndChar

StartChar: uniE148
Encoding: 57672 57672 18
Width: 1000
Flags: HW
LayerCount: 2
Fore
SplineSet
590.103515625 552.301757812 m 1
 490.067382812 554.010742188 l 1
 482.333007812 94.2158203125 l 1
 582.369140625 92.5068359375 l 1
 590.103515625 552.301757812 l 1
615.025390625 631.701171875 m 0
 617.450195312 631.959960938 735.083984375 644.103515625 858.860351562 638.46875 c 1
 863.397460938 738.31640625 l 1
 847.33203125 739.034179688 587.250976562 749.788085938 456.66015625 700.3515625 c 0
 324.625976562 650.385742188 145.921875 466.076171875 136.65234375 456.46484375 c 1
 208.693359375 387.134765625 l 2
 211.181640625 389.71484375 382.115234375 565.2421875 492.068359375 606.8515625 c 0
 521.39453125 617.954101562 566.904296875 626.564453125 615.025390625 631.701171875 c 0
100.00390625 77.7802734375 m 1
 133.024414062 36.6748046875 212.841796875 -81.806640625 212.841796875 -151.7578125 c 1
 312.841796875 -151.7578125 l 1
 312.841796875 -132.7734375 310.547851562 -93.619140625 282.592773438 -30.095703125 c 1
 491.090820312 -116.369140625 684.590820312 -72.9326171875 900.004882812 67.09765625 c 1
 845.505859375 150.936523438 l 1
 585.133789062 -18.3193359375 395.209960938 -13.494140625 168.19140625 149.616210938 c 1
 100.00390625 77.7802734375 l 1
EndSplineSet
Validated: 41
EndChar

StartChar: uniE149
Encoding: 57673 57673 19
Width: 1000
Flags: HW
LayerCount: 2
Fore
SplineSet
100.00390625 120.700195312 m 1
 133.024414062 79.5947265625 212.841796875 -38.88671875 212.841796875 -108.837890625 c 1
 312.841796875 -108.837890625 l 1
 312.841796875 -89.853515625 310.547851562 -50.69921875 282.592773438 12.82421875 c 1
 491.090820312 -73.44921875 684.590820312 -30.0126953125 900.004882812 110.017578125 c 1
 845.505859375 193.856445312 l 1
 585.133789062 24.6005859375 395.209960938 29.42578125 168.19140625 192.536132812 c 1
 100.00390625 120.700195312 l 1
550.000976562 708.82421875 m 1
 450.000976562 708.82421875 l 1
 450.000976562 235.97265625 l 1
 550.000976562 235.97265625 l 1
 550.000976562 708.82421875 l 1
256.934570312 522.3984375 m 1
 256.934570312 422.3984375 l 1
 743.067382812 422.3984375 l 1
 743.067382812 522.3984375 l 1
 256.934570312 522.3984375 l 1
EndSplineSet
Validated: 37
EndChar

StartChar: uniE14C
Encoding: 57676 57676 20
Width: 1000
Flags: HW
LayerCount: 2
Fore
SplineSet
66.9482421875 446.93359375 m 1
 123.583007812 364.526367188 l 1
 500 623.221679688 l 1
 876.416992188 364.526367188 l 1
 895.286132812 392.025390625 914.224609375 419.455078125 933.051757812 446.997070312 c 0
 788.702148438 546.182617188 644.345703125 645.361328125 500 744.551757812 c 1
 66.9482421875 446.93359375 l 1
123.583007812 235.473632812 m 1
 123.583007812 235.473632812 66.9482421875 153.06640625 67.0419921875 153.002929688 c 0
 500 -144.551757812 500 -144.551757812 500 -144.551757812 c 1
 933.051757812 153.06640625 l 1
 876.416992188 235.473632812 l 1
 500 -23.2216796875 l 1
 123.583007812 235.473632812 l 1
EndSplineSet
Validated: 41
EndChar

StartChar: uniE14D
Encoding: 57677 57677 21
Width: 1000
Flags: HW
LayerCount: 2
Fore
SplineSet
342.580078125 397.206054688 m 0
 304.407226562 470.842773438 421.234375 615.234375 504.174804688 615.234375 c 0
 588.89453125 613.291015625 691.321289062 470.934570312 651.420898438 398.243164062 c 0
 621.939453125 344.533203125 472.95703125 322.37109375 384.838867188 362.622070312 c 0
 361.736328125 373.174804688 348.440429688 385.907226562 342.580078125 397.206054688 c 0
235.287109375 429.659179688 m 0
 235.287109375 239.387695312 504.631835938 207.866210938 647.577148438 271.75390625 c 0
 702.196289062 296.166015625 760.178710938 343.70703125 760.178710938 435.52734375 c 0
 760.178710938 469.68359375 751.827148438 502.788085938 738.47265625 533.735351562 c 0
 699.971679688 622.9609375 608.870117188 712.809570312 507.986328125 715.190429688 c 0
 395.848632812 715.34375 299.471679688 616.891601562 259.705078125 531.543945312 c 0
 244.852539062 499.669921875 235.287109375 465.34375 235.287109375 429.659179688 c 0
271.551757812 747.662109375 m 1
 201.91796875 675.91796875 l 1
 414.42578125 469.66015625 l 1
 484.059570312 541.404296875 l 1
 271.551757812 747.662109375 l 1
128.2421875 -35.8828125 m 1
 166.655273438 -128.704101562 l 1
 892.828125 180.127929688 l 1
 854.415039062 272.950195312 l 1
 128.2421875 -35.8828125 l 1
166.655273438 272.950195312 m 1
 128.16796875 180.159179688 l 2
 128.2421875 180.127929688 854.415039062 -128.704101562 854.415039062 -128.704101562 c 2
 892.90234375 -35.9140625 l 1
 166.655273438 272.950195312 l 1
EndSplineSet
Validated: 37
EndChar

StartChar: uniE14E
Encoding: 57678 57678 22
Width: 1000
Flags: HW
LayerCount: 2
Fore
SplineSet
75.634765625 258.49609375 m 1
 75.634765625 158.49609375 l 1
 924.315429688 158.49609375 l 1
 660.220703125 441.490234375 l 1
 587.125 373.275390625 l 1
 694.239257812 258.49609375 l 1
 75.634765625 258.49609375 l 1
EndSplineSet
Validated: 9
EndChar

StartChar: uniE14F
Encoding: 57679 57679 23
Width: 1000
Flags: HW
LayerCount: 2
Fore
SplineSet
924.365234375 158.49609375 m 1
 924.365234375 258.49609375 l 1
 305.760742188 258.49609375 l 1
 412.875 373.275390625 l 1
 339.76171875 441.470703125 l 1
 75.6845703125 158.49609375 l 1
 924.365234375 158.49609375 l 1
EndSplineSet
Validated: 9
EndChar

StartChar: uniE152
Encoding: 57682 57682 24
Width: 1000
Flags: H
LayerCount: 2
Fore
SplineSet
458.49609375 724.365234375 m 1
 358.49609375 724.365234375 l 1
 358.49609375 -124.315429688 l 1
 641.470703125 139.76171875 l 1
 573.275390625 212.875 l 1
 458.49609375 105.760742188 l 1
 458.49609375 724.365234375 l 1
EndSplineSet
Validated: 9
EndChar

StartChar: uniE153
Encoding: 57683 57683 25
Width: 1000
Flags: H
LayerCount: 2
Fore
SplineSet
501.573242188 23.796875 m 0
 494.856445312 23.796875 428.938476562 25.923828125 428.953125 109.431640625 c 0
 429.149414062 130.213867188 439.454101562 176.642578125 501.83203125 264.494140625 c 1
 527.079101562 228.201171875 570.362304688 158.865234375 570.361328125 110.072265625 c 0
 570.263671875 78.740234375 561.611328125 59.1552734375 551.567382812 46.853515625 c 0
 539.115234375 31.6005859375 521.033203125 23.796875 501.573242188 23.796875 c 0
184.6640625 599.775390625 m 0
 187.399414062 597.465820312 326.831054688 479.28125 438.143554688 346.947265625 c 0
 347.31640625 225.9921875 329.377929688 154.978515625 328.95703125 110.392578125 c 0
 328.9375 -7.7724609375 412.581054688 -76.203125 501.573242188 -76.203125 c 0
 589.825195312 -76.203125 670.362304688 -8.3232421875 670.362304688 110.28515625 c 0
 670.362304688 142.6171875 664.534179688 213.708007812 565.944335938 346.760742188 c 0
 572.404296875 354.44140625 578.95703125 362.088867188 585.569335938 369.674804688 c 0
 694.043945312 494.126953125 815.30859375 600.337890625 815.30859375 600.413085938 c 2
 749.4375 675.595703125 l 1
 743.859375 670.706054688 615.668945312 557.936523438 502.119140625 426.041992188 c 1
 497.98046875 430.8359375 493.821289062 435.6015625 489.646484375 440.336914062 c 0
 375.94140625 569.30859375 250.205078125 675.331054688 249.17578125 676.201171875 c 1
 227.677734375 650.719726562 206.131835938 625.287109375 184.6640625 599.775390625 c 0
EndSplineSet
Validated: 41
EndChar

StartChar: uniE154
Encoding: 57684 57684 26
Width: 1000
Flags: H
LayerCount: 2
Fore
SplineSet
313.239257812 702.524414062 m 1
 413.239257812 702.524414062 l 1
 413.239257812 -85.9267578125 l 1
 313.239257812 -85.9267578125 l 1
 313.239257812 702.524414062 l 1
373.342773438 73.61328125 m 1
 393.606445312 171.555664062 l 2
 393.67578125 171.541015625 686.776367188 110.899414062 686.776367188 110.899414062 c 1
 666.512695312 12.95703125 l 1
 373.342773438 73.61328125 l 1
393.67578125 445.056640625 m 1
 373.342773438 542.984375 l 1
 666.443359375 603.625976562 l 1
 686.776367188 505.698242188 l 1
 393.67578125 445.056640625 l 1
EndSplineSet
Validated: 5
EndChar

StartChar: uniE155
Encoding: 57685 57685 27
Width: 1000
Flags: H
LayerCount: 2
Fore
SplineSet
452.685546875 -97.998046875 m 1
 552.685546875 -97.998046875 l 1
 552.685546875 750.633789062 l 1
 269.7109375 486.556640625 l 1
 337.90625 413.443359375 l 1
 452.685546875 520.557617188 l 1
 452.685546875 -97.998046875 l 1
275.9765625 -50.68359375 m 1
 275.9765625 -150.68359375 l 1
 730.2734375 -150.68359375 l 1
 730.2734375 -50.68359375 l 1
 275.9765625 -50.68359375 l 1
EndSplineSet
Validated: 5
EndChar

StartChar: uniE156
Encoding: 57686 57686 28
Width: 1000
Flags: HW
LayerCount: 2
Fore
SplineSet
680.346679688 -45.244140625 m 0
 585.227539062 -45.244140625 506.536132812 119.313476562 354.688476562 119.313476562 c 0
 271.354492188 119.313476562 184.419921875 70.4765625 80.7529296875 -41.720703125 c 1
 154.1875 -109.571289062 l 1
 250.5 -5.3330078125 314.00390625 19.3134765625 354.688476562 19.3134765625 c 0
 460.477539062 19.3134765625 535.552734375 -145.244140625 680.346679688 -145.244140625 c 0
 756.126953125 -145.244140625 832.159179688 -100.424804688 919.28125 -3.1630859375 c 1
 844.80859375 63.5458984375 l 1
 765.037109375 -25.509765625 712.952148438 -45.244140625 680.346679688 -45.244140625 c 0
320.5078125 745.41015625 m 1
 320.5078125 745.41015625 398.024414062 679.556640625 475.9765625 595.01953125 c 0
 485.008789062 585.224609375 492.310546875 573.536132812 501.26953125 563.28125 c 1
 509.25390625 572.466796875 515.69921875 582.85546875 523.73046875 591.69921875 c 0
 601.251953125 677.071289062 678.125 744.82421875 678.125 744.82421875 c 1
 744.3359375 669.921875 l 1
 744.3359375 669.921875 670.864257812 604.927734375 597.75390625 524.4140625 c 0
 585.642578125 511.076171875 576.724609375 497.09375 565.0390625 483.203125 c 0
 571.21484375 474.5 579.405273438 466.787109375 585.05859375 458.0078125 c 0
 615.822265625 410.229492188 640.098632812 362.330078125 639.94140625 309.1796875 c 0
 639.805664062 263.217773438 623.857421875 222.840820312 596.6796875 195.80078125 c 0
 569.500976562 168.760742188 533.063476562 155.928710938 497.8515625 156.73828125 c 0
 427.427734375 158.357421875 358.54296875 220.654296875 359.375 309.765625 c 0
 359.859375 361.650390625 384.435546875 407.55859375 415.13671875 454.6875 c 0
 421.508789062 464.46875 430.67578125 473.364257812 437.6953125 483.10546875 c 0
 425.172851562 497.9765625 415.51953125 513.063476562 402.44140625 527.24609375 c 0
 329.348632812 606.512695312 255.6640625 669.23828125 255.6640625 669.23828125 c 1
 320.5078125 745.41015625 l 1
501.26953125 403.125 m 1
 500.630859375 402.157226562 499.552734375 401.060546875 498.92578125 400.09765625 c 0
 472.908203125 360.159179688 459.509765625 323.19921875 459.375 308.7890625 c 0
 458.96875 265.311523438 480.09375 257.200195312 500.1953125 256.73828125 c 0
 510.24609375 256.506835938 519.248046875 259.712890625 526.171875 266.6015625 c 0
 533.095703125 273.490234375 539.87109375 284.975585938 539.94140625 309.47265625 c 0
 539.9921875 326.639648438 526.65625 363.432617188 501.26953125 403.125 c 1
EndSplineSet
Validated: 41
EndChar

StartChar: uniE158
Encoding: 57688 57688 29
Width: 1000
Flags: HW
LayerCount: 2
Fore
SplineSet
680.338867188 267.723632812 m 0
 585.227539062 267.723632812 506.536132812 432.274414062 354.696289062 432.274414062 c 0
 271.358398438 432.274414062 184.421875 383.430664062 80.751953125 271.216796875 c 1
 154.189453125 203.370117188 l 1
 250.505859375 307.625 314.012695312 332.274414062 354.696289062 332.274414062 c 0
 460.477539062 332.274414062 535.551757812 167.723632812 680.338867188 167.723632812 c 0
 756.123046875 167.723632812 832.157226562 212.549804688 919.283203125 309.827148438 c 1
 919.283203125 309.827148438 844.806640625 376.532226562 844.779296875 376.500976562 c 0
 765.030273438 287.459960938 712.942382812 267.723632812 680.338867188 267.723632812 c 0
EndSplineSet
Validated: 41
EndChar

StartChar: uniE159
Encoding: 57689 57689 30
Width: 1000
Flags: HW
LayerCount: 2
Fore
SplineSet
699.720703125 626.8046875 m 0
 699.720703125 582.844726562 635.161132812 536.848632812 635.161132812 450.948242188 c 0
 635.161132812 402.138671875 656.419921875 350.849609375 702.771484375 291.913085938 c 1
 781.362304688 353.723632812 l 1
 742.739257812 402.833984375 735.161132812 432.784179688 735.161132812 450.948242188 c 0
 735.161132812 501.521484375 799.720703125 543.76171875 799.720703125 626.8046875 c 0
 799.720703125 703.346679688 739.333984375 764.69921875 739.333984375 767.268554688 c 1
 661.642578125 704.2734375 l 1
 694.16796875 664.185546875 699.720703125 640.58984375 699.720703125 626.8046875 c 0
109.423828125 297.216796875 m 1
 109.423828125 197.216796875 l 1
 546.372070312 197.216796875 l 1
 725.408203125 -171.586914062 l 1
 914.927734375 253.35546875 l 1
 914.927734375 253.35546875 823.586914062 294.092773438 823.548828125 294.0078125 c 0
 721.564453125 65.3369140625 721.564453125 65.3369140625 721.564453125 65.3369140625 c 1
 608.999023438 297.216796875 l 1
 109.423828125 297.216796875 l 1
EndSplineSet
Validated: 41
EndChar

StartChar: uniE15A
Encoding: 57690 57690 31
Width: 1000
Flags: H
LayerCount: 2
Fore
SplineSet
452.715820312 698.026367188 m 1
 552.715820312 698.026367188 l 1
 552.715820312 -150.67578125 l 1
 269.717773438 113.493164062 l 1
 337.94140625 186.580078125 l 1
 452.715820312 79.4423828125 l 1
 452.715820312 698.026367188 l 1
275.958007812 650.663085938 m 1
 275.958007812 750.663085938 l 1
 730.303710938 750.663085938 l 1
 730.303710938 650.663085938 l 1
 275.958007812 650.663085938 l 1
EndSplineSet
Validated: 5
EndChar

StartChar: uniE15B
Encoding: 57691 57691 32
Width: 1000
Flags: HW
LayerCount: 2
Fore
SplineSet
670.80078125 722.0703125 m 1
 570.80078125 722.0703125 l 1
 570.80078125 -122.0703125 l 1
 670.80078125 -122.0703125 l 1
 670.80078125 722.0703125 l 1
585.44921875 250 m 1
 585.44921875 350 l 1
 329.19921875 350 l 1
 329.19921875 250 l 1
 585.44921875 250 l 1
EndSplineSet
Validated: 5
EndChar

StartChar: uniE15C
Encoding: 57692 57692 33
Width: 1000
Flags: HW
LayerCount: 2
Fore
SplineSet
259.90234375 390.970703125 m 2
 267.280273438 388.581054688 423.483398438 338.500976562 550.26171875 338.500976562 c 0
 587.498046875 338.500976562 624.099609375 342.249023438 657.567382812 355.923828125 c 0
 684.229492188 366.818359375 710.616210938 385.763671875 726.1171875 415.454101562 c 0
 755.470703125 471.696289062 746.677734375 551.541015625 637.564453125 661.841796875 c 0
 575.328125 724.75390625 508.138671875 770.427734375 506.702148438 771.409179688 c 1
 450.288085938 688.850585938 l 1
 484.10546875 665.7421875 585.453125 587.7421875 625.389648438 517.936523438 c 0
 634.126953125 502.666015625 645.650390625 477.419921875 637.412109375 461.634765625 c 0
 628.930664062 445.391601562 588.736328125 438.500976562 550.26171875 438.500976562 c 0
 440.577148438 438.500976562 290.720703125 486.124023438 290.720703125 486.124023438 c 1
 259.90234375 390.970703125 l 2
528.541992188 420.869140625 m 1
 428.541992188 420.869140625 l 1
 428.541992188 129.31640625 l 1
 528.541992188 129.31640625 l 1
 528.541992188 420.869140625 l 1
680.33984375 -34.86328125 m 0
 585.224609375 -34.86328125 506.53125 129.70703125 354.6796875 129.70703125 c 0
 271.34765625 129.70703125 184.415039062 80.8720703125 80.7529296875 -31.3203125 c 1
 154.1875 -99.1708984375 l 1
 250.494140625 5.0615234375 313.99609375 29.70703125 354.6796875 29.70703125 c 0
 460.470703125 29.70703125 535.544921875 -134.86328125 680.33984375 -134.86328125 c 0
 756.124023438 -134.86328125 832.158203125 -90.037109375 919.283203125 7.2392578125 c 1
 844.806640625 73.9443359375 l 1
 765.030273438 -15.126953125 712.943359375 -34.86328125 680.33984375 -34.86328125 c 0
EndSplineSet
Validated: 37
EndChar

StartChar: uniE160
Encoding: 57696 57696 34
Width: 1000
Flags: HW
LayerCount: 2
Fore
SplineSet
77.9296875 229.19921875 m 1
 77.9296875 129.19921875 l 1
 922.0703125 129.19921875 l 1
 922.0703125 229.19921875 l 1
 77.9296875 229.19921875 l 1
450 214.55078125 m 1
 550 214.55078125 l 1
 550 470.80078125 l 1
 450 470.80078125 l 1
 450 214.55078125 l 1
EndSplineSet
Validated: 5
EndChar

StartChar: uniE161
Encoding: 57697 57697 35
Width: 1000
Flags: HW
LayerCount: 2
Fore
SplineSet
641.50390625 724.365234375 m 1
 541.50390625 724.365234375 l 1
 541.50390625 105.760742188 l 1
 426.724609375 212.875 l 1
 358.509765625 139.779296875 l 1
 641.50390625 -124.315429688 l 1
 641.50390625 724.365234375 l 1
EndSplineSet
Validated: 9
EndChar

StartChar: uniE162
Encoding: 57698 57698 36
Width: 1000
Flags: HW
LayerCount: 2
Fore
SplineSet
190.729492188 -23.115234375 m 1
 270.237304688 -83.744140625 l 1
 270.29296875 -83.6708984375 809.2578125 623.116210938 809.2578125 623.116210938 c 1
 729.75 683.745117188 l 1
 190.729492188 -23.115234375 l 1
539.774414062 330.255859375 m 1
 460.212890625 269.696289062 l 1
 729.6953125 -83.6728515625 l 1
 809.256835938 -23.11328125 l 1
 539.774414062 330.255859375 l 1
EndSplineSet
Validated: 5
EndChar

StartChar: uniE163
Encoding: 57699 57699 37
Width: 1000
Flags: HW
LayerCount: 2
Fore
SplineSet
706.8359375 490.0390625 m 1
 606.8359375 490.0390625 l 1
 606.8359375 109.9609375 l 1
 706.8359375 109.9609375 l 1
 706.8359375 490.0390625 l 1
419.580078125 490.0390625 m 1
 319.580078125 490.0390625 l 1
 319.580078125 109.9609375 l 1
 419.580078125 109.9609375 l 1
 419.580078125 490.0390625 l 1
844.921875 250 m 1
 844.921875 350 l 1
 155.078125 350 l 1
 155.078125 250 l 1
 844.921875 250 l 1
EndSplineSet
Validated: 5
EndChar

StartChar: uniE166
Encoding: 57702 57702 38
Width: 1000
Flags: HW
LayerCount: 2
Fore
SplineSet
66.9482421875 418.662109375 m 1
 123.583007812 336.254882812 l 1
 500 594.950195312 l 1
 876.416992188 336.254882812 l 1
 895.286132812 363.75390625 914.224609375 391.18359375 933.051757812 418.725585938 c 0
 788.702148438 517.911132812 644.345703125 617.08984375 500 716.280273438 c 1
 66.9482421875 418.662109375 l 1
550.000976562 356.548828125 m 1
 450.000976562 356.548828125 l 1
 450.000976562 -116.302734375 l 1
 550.000976562 -116.302734375 l 1
 550.000976562 356.548828125 l 1
256.934570312 170.123046875 m 1
 256.934570312 70.123046875 l 1
 743.067382812 70.123046875 l 1
 743.067382812 170.123046875 l 1
 256.934570312 170.123046875 l 1
EndSplineSet
Validated: 5
EndChar

StartChar: uniE167
Encoding: 57703 57703 39
Width: 1000
Flags: HW
LayerCount: 2
Fore
SplineSet
719.951171875 171.311523438 m 1
 723.111328125 286.532226562 625.629882812 359.314453125 500.186523438 359.314453125 c 0
 469.864257812 359.314453125 378.723632812 353.869140625 320.467773438 292.107421875 c 0
 310.944335938 282.010742188 280.41796875 249.646484375 280.41796875 189.31640625 c 0
 280.41796875 127.599609375 302.204101562 78.7890625 332.2265625 43.5556640625 c 0
 369.314453125 0.0302734375 415.732421875 -22.505859375 444.850585938 -37.310546875 c 0
 458.641601562 -44.322265625 468.889648438 -50.4130859375 469.071289062 -50.5576171875 c 0
 476.6171875 -57.015625 473.677734375 -96.9384765625 459.70703125 -119.685546875 c 1
 488.088867188 -137.048828125 516.642578125 -154.794921875 544.916015625 -171.916015625 c 0
 580.291992188 -114.318359375 589.891601562 -19.10546875 531.416992188 27.6083984375 c 0
 497.016601562 55.0908203125 425.766601562 71.748046875 394.984375 127.622070312 c 0
 387.216796875 141.721679688 379.548828125 162.326171875 380.49609375 194.551757812 c 0
 382.467773438 261.686523438 546.805664062 284.471679688 602.676757812 224.043945312 c 0
 619.966796875 205.344726562 620.004882812 186.419921875 619.98828125 174.052734375 c 2
 719.951171875 171.311523438 l 1
490.735351562 661.913085938 m 0
 490.735351562 625.635742188 441.293945312 585.376953125 441.293945312 511.510742188 c 0
 441.293945312 469.208984375 457.895507812 424.403320312 494.021484375 373.1171875 c 1
 575.767578125 430.700195312 l 1
 546.779296875 471.852539062 541.293945312 496.529296875 541.293945312 511.510742188 c 0
 541.293945312 553.573242188 590.735351562 590.34375 590.735351562 661.913085938 c 0
 590.735351562 728.431640625 543.501953125 782.284179688 543.501953125 784.5078125 c 1
 462.552734375 725.731445312 l 1
 486.81640625 692.33984375 490.735351562 673.15234375 490.735351562 661.913085938 c 0
EndSplineSet
Validated: 41
EndChar

StartChar: uniE168
Encoding: 57704 57704 40
Width: 1000
Flags: HW
LayerCount: 2
Fore
SplineSet
75.8974609375 89.869140625 m 0
 429.956054688 -223.020507812 723.127929688 -86.3828125 924.172851562 89.7587890625 c 1
 858.286132812 164.9609375 l 1
 618.796875 -44.86328125 392.766601562 -56.7255859375 142.071289062 164.818359375 c 1
 142.071289062 164.818359375 75.86328125 89.8994140625 75.8974609375 89.869140625 c 0
650.5 266.840820312 m 1
 650.5 266.840820312 702.53515625 352.234375 702.4296875 352.299804688 c 0
 489.689453125 481.93359375 489.689453125 481.93359375 489.689453125 481.93359375 c 1
 489.689453125 481.93359375 702.4296875 611.567382812 702.53515625 611.6328125 c 2
 650.5 697.026367188 l 1
 297.517578125 481.93359375 l 1
 650.5 266.840820312 l 1
EndSplineSet
Validated: 41
EndChar

StartChar: uniE169
Encoding: 57705 57705 41
Width: 500
Flags: HW
LayerCount: 2
Fore
SplineSet
116.467773438 764.53125 m 1
 63.6845703125 728.002929688 29.2119140625 656.641601562 29.2119140625 584.150390625 c 0
 29.2119140625 478.390625 103.64453125 385.11328125 257.555664062 385.11328125 c 0
 457.962890625 385.11328125 512.314453125 565.9296875 440.99609375 694.130859375 c 0
 425.580078125 721.842773438 404.181640625 746.873046875 376.697265625 765.092773438 c 1
 358.2890625 737.282226562 339.8125 709.5390625 321.447265625 681.684570312 c 0
 333.401367188 673.759765625 344.799804688 661.341796875 353.544921875 645.623046875 c 0
 381.590820312 595.208984375 391.045898438 485.11328125 257.555664062 485.11328125 c 0
 208.58984375 485.11328125 129.211914062 498.345703125 129.211914062 584.150390625 c 0
 129.211914062 623.833007812 148.537109375 665.124023438 173.370117188 682.309570312 c 1
 116.467773438 764.53125 l 1
EndSplineSet
Validated: 41
EndChar

StartChar: uniE16C
Encoding: 57708 57708 42
Width: 1000
Flags: H
LayerCount: 2
Fore
SplineSet
329.19921875 -122.0703125 m 1
 429.19921875 -122.0703125 l 1
 429.19921875 722.0703125 l 1
 329.19921875 722.0703125 l 1
 329.19921875 -122.0703125 l 1
414.55078125 350 m 1
 414.55078125 250 l 1
 670.80078125 250 l 1
 670.80078125 350 l 1
 414.55078125 350 l 1
EndSplineSet
Validated: 5
EndChar

StartChar: uniE16D
Encoding: 57709 57709 43
Width: 1000
Flags: H
LayerCount: 2
Fore
SplineSet
507.618164062 751.315429688 m 0
 290.676757812 751.315429688 239.067382812 568.186523438 307.31640625 440.362304688 c 0
 321.594726562 413.619140625 341.112304688 389.490234375 366.467773438 371.943359375 c 1
 366.467773438 371.943359375 423.370117188 454.165039062 423.278320312 454.228515625 c 0
 398.75 471.204101562 379.211914062 512.373046875 379.211914062 552.3046875 c 0
 379.211914062 570.54296875 380.52734375 651.315429688 507.618164062 651.315429688 c 0
 560.91796875 651.315429688 587.432617188 634.478515625 601.997070312 616.241210938 c 0
 638.630859375 570.369140625 618.015625 485.57421875 571.4609375 454.734375 c 1
 626.68359375 371.372070312 l 1
 684.333007812 409.5625 720.799804688 482.29296875 720.799804688 556.829101562 c 0
 720.799804688 663.828125 645.672851562 751.315429688 507.618164062 751.315429688 c 0
550.000976562 327.206054688 m 1
 450.000976562 327.206054688 l 1
 450.000976562 -145.645507812 l 1
 550.000976562 -145.645507812 l 1
 550.000976562 327.206054688 l 1
256.934570312 140.780273438 m 1
 256.934570312 40.7802734375 l 1
 743.067382812 40.7802734375 l 1
 743.067382812 140.780273438 l 1
 256.934570312 140.780273438 l 1
EndSplineSet
Validated: 37
EndChar

StartChar: uniE16E
Encoding: 57710 57710 44
Width: 1000
Flags: H
LayerCount: 2
Fore
SplineSet
190.729492188 623.115234375 m 1
 270.237304688 683.744140625 l 1
 270.29296875 683.670898438 809.2578125 -23.1162109375 809.2578125 -23.1162109375 c 1
 729.75 -83.7451171875 l 1
 190.729492188 623.115234375 l 1
539.774414062 269.744140625 m 1
 460.212890625 330.303710938 l 1
 729.6953125 683.672851562 l 1
 809.256835938 623.11328125 l 1
 539.774414062 269.744140625 l 1
EndSplineSet
Validated: 5
EndChar

StartChar: uniE16F
Encoding: 57711 57711 45
Width: 1000
Flags: H
LayerCount: 2
Fore
SplineSet
100.00390625 150.192382812 m 1
 133.024414062 109.086914062 212.841796875 -9.39453125 212.841796875 -79.345703125 c 1
 312.841796875 -79.345703125 l 1
 312.841796875 -60.3603515625 310.547851562 -21.208984375 282.595703125 42.30859375 c 1
 491.143554688 -43.9951171875 684.65625 -0.5166015625 900.010742188 139.513671875 c 1
 845.5 223.344726562 l 1
 585.106445312 54.0283203125 395.186523438 58.9345703125 168.19140625 222.028320312 c 1
 100.00390625 150.192382812 l 1
500 466.59375 m 1
 500 466.59375 370.366210938 679.333984375 370.30078125 679.439453125 c 1
 284.907226562 627.404296875 l 1
 500 274.421875 l 1
 715.092773438 627.404296875 l 1
 715.092773438 627.404296875 629.69921875 679.439453125 629.633789062 679.333984375 c 0
 500 466.59375 500 466.59375 500 466.59375 c 1
EndSplineSet
Validated: 41
EndChar

StartChar: uniE170
Encoding: 57712 57712 46
Width: 1000
Flags: H
LayerCount: 2
Fore
SplineSet
97.265625 165.625 m 1
 97.265625 65.625 l 1
 596.844726562 65.625 l 1
 709.373046875 297.502929688 l 1
 709.373046875 297.502929688 811.393554688 68.8291015625 811.431640625 68.7431640625 c 2
 902.766601562 109.491210938 l 1
 713.185546875 534.430664062 l 1
 534.209960938 165.625 l 1
 97.265625 165.625 l 1
EndSplineSet
Validated: 9
EndChar

StartChar: uniE172
Encoding: 57714 57714 47
Width: 1000
Flags: H
LayerCount: 2
Fore
SplineSet
65.087890625 317.919921875 m 1
 65.087890625 217.919921875 l 1
 834.912109375 217.919921875 l 1
 834.912109375 -96.6796875 l 1
 934.912109375 -96.6796875 l 1
 934.912109375 317.919921875 l 1
 65.087890625 317.919921875 l 1
75.634765625 513.671875 m 1
 75.634765625 413.671875 l 1
 924.315429688 413.671875 l 1
 660.220703125 696.666015625 l 1
 587.125 628.451171875 l 1
 694.239257812 513.671875 l 1
 75.634765625 513.671875 l 1
EndSplineSet
Validated: 9
EndChar

StartChar: uniE174
Encoding: 57716 57716 48
Width: 1000
Flags: H
LayerCount: 2
Fore
SplineSet
809.270507812 -23.115234375 m 1
 729.762695312 -83.744140625 l 1
 729.70703125 -83.6708984375 190.7421875 623.116210938 190.7421875 623.116210938 c 1
 270.25 683.745117188 l 1
 809.270507812 -23.115234375 l 1
460.225585938 330.255859375 m 1
 539.787109375 269.696289062 l 1
 270.3046875 -83.6728515625 l 1
 190.743164062 -23.11328125 l 1
 460.225585938 330.255859375 l 1
EndSplineSet
Validated: 5
EndChar

StartChar: uniE175
Encoding: 57717 57717 49
Width: 1000
Flags: H
LayerCount: 2
Fore
SplineSet
107.638671875 344.526367188 m 1
 109.03515625 244.536132812 l 1
 892.361328125 255.473632812 l 1
 890.96484375 355.463867188 l 1
 107.638671875 344.526367188 l 1
131.141601562 3.8056640625 m 1
 194.09375 -73.8720703125 l 1
 655.42578125 300 l 1
 194.09375 673.872070312 l 1
 173.116210938 647.95703125 152.083984375 622.09765625 131.141601562 596.147460938 c 2
 496.625 300 l 1
 496.625 300 131.19921875 3.8525390625 131.141601562 3.8056640625 c 1
EndSplineSet
Validated: 5
EndChar

StartChar: uniE176
Encoding: 57718 57718 50
Width: 1000
Flags: H
LayerCount: 2
Fore
SplineSet
366.467773438 733.8671875 m 1
 313.684570312 697.337890625 279.211914062 625.985351562 279.211914062 553.505859375 c 0
 279.211914062 448.014648438 353.352539062 354.495117188 507.618164062 354.495117188 c 0
 707.963867188 354.495117188 762.314453125 535.306640625 690.994140625 663.489257812 c 0
 675.577148438 691.198242188 654.174804688 716.2265625 626.68359375 734.438476562 c 1
 608.284179688 706.62109375 589.81640625 678.872070312 571.4609375 651.010742188 c 0
 583.408203125 643.096679688 594.803710938 630.688476562 603.546875 614.974609375 c 0
 631.584960938 564.58203125 641.043945312 454.495117188 507.618164062 454.495117188 c 0
 458.501953125 454.495117188 379.211914062 467.772460938 379.211914062 553.505859375 c 0
 379.211914062 593.178710938 398.537109375 634.459960938 423.370117188 651.645507812 c 1
 366.467773438 733.8671875 l 1
552.6328125 302.216796875 m 1
 452.640625 303.447265625 l 1
 447.3671875 -133.173828125 l 1
 547.359375 -134.404296875 l 1
 552.6328125 302.216796875 l 1
EndSplineSet
Validated: 41
EndChar

StartChar: uniE17A
Encoding: 57722 57722 51
Width: 500
Flags: HW
LayerCount: 2
Fore
SplineSet
60.015625 564.291992188 m 0
 60.015625 347.734375 242.956054688 295.642578125 371.025390625 364.015625 c 0
 397.763671875 378.291015625 421.888671875 397.805664062 439.43359375 423.157226562 c 1
 439.43359375 423.157226562 357.211914062 480.059570312 357.1484375 479.967773438 c 0
 340.185546875 455.45703125 299.041992188 435.920898438 259.100585938 435.920898438 c 0
 241.853515625 435.920898438 160.015625 436.58984375 160.015625 564.291992188 c 0
 160.015625 617.614257812 176.858398438 644.145507812 195.1015625 658.717773438 c 0
 240.982421875 695.366210938 325.7890625 674.747070312 356.63671875 628.159179688 c 1
 440.010742188 683.364257812 l 1
 377.515625 777.748046875 225.969726562 811.340820312 132.76171875 736.888671875 c 0
 86.87890625 700.239257812 60.015625 640.38671875 60.015625 564.291992188 c 0
EndSplineSet
Validated: 41
EndChar

StartChar: uniE17B
Encoding: 57723 57723 52
Width: 1000
Flags: HW
LayerCount: 2
Fore
SplineSet
710.483398438 -134.22265625 m 0
 910.892578125 -134.22265625 965.247070312 46.6279296875 893.8984375 174.815429688 c 0
 878.47265625 202.529296875 857.05859375 227.561523438 829.555664062 245.772460938 c 1
 829.555664062 245.772460938 774.350585938 162.3984375 774.448242188 162.333007812 c 0
 804.821289062 142.22265625 823.720703125 99.2080078125 823.720703125 60.28515625 c 0
 823.720703125 24.4755859375 808.735351562 -34.22265625 710.483398438 -34.22265625 c 0
 661.825195312 -34.22265625 582.12109375 -21.10546875 582.12109375 64.841796875 c 0
 582.12109375 104.760742188 601.650390625 145.923828125 626.197265625 162.90234375 c 2
 597.802734375 254.052734375 l 1
 75.9765625 254.052734375 l 1
 75.9765625 154.052734375 l 1
 499.59375 154.052734375 l 1
 448.127929688 27.064453125 507.323242188 -134.22265625 710.483398438 -134.22265625 c 0
507.553710938 734.22265625 m 0
 291.008789062 734.22265625 238.932617188 551.301757812 307.31640625 423.223632812 c 0
 321.594726562 396.48046875 341.112304688 372.3515625 366.467773438 354.8046875 c 1
 366.467773438 354.8046875 423.370117188 437.026367188 423.278320312 437.08984375 c 0
 398.760742188 454.057617188 379.211914062 495.217773438 379.211914062 535.169921875 c 0
 379.211914062 552.439453125 379.892578125 634.22265625 507.553710938 634.22265625 c 0
 560.880859375 634.22265625 587.413085938 617.377929688 601.986328125 599.129882812 c 0
 638.633789062 553.245117188 618.020507812 468.439453125 571.4609375 437.595703125 c 1
 626.68359375 354.233398438 l 1
 684.334960938 392.424804688 720.799804688 465.155273438 720.799804688 539.694335938 c 0
 720.799804688 646.694335938 645.671875 734.22265625 507.553710938 734.22265625 c 0
EndSplineSet
Validated: 41
EndChar

StartChar: uniE17C
Encoding: 57724 57724 53
Width: 1000
Flags: HW
LayerCount: 2
Fore
SplineSet
507.555664062 681.48828125 m 0
 290.8203125 681.48828125 239.01171875 498.440429688 307.314453125 370.49609375 c 0
 321.592773438 343.750976562 341.110351562 319.619140625 366.467773438 302.0703125 c 1
 366.467773438 302.0703125 423.370117188 384.291992188 423.278320312 384.35546875 c 0
 398.763671875 401.321289062 379.211914062 442.489257812 379.211914062 482.451171875 c 0
 379.211914062 500.401367188 380.338867188 581.48828125 507.555664062 581.48828125 c 0
 560.884765625 581.48828125 587.41796875 564.645507812 601.989257812 546.403320312 c 0
 638.634765625 500.526367188 618.018554688 415.725585938 571.447265625 384.852539062 c 1
 626.697265625 301.508789062 l 1
 684.34375 339.72265625 720.799804688 412.456054688 720.799804688 486.98046875 c 0
 720.799804688 593.9765625 645.671875 681.48828125 507.555664062 681.48828125 c 0
75.634765625 62.646484375 m 1
 75.634765625 -37.353515625 l 1
 924.315429688 -37.353515625 l 1
 660.220703125 245.640625 l 1
 587.125 177.42578125 l 1
 694.239257812 62.646484375 l 1
 75.634765625 62.646484375 l 1
EndSplineSet
Validated: 41
EndChar

StartChar: uniE17D
Encoding: 57725 57725 54
Width: 1000
Flags: HW
LayerCount: 2
Fore
SplineSet
77.9541015625 224.282226562 m 1
 77.9541015625 124.282226562 l 1
 922.045898438 124.282226562 l 1
 922.045898438 224.282226562 l 1
 77.9541015625 224.282226562 l 1
550.024414062 138.930664062 m 1
 450.024414062 138.930664062 l 1
 450.024414062 -117.319335938 l 1
 550.024414062 -117.319335938 l 1
 550.024414062 138.930664062 l 1
500 513.029296875 m 1
 500 513.029296875 370.366210938 725.76953125 370.30078125 725.875 c 2
 284.907226562 673.83984375 l 1
 500 320.857421875 l 1
 715.092773438 673.83984375 l 1
 715.092773438 673.83984375 629.69921875 725.875 629.633789062 725.76953125 c 0
 500 513.029296875 500 513.029296875 500 513.029296875 c 1
EndSplineSet
Validated: 37
EndChar

StartChar: uniE180
Encoding: 57728 57728 55
Width: 1000
Flags: HW
LayerCount: 2
Fore
SplineSet
66.9482421875 -85.439453125 m 1
 123.583007812 -167.846679688 l 1
 500 90.8486328125 l 1
 876.416992188 -167.846679688 l 1
 895.286132812 -140.34765625 914.224609375 -112.91796875 933.051757812 -85.3759765625 c 0
 788.702148438 13.8095703125 644.345703125 112.98828125 500 212.178710938 c 1
 66.9482421875 -85.439453125 l 1
439.578125 607.568359375 m 0
 483.750976562 663.573242188 584.04296875 647.76953125 585.453125 526.9453125 c 1
 685.446289062 528.111328125 l 1
 682.922851562 744.421875 462.493164062 798.07421875 361.021484375 669.422851562 c 0
 332.42578125 633.166992188 315.796875 584.825195312 315.28515625 527.998046875 c 0
 313.657226562 350.288085938 315.296875 283.80078125 315.296875 281.334960938 c 1
 315.296875 281.334960938 415.270507812 283.6640625 415.26953125 283.704101562 c 0
 414.5625 313.415039062 414.138671875 402.346679688 415.28125 527.080078125 c 0
 415.622070312 564.936523438 426.276367188 590.704101562 439.578125 607.568359375 c 0
EndSplineSet
Validated: 41
EndChar

StartChar: uniE181
Encoding: 57729 57729 56
Width: 1000
Flags: HW
LayerCount: 2
Fore
SplineSet
66.9482421875 -85.439453125 m 1
 123.583007812 -167.846679688 l 1
 500 90.8486328125 l 1
 876.416992188 -167.846679688 l 1
 895.286132812 -140.34765625 914.224609375 -112.91796875 933.051757812 -85.3759765625 c 0
 788.702148438 13.8095703125 644.345703125 112.98828125 500 212.178710938 c 1
 66.9482421875 -85.439453125 l 1
344.84765625 458.873046875 m 0
 306.703125 532.420898438 423.508789062 676.837890625 506.452148438 676.837890625 c 0
 591.263671875 674.892578125 693.6328125 532.564453125 653.745117188 459.89453125 c 0
 624.24609375 406.197265625 475.279296875 384.014648438 387.131835938 424.274414062 c 0
 364.025390625 434.828125 350.717773438 447.564453125 344.84765625 458.873046875 c 0
237.565429688 491.280273438 m 0
 237.565429688 301.112304688 506.852539062 269.487304688 649.877929688 333.404296875 c 0
 704.484375 357.807617188 762.502929688 405.34375 762.502929688 497.17578125 c 0
 762.502929688 531.329101562 754.150390625 564.430664062 740.794921875 595.374023438 c 0
 702.318359375 684.525390625 611.239257812 774.411132812 510.331054688 776.79296875 c 0
 397.912109375 776.952148438 301.635742188 678.23828125 261.984375 593.151367188 c 0
 247.131835938 561.280273438 237.565429688 526.958984375 237.565429688 491.280273438 c 0
EndSplineSet
Validated: 41
EndChar

StartChar: uniE182
Encoding: 57730 57730 57
Width: 1000
Flags: HW
LayerCount: 2
Fore
SplineSet
344.84765625 405.943359375 m 0
 306.703125 479.491210938 423.508789062 623.908203125 506.452148438 623.908203125 c 0
 591.27734375 621.995117188 693.631835938 479.6328125 653.745117188 406.96484375 c 0
 624.24609375 353.267578125 475.279296875 331.084960938 387.131835938 371.344726562 c 0
 364.025390625 381.8984375 350.717773438 394.634765625 344.84765625 405.943359375 c 0
237.565429688 438.350585938 m 0
 237.565429688 248.182617188 506.852539062 216.557617188 649.877929688 280.474609375 c 0
 704.48828125 304.879882812 762.502929688 352.415039062 762.502929688 444.249023438 c 0
 762.502929688 478.404296875 754.150390625 511.508789062 740.795898438 542.455078125 c 0
 702.33984375 631.572265625 611.26953125 721.522460938 510.331054688 723.86328125 c 0
 397.912109375 724.022460938 301.635742188 625.30859375 261.984375 540.221679688 c 0
 247.131835938 508.350585938 237.565429688 474.029296875 237.565429688 438.350585938 c 0
111.962890625 125.1953125 m 1
 111.962890625 25.1953125 l 1
 888.037109375 25.1953125 l 1
 888.037109375 125.1953125 l 1
 111.962890625 125.1953125 l 1
EndSplineSet
Validated: 41
EndChar

StartChar: uniE183
Encoding: 57731 57731 58
Width: 1000
Flags: HW
LayerCount: 2
Fore
SplineSet
507.618164062 651.022460938 m 0
 290.676757812 651.022460938 239.067382812 467.893554688 307.31640625 340.069335938 c 0
 321.594726562 313.326171875 341.112304688 289.197265625 366.467773438 271.650390625 c 1
 366.467773438 271.650390625 423.370117188 353.872070312 423.278320312 353.935546875 c 0
 398.75 370.911132812 379.211914062 412.080078125 379.211914062 452.01171875 c 0
 379.211914062 470.25 380.52734375 551.022460938 507.618164062 551.022460938 c 0
 560.91796875 551.022460938 587.432617188 534.185546875 601.997070312 515.948242188 c 0
 638.630859375 470.076171875 618.015625 385.28125 571.4609375 354.44140625 c 1
 626.68359375 271.079101562 l 1
 684.333007812 309.26953125 720.799804688 382 720.799804688 456.536132812 c 0
 720.799804688 563.53515625 645.672851562 651.022460938 507.618164062 651.022460938 c 0
806.982421875 48.974609375 m 1
 193.017578125 48.974609375 l 1
 193.017578125 322.509765625 l 1
 93.017578125 322.509765625 l 1
 93.017578125 -51.025390625 l 1
 906.982421875 -51.025390625 l 1
 906.982421875 322.509765625 l 1
 806.982421875 322.509765625 l 1
 806.982421875 48.974609375 l 1
EndSplineSet
Validated: 41
EndChar

StartChar: uniE186
Encoding: 57734 57734 59
Width: 1000
Flags: H
LayerCount: 2
Fore
SplineSet
308.586914062 456.889648438 m 1
 315.921875 454.4921875 436.006835938 415.760742188 534.568359375 415.760742188 c 0
 563.963867188 415.760742188 593.329101562 418.631835938 621.10546875 430.0859375 c 0
 677.676757812 453.415039062 720.200195312 519.142578125 668.629882812 610.11328125 c 0
 652.612304688 638.369140625 631.28125 663.348632812 609.6015625 685.466796875 c 0
 560.975585938 735.075195312 509.083984375 770.62109375 507.654296875 771.606445312 c 1
 451.499023438 688.66796875 l 1
 453.004882812 687.629882812 547.5859375 621.33203125 582.166015625 560.333007812 c 0
 583.065429688 558.745117188 595.569335938 536.397460938 591.165039062 527.879882812 c 0
 591.083007812 525.473632812 573.651367188 516.220703125 534.568359375 516.220703125 c 0
 453.001953125 516.220703125 339.263671875 552.481445312 339.263671875 552.481445312 c 1
 308.586914062 456.889648438 l 1
529.39453125 491.016601562 m 1
 429.852539062 491.016601562 l 1
 429.852539062 265.59375 l 1
 529.39453125 265.59375 l 1
 529.39453125 491.016601562 l 1
66.9482421875 -81.875 m 1
 123.583007812 -164.282226562 l 1
 500 94.4130859375 l 1
 876.416992188 -164.282226562 l 1
 895.286132812 -136.783203125 914.224609375 -109.353515625 933.051757812 -81.8115234375 c 0
 788.702148438 17.3740234375 644.345703125 116.552734375 500 215.743164062 c 1
 66.9482421875 -81.875 l 1
EndSplineSet
Validated: 37
EndChar

StartChar: uniE187
Encoding: 57735 57735 60
Width: 1000
Flags: HW
LayerCount: 2
Fore
SplineSet
909.885742188 108.250976562 m 0
 958.736328125 258.063476562 937.682617188 481.73828125 838.02734375 593.243164062 c 0
 803.017578125 632.416015625 754.9765625 660.23828125 697.610351562 661.940429688 c 0
 648.135742188 663.41796875 544.27734375 659.0703125 450.940429688 578.202148438 c 0
 381.32421875 517.887695312 343.614257812 440.326171875 317.40625 387.92578125 c 0
 304.953125 363.026367188 294.2734375 343.41796875 289.607421875 337.479492188 c 0
 261.374023438 301.517578125 168.513671875 313.622070312 117.870117188 345.301757812 c 1
 117.870117188 345.301757812 64.837890625 260.525390625 64.9423828125 260.459960938 c 0
 151.381835938 206.388671875 299.837890625 188.59765625 368.302734375 275.801757812 c 0
 411.723632812 331.065429688 445.90234375 469.021484375 556.853515625 531.17578125 c 0
 587.481445312 548.333984375 630.879882812 563.887695312 694.577148438 561.985351562 c 0
 720.680664062 561.2109375 742.461914062 550.133789062 763.452148438 526.6484375 c 0
 854.967773438 424.251953125 858.407226562 155.00390625 774.422851562 64.3310546875 c 0
 758.133789062 46.7451171875 730.306640625 24.5595703125 673.577148438 47.6123046875 c 1
 673.577148438 47.6123046875 635.924804688 -45.0458984375 635.993164062 -45.0732421875 c 0
 750.828125 -91.7373046875 860.487304688 -43.244140625 909.885742188 108.250976562 c 0
EndSplineSet
Validated: 41
EndChar

StartChar: uniE188
Encoding: 57736 57736 61
Width: 1000
Flags: HW
LayerCount: 2
Fore
SplineSet
696.337890625 365.0390625 m 1
 696.337890625 465.0390625 l 1
 403.662109375 465.0390625 l 1
 403.662109375 672.705078125 l 1
 696.337890625 672.705078125 l 1
 696.337890625 772.705078125 l 1
 303.662109375 772.705078125 l 1
 303.662109375 365.0390625 l 1
 696.337890625 365.0390625 l 1
344.84765625 14.1953125 m 0
 306.703125 87.7431640625 423.508789062 232.16015625 506.452148438 232.16015625 c 0
 591.27734375 230.247070312 693.631835938 87.884765625 653.745117188 15.216796875 c 0
 624.24609375 -38.48046875 475.279296875 -60.6630859375 387.131835938 -20.4033203125 c 0
 364.025390625 -9.849609375 350.717773438 2.88671875 344.84765625 14.1953125 c 0
237.565429688 46.6025390625 m 0
 237.565429688 -143.565429688 506.852539062 -175.190429688 649.877929688 -111.2734375 c 0
 704.48828125 -86.8681640625 762.502929688 -39.3330078125 762.502929688 52.5009765625 c 0
 762.502929688 86.65625 754.150390625 119.760742188 740.795898438 150.70703125 c 0
 702.33984375 239.82421875 611.26953125 329.774414062 510.331054688 332.115234375 c 0
 397.912109375 332.274414062 301.635742188 233.560546875 261.984375 148.473632812 c 0
 247.131835938 116.602539062 237.565429688 82.28125 237.565429688 46.6025390625 c 0
EndSplineSet
Validated: 41
EndChar

StartChar: uniE189
Encoding: 57737 57737 62
Width: 1000
Flags: H
LayerCount: 2
Fore
SplineSet
686.760742188 702.524414062 m 1
 586.760742188 702.524414062 l 1
 586.760742188 -85.9267578125 l 1
 686.760742188 -85.9267578125 l 1
 686.760742188 702.524414062 l 1
626.657226562 73.61328125 m 1
 606.393554688 171.555664062 l 2
 606.32421875 171.541015625 313.223632812 110.899414062 313.223632812 110.899414062 c 1
 333.487304688 12.95703125 l 1
 626.657226562 73.61328125 l 1
606.32421875 445.056640625 m 1
 626.657226562 542.984375 l 1
 333.556640625 603.625976562 l 1
 313.223632812 505.698242188 l 1
 606.32421875 445.056640625 l 1
EndSplineSet
Validated: 5
EndChar

StartChar: uniE18A
Encoding: 57738 57738 63
Width: 1000
Flags: HW
LayerCount: 2
Fore
SplineSet
559.243164062 59.474609375 m 1
 939.032226562 62.6083984375 1017.27148438 333.668945312 832.672851562 465.455078125 c 0
 768.399414062 511.33984375 676.411132812 538.799804688 559.1640625 539.549804688 c 0
 207.668945312 541.762695312 76.6181640625 539.543945312 71.7431640625 539.543945312 c 1
 73.3447265625 439.556640625 l 1
 135.328125 440.549804688 312.305664062 441.1015625 558.51171875 439.551757812 c 0
 660.504882812 438.899414062 732.16796875 414.349609375 774.661132812 384.013671875 c 0
 895.203125 297.958007812 807.323242188 161.524414062 558.41796875 159.470703125 c 1
 559.243164062 59.474609375 l 1
EndSplineSet
Validated: 41
EndChar

StartChar: uniE18C
Encoding: 57740 57740 64
Width: 1000
Flags: H
LayerCount: 2
Fore
SplineSet
787.158203125 369.921875 m 1
 787.158203125 439.846679688 866.9296875 558.295898438 899.99609375 599.459960938 c 1
 831.80859375 671.295898438 l 1
 604.880859375 508.250976562 414.965820312 503.294921875 154.494140625 672.616210938 c 1
 154.494140625 672.616210938 99.9951171875 588.77734375 100.095703125 588.711914062 c 0
 315.48046875 448.701171875 508.989257812 405.34375 717.407226562 491.583984375 c 1
 696.81640625 444.793945312 687.158203125 404.935546875 687.158203125 369.921875 c 1
 787.158203125 369.921875 l 1
212.841796875 -72.55859375 m 1
 212.841796875 -2.6337890625 133.0703125 115.815429688 100.00390625 156.979492188 c 1
 168.197265625 228.811523438 l 1
 395.181640625 65.6806640625 585.096679688 60.80859375 845.5 230.131835938 c 1
 845.5 230.131835938 900.010742188 146.30078125 899.91015625 146.235351562 c 0
 684.509765625 6.17578125 491.004882812 -37.1767578125 282.606445312 49.072265625 c 1
 303.188476562 2.2939453125 312.841796875 -37.552734375 312.841796875 -72.55859375 c 1
 212.841796875 -72.55859375 l 1
EndSplineSet
Validated: 41
EndChar

StartChar: uniE18D
Encoding: 57741 57741 65
Width: 1000
Flags: H
LayerCount: 2
Fore
SplineSet
95.703125 736.62109375 m 1
 95.703125 636.62109375 l 1
 541.370117188 636.62109375 l 1
 716.668945312 378.126953125 l 1
 904.333984375 679.325195312 l 2
 904.333984375 679.325195312 819.461914062 732.205078125 819.396484375 732.100585938 c 0
 713.116210938 561.521484375 713.116210938 561.521484375 713.116210938 561.521484375 c 1
 594.372070312 736.62109375 l 1
 95.703125 736.62109375 l 1
453.887695312 -167.797851562 m 1
 553.829101562 -166.407226562 l 1
 546.119140625 388.724609375 l 1
 446.178710938 387.333984375 l 1
 453.887695312 -167.797851562 l 1
499.989257812 136.0234375 m 1
 301.603515625 381.05859375 l 1
 223.963867188 318.075195312 l 1
 499.983398438 -22.8505859375 l 1
 776.041015625 318.073242188 l 1
 776.041015625 318.073242188 698.405273438 381.061523438 698.358398438 381.002929688 c 2
 499.989257812 136.0234375 l 1
EndSplineSet
Validated: 37
EndChar

StartChar: uniE18E
Encoding: 57742 57742 66
Width: 1000
Flags: H
LayerCount: 2
Fore
SplineSet
106.298828125 213.37890625 m 1
 106.298828125 113.37890625 l 1
 551.965820312 113.37890625 l 1
 727.264648438 -145.115234375 l 1
 914.9296875 156.083007812 l 1
 914.9296875 156.083007812 830.057617188 208.962890625 829.9921875 208.858398438 c 0
 723.711914062 38.279296875 723.711914062 38.279296875 723.711914062 38.279296875 c 1
 604.967773438 213.37890625 l 1
 106.298828125 213.37890625 l 1
451.65234375 521.875 m 1
 451.65234375 521.875 664.392578125 651.508789062 664.498046875 651.57421875 c 2
 612.462890625 736.967773438 l 1
 259.48046875 521.875 l 1
 612.462890625 306.782226562 l 2
 612.462890625 306.782226562 664.498046875 392.17578125 664.392578125 392.241210938 c 0
 451.65234375 521.875 451.65234375 521.875 451.65234375 521.875 c 1
EndSplineSet
Validated: 41
EndChar

StartChar: uniE18F
Encoding: 57743 57743 67
Width: 500
Flags: HW
LayerCount: 2
Fore
SplineSet
195.6171875 783.34375 m 1
 95.6171875 783.34375 l 1
 95.6171875 330.788085938 l 1
 195.6171875 330.788085938 l 1
 195.6171875 783.34375 l 1
8.1611328125 703.061523438 m 1
 8.1611328125 603.061523438 l 1
 460.715820312 603.061523438 l 1
 460.715820312 703.061523438 l 1
 8.1611328125 703.061523438 l 1
EndSplineSet
Validated: 5
EndChar

StartChar: uniE190
Encoding: 57744 57744 68
Width: 500
Flags: HW
LayerCount: 2
Fore
SplineSet
352.59375 661.508789062 m 0
 357.03515625 653.471679688 349.811523438 628.319335938 338.015625 603.811523438 c 0
 314.078125 554.07421875 282.978515625 513.248046875 239.841796875 441.771484375 c 1
 230.13671875 461.259765625 220.001953125 480.442382812 210.173828125 499.184570312 c 0
 180.80859375 555.180664062 146.131835938 621.3046875 146.131835938 657.19140625 c 0
 146.131835938 669.217773438 149.756835938 671.561523438 156.408203125 675.010742188 c 0
 198.272460938 696.7265625 339.115234375 685.90234375 352.59375 661.508789062 c 0
256.053710938 786.189453125 m 0
 207.263671875 788.16015625 95.9619140625 789.983398438 57.8603515625 711.36328125 c 0
 23.3369140625 640.127929688 70.36328125 550.455078125 121.551757812 452.84375 c 0
 148.725585938 401.026367188 175.18359375 349.4765625 187.245117188 308.115234375 c 2
 229.522460938 163.127929688 l 1
 282.139648438 304.723632812 l 2
 310.908203125 382.141601562 389.169921875 479.485351562 428.178710938 560.536132812 c 0
 439.862304688 584.8125 472.154296875 651.90625 440.18359375 709.765625 c 0
 403.448242188 776.250976562 308.096679688 784.078125 256.053710938 786.189453125 c 0
EndSplineSet
Validated: 41
EndChar

StartChar: uniE194
Encoding: 57748 57748 69
Width: 1000
Flags: H
LayerCount: 2
Fore
SplineSet
155.271484375 245.774414062 m 1
 155.271484375 145.774414062 l 1
 844.724609375 145.774414062 l 1
 844.724609375 245.774414062 l 1
 155.271484375 245.774414062 l 1
711.364257812 188.216796875 m 1
 613.421875 167.953125 l 1
 613.436523438 167.8828125 666.463867188 -88.416015625 666.463867188 -88.416015625 c 1
 764.405273438 -68.1513671875 l 1
 711.364257812 188.216796875 l 1
386.559570312 167.8828125 m 1
 288.631835938 188.216796875 l 1
 235.604492188 -68.08203125 l 1
 333.532226562 -88.416015625 l 1
 386.559570312 167.8828125 l 1
680.338867188 523.827148438 m 0
 585.227539062 523.827148438 506.536132812 688.377929688 354.696289062 688.377929688 c 0
 271.358398438 688.377929688 184.421875 639.534179688 80.751953125 527.3203125 c 1
 154.189453125 459.473632812 l 1
 250.505859375 563.728515625 314.012695312 588.377929688 354.696289062 588.377929688 c 0
 460.477539062 588.377929688 535.551757812 423.827148438 680.338867188 423.827148438 c 0
 756.123046875 423.827148438 832.157226562 468.653320312 919.283203125 565.930664062 c 1
 919.283203125 565.930664062 844.806640625 632.635742188 844.779296875 632.604492188 c 0
 765.030273438 543.563476562 712.942382812 523.827148438 680.338867188 523.827148438 c 0
EndSplineSet
Validated: 37
EndChar

StartChar: uniE12B
Encoding: 57643 57643 70
Width: 1000
Flags: HW
LayerCount: 2
Fore
SplineSet
88.4462890625 680.982421875 m 0
 442.526367188 368.07421875 735.698242188 504.700195312 936.771484375 680.873046875 c 1
 870.8828125 756.073242188 l 1
 631.375976562 546.227539062 405.340820312 534.364257812 154.620117188 755.931640625 c 1
 154.620117188 755.931640625 88.412109375 681.012695312 88.4462890625 680.982421875 c 0
667.443359375 218.26171875 m 1
 447.528320312 218.26171875 l 1
 556.39453125 428.526367188 l 1
 556.39453125 428.526367188 467.584960938 474.5078125 467.53125 474.403320312 c 0
 283.135742188 118.26171875 283.135742188 118.26171875 283.135742188 118.26171875 c 1
 503.064453125 118.26171875 l 1
 394.189453125 -92.0546875 l 1
 394.189453125 -92.0546875 483.001953125 -138.030273438 483.056640625 -137.92578125 c 0
 667.443359375 218.26171875 667.443359375 218.26171875 667.443359375 218.26171875 c 1
EndSplineSet
Validated: 37
EndChar

StartChar: uniE145
Encoding: 57669 57669 71
Width: 1000
Flags: HW
LayerCount: 2
Fore
SplineSet
392.67578125 734.912109375 m 1
 292.67578125 734.912109375 l 1
 292.67578125 -134.912109375 l 1
 707.32421875 -134.912109375 l 1
 707.32421875 -34.912109375 l 1
 392.67578125 -34.912109375 l 1
 392.67578125 734.912109375 l 1
EndSplineSet
Validated: 9
EndChar

StartChar: uniE14B
Encoding: 57675 57675 72
Width: 1000
Flags: HW
LayerCount: 2
Fore
SplineSet
453.668945312 -143.206054688 m 1
 553.649414062 -142.389648438 l 1
 546.337890625 754.234375 l 1
 446.356445312 753.41796875 l 1
 453.668945312 -143.206054688 l 1
499.989257812 519.063476562 m 1
 313.823242188 748.854492188 l 1
 236.157226562 685.891601562 l 1
 499.984375 360.2421875 l 1
 763.846679688 685.889648438 l 1
 763.846679688 685.889648438 686.185546875 748.856445312 686.138671875 748.798828125 c 2
 499.989257812 519.063476562 l 1
256.93359375 158.642578125 m 1
 256.93359375 58.642578125 l 1
 743.06640625 58.642578125 l 1
 743.06640625 158.642578125 l 1
 256.93359375 158.642578125 l 1
EndSplineSet
Validated: 37
EndChar

StartChar: uniE15F
Encoding: 57695 57695 73
Width: 1000
Flags: HW
LayerCount: 2
Fore
SplineSet
438.8671875 -124.365234375 m 1
 538.8671875 -124.365234375 l 1
 538.8671875 724.315429688 l 1
 255.892578125 460.23828125 l 1
 324.087890625 387.125 l 1
 438.8671875 494.239257812 l 1
 438.8671875 -124.365234375 l 1
744.091796875 309.5703125 m 1
 644.091796875 309.5703125 l 1
 644.091796875 -124.365234375 l 1
 744.091796875 -124.365234375 l 1
 744.091796875 309.5703125 l 1
EndSplineSet
Validated: 9
EndChar

StartChar: uniE165
Encoding: 57701 57701 74
Width: 1000
Flags: HW
LayerCount: 2
Fore
SplineSet
75.8974609375 59.64453125 m 0
 429.956054688 -253.245117188 723.127929688 -116.607421875 924.172851562 59.5341796875 c 1
 858.286132812 134.736328125 l 1
 618.796875 -75.087890625 392.766601562 -86.9501953125 142.071289062 134.59375 c 1
 142.071289062 134.59375 75.86328125 59.6748046875 75.8974609375 59.64453125 c 0
506.2109375 538.158203125 m 0
 506.2109375 470.389648438 393.797851562 408.322265625 393.797851562 290.103515625 c 0
 393.797851562 223.802734375 428.921875 154.987304688 506.94921875 74.6083984375 c 1
 578.6953125 144.239257812 l 1
 508.875 216.1640625 493.797851562 261.938476562 493.797851562 290.103515625 c 0
 493.797851562 366.297851562 606.2109375 425.015625 606.2109375 538.158203125 c 0
 606.2109375 598.736328125 573.74609375 659.3515625 505.831054688 727.170898438 c 1
 435.184570312 656.423828125 l 1
 494.565429688 597.126953125 506.2109375 560.145507812 506.2109375 538.158203125 c 0
EndSplineSet
Validated: 41
EndChar

StartChar: uniE179
Encoding: 57721 57721 75
Width: 1000
Flags: HW
LayerCount: 2
Fore
SplineSet
593.377929688 459.41796875 m 1
 493.392578125 461.127929688 l 1
 484.5546875 -64.7998046875 l 1
 584.540039062 -66.509765625 l 1
 593.377929688 459.41796875 l 1
825.706054688 566.481445312 m 0
 875.616210938 566.481445312 907.963867188 565.010742188 907.963867188 565.010742188 c 1
 912.498046875 664.91015625 l 1
 896.193359375 665.638671875 598.6953125 678.0625 450.592773438 621.939453125 c 0
 301.450195312 565.44140625 98.087890625 355.640625 87.5537109375 344.706054688 c 1
 159.557617188 275.340820312 l 1
 202.1015625 319.502929688 373.65625 485.840820312 485.982421875 528.391601562 c 0
 550.658203125 552.900390625 673.978515625 566.481445312 825.706054688 566.481445312 c 0
EndSplineSet
Validated: 41
EndChar

StartChar: uniE17F
Encoding: 57727 57727 76
Width: 1000
Flags: HW
LayerCount: 2
Fore
SplineSet
829.569335938 114.1484375 m 1
 887.243164062 152.364257812 923.720703125 225.108398438 923.720703125 299.647460938 c 0
 923.720703125 406.630859375 848.595703125 494.134765625 710.485351562 494.134765625 c 0
 507.311523438 494.134765625 448.1328125 332.836914062 499.59375 205.859375 c 1
 75.9765625 205.859375 l 1
 75.9765625 105.859375 l 1
 597.802734375 105.859375 l 1
 626.197265625 197.009765625 l 2
 601.65625 213.984375 582.12109375 255.142578125 582.12109375 295.0703125 c 0
 582.12109375 312.15234375 582.681640625 394.134765625 710.485351562 394.134765625 c 0
 763.810546875 394.134765625 790.341796875 377.293945312 804.912109375 359.056640625 c 0
 841.55859375 313.184570312 820.936523438 228.381835938 774.336914062 197.504882812 c 1
 829.569335938 114.1484375 l 1
EndSplineSet
Validated: 41
EndChar

StartChar: uniE193
Encoding: 57747 57747 77
Width: 1000
Flags: HW
LayerCount: 2
Fore
SplineSet
97.265625 534.375 m 1
 97.265625 434.375 l 1
 534.209960938 434.375 l 1
 713.185546875 65.5693359375 l 1
 902.766601562 490.508789062 l 1
 902.766601562 490.508789062 811.431640625 531.256835938 811.393554688 531.170898438 c 0
 709.373046875 302.497070312 709.373046875 302.497070312 709.373046875 302.497070312 c 1
 596.844726562 534.375 l 1
 97.265625 534.375 l 1
EndSplineSet
Validated: 41
EndChar

StartChar: uniE195
Encoding: 57749 57749 78
Width: 1000
Flags: H
LayerCount: 2
Fore
SplineSet
75.634765625 529.19921875 m 1
 75.634765625 429.19921875 l 1
 924.315429688 429.19921875 l 1
 660.220703125 712.193359375 l 1
 587.125 643.978515625 l 1
 694.239257812 529.19921875 l 1
 75.634765625 529.19921875 l 1
344.84765625 43.19921875 m 0
 306.703125 116.747070312 423.508789062 261.1640625 506.452148438 261.1640625 c 0
 591.263671875 259.21875 693.6328125 116.890625 653.745117188 44.220703125 c 0
 624.24609375 -9.4765625 475.279296875 -31.6591796875 387.131835938 8.6005859375 c 0
 364.025390625 19.154296875 350.717773438 31.890625 344.84765625 43.19921875 c 0
237.565429688 75.6064453125 m 0
 237.565429688 -114.561523438 506.852539062 -146.186523438 649.877929688 -82.26953125 c 0
 704.484375 -57.8662109375 762.502929688 -10.330078125 762.502929688 81.501953125 c 0
 762.502929688 115.655273438 754.150390625 148.756835938 740.794921875 179.700195312 c 0
 702.318359375 268.8515625 611.239257812 358.737304688 510.331054688 361.119140625 c 0
 397.912109375 361.278320312 301.635742188 262.564453125 261.984375 177.477539062 c 0
 247.131835938 145.606445312 237.565429688 111.28515625 237.565429688 75.6064453125 c 0
EndSplineSet
Validated: 41
EndChar

StartChar: uniE196
Encoding: 57750 57750 79
Width: 500
Flags: HW
LayerCount: 2
Fore
SplineSet
83.59375 782.8125 m 1
 83.59375 782.8125 133.33984375 720.66796875 194.82421875 658.984375 c 0
 195.1796875 658.627929688 195.541992188 658.364257812 195.8984375 658.0078125 c 0
 207.00390625 667.184570312 216.827148438 678.3203125 228.22265625 686.42578125 c 0
 265.891601562 713.21875 304.083984375 735.78125 350.9765625 735.64453125 c 0
 392.780273438 735.522460938 430.319335938 713.920898438 451.3671875 684.9609375 c 0
 472.415039062 656.000976562 480.2421875 622.108398438 479.6875 589.0625 c 0
 479.1328125 556.016601562 470.213867188 522.73046875 449.21875 494.53125 c 0
 428.223632812 466.33203125 391.419921875 444.639648438 350.29296875 445.01953125 c 0
 304.06640625 445.447265625 267.87109375 468.224609375 230.76171875 494.921875 c 0
 218.669921875 503.62109375 207.865234375 515.485351562 195.99609375 525.390625 c 0
 194.915039062 524.298828125 193.749023438 523.5546875 192.67578125 522.4609375 c 0
 132.180664062 460.84765625 84.1796875 398.53515625 84.1796875 398.53515625 c 1
 4.8828125 459.5703125 l 1
 4.8828125 459.5703125 55.7763671875 525.446289062 120.8984375 591.89453125 c 0
 57.2451171875 656.412109375 5.46875 720.41015625 5.46875 720.41015625 c 1
 83.59375 782.8125 l 1
350.68359375 635.64453125 m 0
 343.3671875 635.666015625 316.150390625 626.26171875 286.23046875 604.98046875 c 0
 281.451171875 601.581054688 276.215820312 595.625976562 271.2890625 591.796875 c 1
 277.177734375 587.133789062 283.497070312 580.1484375 289.16015625 576.07421875 c 0
 319.038085938 554.579101562 346.491210938 545.063476562 351.26953125 545.01953125 c 0
 361.1484375 544.927734375 363.436523438 546.799804688 368.9453125 554.19921875 c 0
 374.454101562 561.598632812 379.44140625 576.041015625 379.6875 590.72265625 c 0
 379.93359375 605.404296875 375.46484375 619.216796875 370.41015625 626.171875 c 0
 365.35546875 633.126953125 363.088867188 635.608398438 350.68359375 635.64453125 c 0
EndSplineSet
Validated: 33
EndChar

StartChar: uniE199
Encoding: 57753 57753 80
Width: 1000
Flags: H
LayerCount: 2
Fore
SplineSet
66.9482421875 484.970703125 m 1
 123.583007812 402.563476562 l 1
 500 661.258789062 l 1
 876.416992188 402.563476562 l 1
 895.286132812 430.0625 914.224609375 457.4921875 933.051757812 485.034179688 c 0
 788.702148438 584.219726562 644.345703125 683.3984375 500 782.588867188 c 1
 66.9482421875 484.970703125 l 1
454.087890625 -161.40625 m 1
 554.067382812 -160.015625 l 1
 545.918945312 426.25390625 l 1
 445.940429688 424.864257812 l 1
 454.087890625 -161.40625 l 1
499.98828125 154.930664062 m 1
 288.122070312 416.41796875 l 1
 210.452148438 353.458984375 l 1
 499.982421875 -3.8818359375 l 1
 789.552734375 353.456054688 l 1
 789.552734375 353.456054688 711.887695312 416.419921875 711.840820312 416.362304688 c 2
 499.98828125 154.930664062 l 1
EndSplineSet
Validated: 37
EndChar

StartChar: uniE19A
Encoding: 57754 57754 81
Width: 1000
Flags: H
LayerCount: 2
Fore
SplineSet
77.9541015625 218.653320312 m 1
 77.9541015625 118.653320312 l 1
 922.045898438 118.653320312 l 1
 922.045898438 218.653320312 l 1
 77.9541015625 218.653320312 l 1
550.024414062 133.301757812 m 1
 450.024414062 133.301757812 l 1
 450.024414062 -122.948242188 l 1
 550.024414062 -122.948242188 l 1
 550.024414062 133.301757812 l 1
507.618164062 722.946289062 m 0
 290.676757812 722.946289062 239.067382812 539.817382812 307.31640625 411.993164062 c 0
 321.594726562 385.25 341.112304688 361.12109375 366.467773438 343.57421875 c 1
 366.467773438 343.57421875 423.370117188 425.795898438 423.278320312 425.859375 c 0
 398.75 442.834960938 379.211914062 484.00390625 379.211914062 523.935546875 c 0
 379.211914062 542.173828125 380.52734375 622.946289062 507.618164062 622.946289062 c 0
 560.91796875 622.946289062 587.432617188 606.109375 601.997070312 587.872070312 c 0
 638.630859375 542 618.015625 457.205078125 571.4609375 426.365234375 c 1
 626.68359375 343.002929688 l 1
 684.333007812 381.193359375 720.799804688 453.923828125 720.799804688 528.459960938 c 0
 720.799804688 635.458984375 645.672851562 722.946289062 507.618164062 722.946289062 c 0
EndSplineSet
Validated: 37
EndChar

StartChar: uniE19B
Encoding: 57755 57755 82
Width: 500
Flags: HW
LayerCount: 2
Fore
SplineSet
436.767578125 382.91015625 m 1
 436.767578125 482.91015625 l 1
 163.232421875 482.91015625 l 1
 163.232421875 673.53515625 l 1
 436.767578125 673.53515625 l 1
 436.767578125 773.53515625 l 1
 63.232421875 773.53515625 l 1
 63.232421875 382.91015625 l 1
 436.767578125 382.91015625 l 1
EndSplineSet
Validated: 9
EndChar

StartChar: uniE19D
Encoding: 57757 57757 83
Width: 1000
Flags: H
LayerCount: 2
Fore
SplineSet
703.3203125 -124.365234375 m 1
 803.3203125 -124.365234375 l 1
 803.3203125 724.315429688 l 1
 520.345703125 460.23828125 l 1
 588.541015625 387.125 l 1
 703.3203125 494.239257812 l 1
 703.3203125 -124.365234375 l 1
326.7578125 -124.365234375 m 1
 426.7578125 -124.365234375 l 1
 426.7578125 724.315429688 l 1
 143.783203125 460.23828125 l 1
 211.978515625 387.125 l 1
 326.7578125 494.239257812 l 1
 326.7578125 -124.365234375 l 1
190.91796875 162.353515625 m 1
 190.91796875 62.353515625 l 1
 919.23828125 62.353515625 l 1
 919.23828125 162.353515625 l 1
 190.91796875 162.353515625 l 1
EndSplineSet
Validated: 5
EndChar

StartChar: uniE1A0
Encoding: 57760 57760 84
Width: 1000
Flags: H
LayerCount: 2
Fore
SplineSet
65.4296875 305.76171875 m 1
 65.4296875 205.76171875 l 1
 835.205078125 205.76171875 l 1
 835.205078125 -108.837890625 l 1
 935.205078125 -108.837890625 l 1
 935.205078125 305.76171875 l 1
 65.4296875 305.76171875 l 1
64.794921875 708.837890625 m 1
 64.794921875 608.837890625 l 1
 543.5546875 608.837890625 l 1
 543.5546875 294.23828125 l 1
 643.5546875 294.23828125 l 1
 643.5546875 708.837890625 l 1
 64.794921875 708.837890625 l 1
EndSplineSet
Validated: 5
EndChar

StartChar: uniE1A1
Encoding: 57761 57761 85
Width: 1000
Flags: H
LayerCount: 2
Fore
SplineSet
541.50390625 -124.365234375 m 1
 641.50390625 -124.365234375 l 1
 641.50390625 724.315429688 l 1
 358.529296875 460.23828125 l 1
 426.724609375 387.125 l 1
 541.50390625 494.239257812 l 1
 541.50390625 -124.365234375 l 1
EndSplineSet
Validated: 9
EndChar

StartChar: uniE1A2
Encoding: 57762 57762 86
Width: 1000
Flags: H
LayerCount: 2
Fore
SplineSet
507.553710938 272.69921875 m 0
 291.008789062 272.69921875 238.932617188 89.7783203125 307.31640625 -38.2998046875 c 0
 321.594726562 -65.04296875 341.112304688 -89.171875 366.467773438 -106.71875 c 1
 366.467773438 -106.71875 423.370117188 -24.4970703125 423.278320312 -24.43359375 c 0
 398.760742188 -7.4658203125 379.211914062 33.6943359375 379.211914062 73.646484375 c 0
 379.211914062 90.916015625 379.892578125 172.69921875 507.553710938 172.69921875 c 0
 560.880859375 172.69921875 587.413085938 155.854492188 601.986328125 137.606445312 c 0
 638.633789062 91.7216796875 618.020507812 6.916015625 571.4609375 -23.927734375 c 1
 626.68359375 -107.290039062 l 1
 684.334960938 -69.0986328125 720.799804688 3.6318359375 720.799804688 78.1708984375 c 0
 720.799804688 185.170898438 645.671875 272.69921875 507.553710938 272.69921875 c 0
507.553710938 707.26953125 m 0
 291.008789062 707.26953125 238.932617188 524.348632812 307.31640625 396.270507812 c 0
 321.594726562 369.52734375 341.112304688 345.3984375 366.467773438 327.8515625 c 1
 366.467773438 327.8515625 423.370117188 410.073242188 423.278320312 410.13671875 c 0
 398.760742188 427.104492188 379.211914062 468.264648438 379.211914062 508.216796875 c 0
 379.211914062 525.486328125 379.892578125 607.26953125 507.553710938 607.26953125 c 0
 560.880859375 607.26953125 587.413085938 590.424804688 601.986328125 572.176757812 c 0
 638.633789062 526.291992188 618.020507812 441.486328125 571.4609375 410.642578125 c 1
 626.68359375 327.280273438 l 1
 684.334960938 365.471679688 720.799804688 438.202148438 720.799804688 512.741210938 c 0
 720.799804688 619.741210938 645.671875 707.26953125 507.553710938 707.26953125 c 0
EndSplineSet
Validated: 41
EndChar

StartChar: uniE1A3
Encoding: 57763 57763 87
Width: 1000
Flags: H
LayerCount: 2
Fore
SplineSet
934.912109375 92.67578125 m 1
 934.912109375 192.67578125 l 1
 165.087890625 192.67578125 l 1
 165.087890625 507.32421875 l 1
 65.087890625 507.32421875 l 1
 65.087890625 92.67578125 l 1
 934.912109375 92.67578125 l 1
EndSplineSet
Validated: 9
EndChar

StartChar: uniE1A4
Encoding: 57764 57764 88
Width: 1000
Flags: H
LayerCount: 2
Fore
SplineSet
532.276367188 480.338867188 m 0
 532.276367188 385.227539062 367.725585938 306.536132812 367.725585938 154.696289062 c 0
 367.725585938 71.3583984375 416.569335938 -15.578125 528.783203125 -119.248046875 c 1
 596.629882812 -45.810546875 l 1
 492.375 50.505859375 467.725585938 114.012695312 467.725585938 154.696289062 c 0
 467.725585938 260.477539062 632.276367188 335.551757812 632.276367188 480.338867188 c 0
 632.276367188 556.123046875 587.450195312 632.157226562 490.172851562 719.283203125 c 0
 490.172851562 719.283203125 423.467773438 644.806640625 423.499023438 644.779296875 c 0
 512.540039062 565.030273438 532.276367188 512.942382812 532.276367188 480.338867188 c 0
EndSplineSet
Validated: 41
EndChar

StartChar: uniE1A6
Encoding: 57766 57766 89
Width: 1000
Flags: H
LayerCount: 2
Fore
SplineSet
82.71484375 46.484375 m 1
 82.71484375 -53.515625 l 1
 917.28515625 -53.515625 l 1
 917.28515625 46.484375 l 1
 82.71484375 46.484375 l 1
550.000976562 653.510742188 m 1
 450.000976562 653.510742188 l 1
 450.000976562 180.659179688 l 1
 550.000976562 180.659179688 l 1
 550.000976562 653.510742188 l 1
256.934570312 467.084960938 m 1
 256.934570312 367.084960938 l 1
 743.067382812 367.084960938 l 1
 743.067382812 467.084960938 l 1
 256.934570312 467.084960938 l 1
EndSplineSet
Validated: 5
EndChar

StartChar: uniE1A7
Encoding: 57767 57767 90
Width: 1000
Flags: H
LayerCount: 2
Fore
SplineSet
685.8515625 629.569335938 m 1
 623.31640625 723.9453125 471.7890625 757.52734375 378.598632812 683.078125 c 0
 332.720703125 646.427734375 305.865234375 586.576171875 305.865234375 510.485351562 c 0
 305.865234375 307.311523438 467.163085938 248.1328125 594.140625 299.59375 c 1
 594.140625 -124.0234375 l 1
 694.140625 -124.0234375 l 1
 694.140625 397.802734375 l 1
 602.990234375 426.197265625 l 2
 586.015625 401.65625 544.857421875 382.12109375 504.9296875 382.12109375 c 0
 487.84765625 382.12109375 405.865234375 382.681640625 405.865234375 510.485351562 c 0
 405.865234375 563.810546875 422.706054688 590.341796875 440.943359375 604.912109375 c 0
 486.815429688 641.55859375 571.618164062 620.936523438 602.495117188 574.336914062 c 1
 685.8515625 629.569335938 l 1
EndSplineSet
Validated: 41
EndChar

StartChar: uniE1A8
Encoding: 57768 57768 91
Width: 1000
Flags: H
LayerCount: 2
Fore
SplineSet
45.01953125 662.451171875 m 1
 45.01953125 562.451171875 l 1
 954.98046875 562.451171875 l 1
 954.98046875 662.451171875 l 1
 45.01953125 662.451171875 l 1
344.84765625 92.955078125 m 0
 306.703125 166.502929688 423.508789062 310.919921875 506.452148438 310.919921875 c 0
 591.27734375 309.006835938 693.631835938 166.64453125 653.745117188 93.9765625 c 0
 624.24609375 40.279296875 475.279296875 18.0966796875 387.131835938 58.3564453125 c 0
 364.025390625 68.91015625 350.717773438 81.646484375 344.84765625 92.955078125 c 0
237.565429688 125.362304688 m 0
 237.565429688 -64.8056640625 506.852539062 -96.4306640625 649.877929688 -32.513671875 c 0
 704.48828125 -8.1083984375 762.502929688 39.4267578125 762.502929688 131.260742188 c 0
 762.502929688 165.416015625 754.150390625 198.520507812 740.795898438 229.466796875 c 0
 702.33984375 318.583984375 611.26953125 408.534179688 510.331054688 410.875 c 0
 397.912109375 411.034179688 301.635742188 312.3203125 261.984375 227.233398438 c 0
 247.131835938 195.362304688 237.565429688 161.041015625 237.565429688 125.362304688 c 0
EndSplineSet
Validated: 41
EndChar

StartChar: uniE1A9
Encoding: 57769 57769 92
Width: 500
Flags: HW
LayerCount: 2
Fore
SplineSet
42.3203125 284.740234375 m 1
 42.3203125 284.740234375 126.395507812 230.784179688 126.459960938 230.88671875 c 2
 253.862304688 431.244140625 l 1
 387.44140625 229.965820312 l 1
 470.447265625 285.563476562 l 1
 294.504882812 550.676757812 l 1
 210.899414062 549.854492188 l 1
 42.3203125 284.740234375 l 1
295.53125 773.328125 m 1
 195.76171875 773.328125 l 1
 195.76171875 500.817382812 l 1
 295.53125 500.817382812 l 1
 295.53125 773.328125 l 1
EndSplineSet
Validated: 37
EndChar

StartChar: uniE1AA
Encoding: 57770 57770 93
Width: 1000
Flags: H
LayerCount: 2
Fore
SplineSet
326.169921875 -120.643554688 m 1
 326.169921875 -120.643554688 409.915039062 -174.8125 409.98046875 -174.708984375 c 2
 498.334960938 -34.662109375 l 1
 591.158203125 -175.633789062 l 1
 673.838867188 -119.817382812 l 1
 538.818359375 85.2412109375 l 1
 455.540039062 84.4150390625 l 1
 326.169921875 -120.643554688 l 1
541.515625 251.059570312 m 1
 442.13671875 251.059570312 l 1
 442.13671875 40.2802734375 l 1
 541.515625 40.2802734375 l 1
 541.515625 251.059570312 l 1
484.237304688 630.630859375 m 0
 484.237304688 584.483398438 415.791015625 537.01953125 415.791015625 448.0234375 c 0
 415.791015625 397.6015625 438.180664062 344.657226562 487.116210938 283.708984375 c 1
 565.080078125 346.30859375 l 1
 523.963867188 397.516601562 515.791015625 428.913085938 515.791015625 448.0234375 c 0
 515.791015625 500.993164062 584.237304688 544.649414062 584.237304688 630.630859375 c 0
 584.237304688 709.6796875 520.604492188 772.956054688 520.604492188 775.61328125 c 1
 443.555664062 711.841796875 l 1
 478.205078125 670.000976562 484.237304688 645.194335938 484.237304688 630.630859375 c 0
EndSplineSet
Validated: 37
EndChar

StartChar: uniE1AE
Encoding: 57774 57774 94
Width: 1000
Flags: H
LayerCount: 2
Fore
SplineSet
313.232421875 706.982421875 m 1
 313.232421875 606.982421875 l 1
 586.767578125 606.982421875 l 1
 586.767578125 -6.982421875 l 1
 313.232421875 -6.982421875 l 1
 313.232421875 -106.982421875 l 1
 686.767578125 -106.982421875 l 1
 686.767578125 706.982421875 l 1
 313.232421875 706.982421875 l 1
EndSplineSet
Validated: 9
EndChar

StartChar: uniE1AF
Encoding: 57775 57775 95
Width: 1000
Flags: H
LayerCount: 2
Fore
SplineSet
741.798828125 214.282226562 m 1
 739.772460938 -34.619140625 603.31640625 -122.434570312 517.283203125 -1.927734375 c 0
 486.951171875 40.5576171875 462.407226562 112.216796875 461.766601562 214.1953125 c 0
 461.740234375 218.241210938 459.549804688 566.549804688 461.729492188 618.831054688 c 2
 467.037109375 755.56640625 l 1
 158.172851562 416.978515625 l 1
 158.172851562 416.978515625 232.038085938 349.59765625 232.061523438 349.623046875 c 2
 360.76953125 474.51171875 l 1
 360.76953125 414.084960938 361.01953125 329.982421875 361.768554688 213.5390625 c 0
 362.504882812 96.302734375 389.958984375 4.328125 435.841796875 -59.939453125 c 0
 567.5859375 -244.47265625 838.704101562 -166.352539062 841.794921875 213.467773438 c 1
 741.798828125 214.282226562 l 1
EndSplineSet
Validated: 41
EndChar

StartChar: uniE1B0
Encoding: 57776 57776 96
Width: 1000
Flags: H
LayerCount: 2
Fore
SplineSet
212.841796875 451.318359375 m 1
 212.841796875 381.393554688 133.0703125 262.944335938 100.00390625 221.780273438 c 1
 168.19140625 149.944335938 l 1
 395.119140625 312.989257812 585.034179688 317.9453125 845.505859375 148.624023438 c 1
 845.505859375 148.624023438 900.004882812 232.462890625 899.904296875 232.528320312 c 0
 684.51953125 372.5390625 491.010742188 415.896484375 282.592773438 329.65625 c 1
 303.18359375 376.446289062 312.841796875 416.3046875 312.841796875 451.318359375 c 1
 212.841796875 451.318359375 l 1
EndSplineSet
Validated: 41
EndChar

StartChar: uniE1B1
Encoding: 57777 57777 97
Width: 1000
Flags: H
LayerCount: 2
Fore
SplineSet
466.896484375 565.27734375 m 1
 679.727539062 694.9296875 l 1
 627.703125 780.330078125 l 1
 274.705078125 565.2890625 l 1
 627.697265625 350.190429688 l 2
 627.697265625 350.190429688 679.732421875 435.583984375 679.626953125 435.649414062 c 0
 466.896484375 565.27734375 466.896484375 565.27734375 466.896484375 565.27734375 c 1
491.30859375 344.140625 m 0
 534.330078125 344.646484375 577.501953125 337.823242188 615.33203125 318.5546875 c 0
 653.162109375 299.286132812 688.489257812 259.66015625 688.671875 209.5703125 c 0
 688.875976562 154.287109375 655.856445312 114.5625 618.26171875 74.609375 c 0
 605.126953125 60.650390625 587.254882812 48.5 572.16796875 34.9609375 c 1
 653.7578125 -24.841796875 736.71875 -76.66015625 736.71875 -76.66015625 c 1
 684.9609375 -162.3046875 l 1
 684.9609375 -162.3046875 592.524414062 -106.48046875 499.0234375 -36.03515625 c 0
 497.36328125 -34.7841796875 495.997070312 -33.291015625 494.3359375 -32.03125 c 0
 491.493164062 -34.16796875 489.169921875 -36.7578125 486.328125 -38.8671875 c 0
 392.385742188 -108.59375 299.31640625 -162.6953125 299.31640625 -162.6953125 c 1
 248.92578125 -76.26953125 l 1
 248.92578125 -76.26953125 333.51171875 -25.5322265625 416.796875 34.86328125 c 1
 400.576171875 49.2919921875 381.611328125 62.5966796875 367.578125 77.34375 c 0
 330.109375 116.716796875 297.026367188 154.069335938 296.38671875 208.88671875 c 0
 295.807617188 258.57421875 331.123046875 297.049804688 368.26171875 316.40625 c 0
 405.400390625 335.762695312 448.287109375 343.634765625 491.30859375 344.140625 c 0
492.48046875 244.140625 m 0
 462.325195312 243.786132812 432.028320312 236.84375 414.55078125 227.734375 c 0
 397.073242188 218.625 396.327148438 215.150390625 396.38671875 210.05859375 c 1
 396.38671875 210.096679688 409.04296875 178.860351562 440.0390625 146.2890625 c 0
 454.19140625 131.41796875 476.100585938 115.362304688 494.43359375 99.51171875 c 0
 511.446289062 114.309570312 532.219726562 129.145507812 545.41015625 143.1640625 c 0
 576.120117188 175.80078125 588.682617188 206.33984375 588.671875 209.27734375 c 0
 588.642578125 217.407226562 587.1328125 220.627929688 569.921875 229.39453125 c 0
 552.709960938 238.161132812 522.635742188 244.495117188 492.48046875 244.140625 c 0
EndSplineSet
Validated: 41
EndChar

StartChar: uniE1B3
Encoding: 57779 57779 98
Width: 1000
Flags: H
LayerCount: 2
Fore
SplineSet
607.32421875 -134.912109375 m 1
 707.32421875 -134.912109375 l 1
 707.32421875 734.912109375 l 1
 292.67578125 734.912109375 l 1
 292.67578125 634.912109375 l 1
 607.32421875 634.912109375 l 1
 607.32421875 -134.912109375 l 1
EndSplineSet
Validated: 9
EndChar

StartChar: uniE1B4
Encoding: 57780 57780 99
Width: 1000
Flags: H
LayerCount: 2
Fore
SplineSet
680.338867188 546.971679688 m 0
 585.227539062 546.971679688 506.536132812 711.522460938 354.696289062 711.522460938 c 0
 271.358398438 711.522460938 184.421875 662.678710938 80.751953125 550.46484375 c 1
 154.189453125 482.618164062 l 1
 250.505859375 586.873046875 314.012695312 611.522460938 354.696289062 611.522460938 c 0
 460.477539062 611.522460938 535.551757812 446.971679688 680.338867188 446.971679688 c 0
 756.123046875 446.971679688 832.157226562 491.797851562 919.283203125 589.075195312 c 1
 919.283203125 589.075195312 844.806640625 655.780273438 844.779296875 655.749023438 c 0
 765.030273438 566.708007812 712.942382812 546.971679688 680.338867188 546.971679688 c 0
97.265625 -11.5234375 m 1
 97.265625 -111.5234375 l 1
 596.844726562 -111.5234375 l 1
 709.373046875 120.354492188 l 1
 709.373046875 120.354492188 811.393554688 -108.319335938 811.431640625 -108.405273438 c 1
 902.766601562 -67.6572265625 l 1
 713.185546875 357.282226562 l 1
 534.209960938 -11.5234375 l 1
 97.265625 -11.5234375 l 1
EndSplineSet
Validated: 41
EndChar

StartChar: uniE1B5
Encoding: 57781 57781 100
Width: 1000
Flags: H
LayerCount: 2
Fore
SplineSet
93.017578125 113.232421875 m 1
 193.017578125 113.232421875 l 1
 193.017578125 386.767578125 l 1
 806.982421875 386.767578125 l 1
 806.982421875 113.232421875 l 1
 906.982421875 113.232421875 l 1
 906.982421875 486.767578125 l 1
 93.017578125 486.767578125 l 1
 93.017578125 113.232421875 l 1
EndSplineSet
Validated: 9
EndChar

StartChar: uniE1B6
Encoding: 57782 57782 101
Width: 1000
Flags: H
LayerCount: 2
Fore
SplineSet
276.083984375 733.051757812 m 1
 193.676757812 676.416992188 l 1
 452.372070312 300 l 1
 193.676757812 -76.4169921875 l 1
 221.127929688 -95.2216796875 248.723632812 -114.37109375 276.083984375 -132.958007812 c 0
 375.2890625 11.3623046875 474.500976562 155.67578125 573.702148438 300 c 1
 276.083984375 733.051757812 l 1
806.295898438 301.073242188 m 0
 806.295898438 518.0234375 623.149414062 569.657226562 495.33203125 501.387695312 c 0
 468.588867188 487.104492188 444.4609375 467.578125 426.916015625 442.212890625 c 1
 426.916015625 442.212890625 509.15234375 385.33203125 509.216796875 385.423828125 c 0
 526.190429688 409.963867188 567.348632812 429.5 607.2734375 429.5 c 0
 625.448242188 429.5 706.295898438 428.221679688 706.295898438 301.073242188 c 0
 706.295898438 247.77734375 689.4609375 221.264648438 671.228515625 206.702148438 c 0
 625.360351562 170.06640625 540.565429688 190.6875 509.720703125 237.270507812 c 1
 426.346679688 182.065429688 l 1
 464.537109375 124.387695312 537.279296875 87.900390625 611.830078125 87.900390625 c 0
 718.815429688 87.900390625 806.295898438 163.024414062 806.295898438 301.073242188 c 0
EndSplineSet
Validated: 37
EndChar

StartChar: uniE1B7
Encoding: 57783 57783 102
Width: 1000
Flags: H
LayerCount: 2
Fore
SplineSet
81.1533203125 703.7265625 m 1
 83.388671875 354.333007812 324.233398438 254.415039062 462.522460938 397.90234375 c 1
 464.599609375 -93.96484375 l 1
 560.126953125 -114.435546875 l 1
 918.8671875 673.064453125 l 1
 918.8671875 673.064453125 827.853515625 714.524414062 827.8125 714.435546875 c 0
 563.635742188 134.520507812 563.635742188 134.520507812 563.635742188 134.520507812 c 1
 561.23046875 704.267578125 l 1
 461.232421875 704.267578125 l 1
 459.775390625 527.678710938 390.752929688 434.609375 322.87890625 434.609375 c 0
 254.659179688 434.609375 182.27734375 528.305664062 181.151367188 704.37890625 c 1
 81.1533203125 703.7265625 l 1
EndSplineSet
Validated: 41
EndChar

StartChar: uniE1BA
Encoding: 57786 57786 103
Width: 1000
Flags: HW
LayerCount: 2
Fore
SplineSet
75.8974609375 73.853515625 m 0
 429.956054688 -239.036132812 723.127929688 -102.3984375 924.172851562 73.7431640625 c 1
 858.286132812 148.9453125 l 1
 618.796875 -60.87890625 392.766601562 -72.7412109375 142.071289062 148.802734375 c 1
 142.071289062 148.802734375 75.86328125 73.8837890625 75.8974609375 73.853515625 c 0
620.291015625 696.750976562 m 0
 586.416992188 707.958984375 549.326171875 712.96875 511.864257812 712.96875 c 0
 476.37890625 712.96875 376.442382812 707.462890625 312.227539062 649.21875 c 0
 285.819335938 625.265625 266.143554688 591.17578125 264.963867188 550.666015625 c 0
 264.2421875 526.1875 264.240234375 453.408203125 319.3359375 388.864257812 c 0
 358.369140625 343.139648438 407.391601562 319.319335938 438.471679688 303.541015625 c 0
 453.221679688 296.052734375 464.3046875 289.534179688 464.963867188 289.0078125 c 0
 465.215820312 288.806640625 470.598632812 282.7109375 470.598632812 265.71484375 c 0
 470.598632812 247.564453125 463.428710938 223.82421875 455.70703125 211.307617188 c 1
 455.70703125 211.307617188 540.810546875 158.801757812 540.875 158.907226562 c 0
 577.739257812 218.657226562 588.244140625 318.6015625 527.223632812 367.2421875 c 0
 491.08984375 396.092773438 414.1953125 414.224609375 380.767578125 474.7890625 c 0
 372.264648438 490.1953125 363.889648438 512.711914062 364.918945312 547.673828125 c 0
 365.203125 557.420898438 368.604492188 565.372070312 379.37109375 575.137695312 c 0
 383.543945312 578.922851562 423.540039062 612.96875 511.864257812 612.96875 c 0
 520.680664062 612.96875 593.780273438 612.049804688 625.756835938 581.995117188 c 0
 631.760742188 576.352539062 640.811523438 567.846679688 630.810546875 542.87890625 c 1
 630.810546875 542.87890625 723.65625 505.689453125 723.681640625 505.75390625 c 0
 755.490234375 585.16796875 721.463867188 663.274414062 620.291015625 696.750976562 c 0
EndSplineSet
Validated: 41
EndChar

StartChar: uniE1BB
Encoding: 57787 57787 104
Width: 1000
Flags: HW
LayerCount: 2
Fore
SplineSet
45.01953125 350 m 1
 45.01953125 250 l 1
 954.98046875 250 l 1
 954.98046875 350 l 1
 45.01953125 350 l 1
EndSplineSet
Validated: 9
EndChar

StartChar: uniE1BC
Encoding: 57788 57788 105
Width: 1000
Flags: HW
LayerCount: 2
Fore
SplineSet
75.634765625 -23.73046875 m 1
 75.634765625 -123.73046875 l 1
 924.315429688 -123.73046875 l 1
 660.220703125 159.263671875 l 1
 587.125 91.048828125 l 1
 694.239257812 -23.73046875 l 1
 75.634765625 -23.73046875 l 1
550.000976562 723.684570312 m 1
 450.000976562 723.684570312 l 1
 450.000976562 250.833007812 l 1
 550.000976562 250.833007812 l 1
 550.000976562 723.684570312 l 1
256.934570312 537.258789062 m 1
 256.934570312 437.258789062 l 1
 743.067382812 437.258789062 l 1
 743.067382812 537.258789062 l 1
 256.934570312 537.258789062 l 1
EndSplineSet
Validated: 5
EndChar

StartChar: uniE1BD
Encoding: 57789 57789 106
Width: 1000
Flags: HW
LayerCount: 2
Fore
SplineSet
760.009765625 -134.912109375 m 1
 860.009765625 -134.912109375 l 1
 860.009765625 734.912109375 l 1
 445.41015625 734.912109375 l 1
 445.41015625 634.912109375 l 1
 760.009765625 634.912109375 l 1
 760.009765625 -134.912109375 l 1
139.970703125 406.993164062 m 1
 196.458984375 324.485351562 l 1
 423.440429688 479.888671875 l 1
 650.467773438 324.483398438 l 1
 669.287109375 352.017578125 688.173828125 379.482421875 706.950195312 407.059570312 c 0
 612.4453125 471.73046875 517.931640625 536.390625 423.434570312 601.068359375 c 1
 139.970703125 406.993164062 l 1
196.458984375 275.514648438 m 1
 196.458984375 275.514648438 139.970703125 193.006835938 140.064453125 192.942382812 c 0
 423.434570312 -1.068359375 423.434570312 -1.068359375 423.434570312 -1.068359375 c 1
 706.950195312 193.004882812 l 1
 650.467773438 275.516601562 l 1
 423.440429688 120.111328125 l 1
 196.458984375 275.514648438 l 1
EndSplineSet
Validated: 41
EndChar

StartChar: uniE1BE
Encoding: 57790 57790 107
Width: 1000
Flags: HW
LayerCount: 2
Fore
SplineSet
392.392578125 733.051757812 m 1
 309.985351562 676.416992188 l 1
 568.680664062 300 l 1
 309.985351562 -76.4169921875 l 1
 337.436523438 -95.2216796875 365.032226562 -114.37109375 392.392578125 -132.958007812 c 0
 491.59765625 11.3623046875 590.809570312 155.67578125 690.010742188 300 c 1
 392.392578125 733.051757812 l 1
EndSplineSet
Validated: 9
EndChar

StartChar: uniE1C0
Encoding: 57792 57792 108
Width: 1000
Flags: HW
LayerCount: 2
Fore
SplineSet
100.00390625 93.0146484375 m 1
 133.024414062 51.9091796875 212.841796875 -66.572265625 212.841796875 -136.5234375 c 1
 312.841796875 -136.5234375 l 1
 312.841796875 -117.5390625 310.547851562 -78.384765625 282.592773438 -14.861328125 c 1
 491.090820312 -101.134765625 684.590820312 -57.6982421875 900.004882812 82.33203125 c 1
 845.505859375 166.170898438 l 1
 585.133789062 -3.0849609375 395.209960938 1.740234375 168.19140625 164.850585938 c 1
 100.00390625 93.0146484375 l 1
454.1796875 135.844726562 m 1
 554.157226562 137.235351562 l 1
 545.828125 736.545898438 l 1
 445.850585938 735.15625 l 1
 454.1796875 135.844726562 l 1
499.98828125 457.4375 m 1
 282.552734375 725.805664062 l 1
 204.883789062 662.845703125 l 1
 499.982421875 298.623046875 l 1
 795.12109375 662.842773438 l 1
 795.12109375 662.842773438 717.45703125 725.80859375 717.41015625 725.750976562 c 2
 499.98828125 457.4375 l 1
EndSplineSet
Validated: 37
EndChar

StartChar: uniE1C1
Encoding: 57793 57793 109
Width: 1000
Flags: HW
LayerCount: 2
Fore
SplineSet
67.8720703125 698.453125 m 1
 70.107421875 349.116210938 310.927734375 249.192382812 449.22265625 392.640625 c 1
 451.26953125 -99.1865234375 l 1
 551.26953125 -98.7626953125 l 1
 547.94921875 698.991210938 l 1
 447.951171875 698.991210938 l 1
 446.494140625 522.424804688 377.471679688 429.372070312 309.59765625 429.372070312 c 0
 241.375976562 429.372070312 168.99609375 523.056640625 167.870117188 699.10546875 c 1
 67.8720703125 698.453125 l 1
641.69921875 -99.21875 m 1
 741.69921875 -99.21875 l 1
 741.69921875 360.986328125 l 1
 641.69921875 360.986328125 l 1
 641.69921875 -99.21875 l 1
832.12890625 -99.21875 m 1
 932.12890625 -99.21875 l 1
 932.12890625 360.986328125 l 1
 832.12890625 360.986328125 l 1
 832.12890625 -99.21875 l 1
EndSplineSet
Validated: 41
EndChar

StartChar: uniE1C2
Encoding: 57794 57794 110
Width: 1000
Flags: HW
LayerCount: 2
Fore
SplineSet
489.65234375 -60.0595703125 m 0
 429.408203125 -60.0595703125 369.896484375 28.9248046875 369.896484375 194.5859375 c 0
 369.896484375 196.517578125 369.919921875 198.4609375 369.919921875 200.430664062 c 2
 269.923828125 201.245117188 l 2
 269.905273438 199.014648438 269.896484375 196.795898438 269.896484375 194.5859375 c 0
 269.896484375 -54.578125 383.51171875 -160.059570312 489.65234375 -160.059570312 c 0
 599.424804688 -160.059570312 724.879882812 -46.1025390625 724.852539062 218.6796875 c 0
 724.827148438 222.7265625 722.68359375 570.969726562 724.817382812 623.366210938 c 2
 730.004882812 759.97265625 l 1
 421.30078125 421.4140625 l 1
 421.30078125 421.4140625 495.1796875 354.048828125 495.203125 354.07421875 c 2
 623.876953125 479.00390625 l 1
 623.876953125 418.580078125 624.12109375 334.479492188 624.868164062 213.709960938 c 0
 624.868164062 36.265625 552.774414062 -60.0595703125 489.65234375 -60.0595703125 c 0
EndSplineSet
Validated: 41
EndChar

StartChar: uniE1C3
Encoding: 57795 57795 111
Width: 1000
Flags: HW
LayerCount: 2
Fore
SplineSet
507.553710938 489.984375 m 0
 291.008789062 489.984375 238.932617188 307.063476562 307.31640625 178.985351562 c 0
 321.594726562 152.2421875 341.112304688 128.11328125 366.467773438 110.56640625 c 1
 366.467773438 110.56640625 423.370117188 192.788085938 423.278320312 192.8515625 c 0
 398.760742188 209.819335938 379.211914062 250.979492188 379.211914062 290.931640625 c 0
 379.211914062 308.201171875 379.892578125 389.984375 507.553710938 389.984375 c 0
 560.880859375 389.984375 587.413085938 373.139648438 601.986328125 354.891601562 c 0
 638.633789062 309.006835938 618.020507812 224.201171875 571.4609375 193.357421875 c 1
 626.68359375 109.995117188 l 1
 684.334960938 148.186523438 720.799804688 220.916992188 720.799804688 295.456054688 c 0
 720.799804688 402.456054688 645.671875 489.984375 507.553710938 489.984375 c 0
EndSplineSet
Validated: 41
EndChar

StartChar: uniE1C4
Encoding: 57796 57796 112
Width: 1000
Flags: HW
LayerCount: 2
Fore
SplineSet
489.69921875 464.556640625 m 1
 489.69921875 464.556640625 702.4296875 594.184570312 702.53515625 594.25 c 2
 650.5 679.643554688 l 1
 297.5078125 464.544921875 l 1
 650.505859375 249.50390625 l 2
 650.505859375 249.50390625 702.530273438 334.904296875 702.423828125 334.96875 c 0
 489.69921875 464.556640625 489.69921875 464.556640625 489.69921875 464.556640625 c 1
680.338867188 20.3603515625 m 0
 585.227539062 20.3603515625 506.536132812 184.911132812 354.696289062 184.911132812 c 0
 271.358398438 184.911132812 184.421875 136.067382812 80.751953125 23.853515625 c 1
 154.189453125 -43.9931640625 l 1
 250.505859375 60.26171875 314.012695312 84.9111328125 354.696289062 84.9111328125 c 0
 460.477539062 84.9111328125 535.551757812 -79.6396484375 680.338867188 -79.6396484375 c 0
 756.123046875 -79.6396484375 832.157226562 -34.8134765625 919.283203125 62.4638671875 c 1
 919.283203125 62.4638671875 844.806640625 129.168945312 844.779296875 129.137695312 c 0
 765.030273438 40.0966796875 712.942382812 20.3603515625 680.338867188 20.3603515625 c 0
EndSplineSet
Validated: 41
EndChar

StartChar: uniE1C7
Encoding: 57799 57799 113
Width: 1000
Flags: HW
LayerCount: 2
Fore
SplineSet
100.00390625 378.219726562 m 1
 133.024414062 337.114257812 212.841796875 218.6328125 212.841796875 148.681640625 c 1
 312.841796875 148.681640625 l 1
 312.841796875 167.666015625 310.547851562 206.8203125 282.592773438 270.34375 c 1
 491.090820312 184.0703125 684.590820312 227.506835938 900.004882812 367.537109375 c 1
 845.505859375 451.375976562 l 1
 585.133789062 282.120117188 395.209960938 286.9453125 168.19140625 450.055664062 c 1
 100.00390625 378.219726562 l 1
100.00390625 378.219726562 m 1
 133.024414062 337.114257812 212.841796875 218.6328125 212.841796875 148.681640625 c 1
 312.841796875 148.681640625 l 1
 312.841796875 167.666015625 310.547851562 206.8203125 282.592773438 270.34375 c 1
 491.090820312 184.0703125 684.590820312 227.506835938 900.004882812 367.537109375 c 1
 845.505859375 451.375976562 l 1
 585.133789062 282.120117188 395.209960938 286.9453125 168.19140625 450.055664062 c 1
 100.00390625 378.219726562 l 1
EndSplineSet
Validated: 37
EndChar

StartChar: uniE1C8
Encoding: 57800 57800 114
Width: 1000
Flags: HW
LayerCount: 2
Fore
SplineSet
428.946289062 491.8828125 m 0
 428.946289062 557.654296875 473.604492188 576.203125 501.573242188 576.203125 c 0
 513.62890625 576.203125 570.10546875 571.8203125 570.362304688 489.71484375 c 0
 570.362304688 469.79296875 562.008789062 422.009765625 501.83203125 335.505859375 c 1
 474.896484375 373.442382812 429.374023438 443.388671875 428.946289062 491.8828125 c 0
815.345703125 -0.4130859375 m 2
 815.345703125 -0.287109375 678.140625 119.842773438 565.944335938 253.239257812 c 0
 664.116210938 385.727539062 670.361328125 456.756835938 670.361328125 490.248046875 c 0
 669.986328125 609.840820312 588.592773438 676.203125 501.573242188 676.203125 c 0
 409.760742188 676.203125 328.946289062 604.118164062 328.946289062 491.8828125 c 0
 328.946289062 453.452148438 340.274414062 383.385742188 438.143554688 253.052734375 c 0
 430.430664062 243.8828125 422.569335938 234.765625 414.618164062 225.748046875 c 0
 306.15625 102.723632812 184.7109375 0.27734375 184.7109375 0.1845703125 c 2
 249.17578125 -76.201171875 l 1
 259.484375 -67.4951171875 389.079101562 43.0078125 502.119140625 173.95703125 c 1
 504.793945312 170.850585938 507.4765625 167.75390625 510.166015625 164.668945312 c 0
 623.436523438 34.71484375 748.51171875 -74.7841796875 749.4375 -75.595703125 c 1
 815.345703125 -0.4130859375 l 2
EndSplineSet
Validated: 9
EndChar

StartChar: uniE1C9
Encoding: 57801 57801 115
Width: 1000
Flags: HW
LayerCount: 2
Fore
SplineSet
710.485351562 105.865234375 m 0
 910.893554688 105.865234375 965.245117188 286.682617188 893.900390625 414.881835938 c 0
 878.475585938 442.59765625 857.065429688 467.631835938 829.569335938 485.8515625 c 1
 829.569335938 485.8515625 774.336914062 402.495117188 774.434570312 402.4296875 c 0
 804.819335938 382.296875 823.720703125 339.2734375 823.720703125 300.352539062 c 0
 823.720703125 264.533203125 808.725585938 205.865234375 710.485351562 205.865234375 c 0
 661.819335938 205.865234375 582.12109375 218.985351562 582.12109375 304.9296875 c 0
 582.12109375 344.848632812 601.650390625 386.01171875 626.197265625 402.990234375 c 2
 597.802734375 494.140625 l 1
 75.9765625 494.140625 l 1
 75.9765625 394.140625 l 1
 499.59375 394.140625 l 1
 448.129882812 267.15625 507.318359375 105.865234375 710.485351562 105.865234375 c 0
EndSplineSet
Validated: 41
EndChar

StartChar: uniE1CA
Encoding: 57802 57802 116
Width: 1000
Flags: HW
LayerCount: 2
Fore
SplineSet
100.008789062 124.747070312 m 1
 132.977539062 83.7177734375 212.841796875 -34.767578125 212.841796875 -104.78515625 c 1
 312.841796875 -104.78515625 l 1
 312.841796875 -85.796875 310.547851562 -46.6357421875 282.604492188 16.8720703125 c 1
 491.095703125 -69.3935546875 684.591796875 -25.958984375 900.004882812 114.0703125 c 1
 845.505859375 197.909179688 l 1
 585.133789062 28.6533203125 395.209960938 33.478515625 168.19140625 196.588867188 c 1
 100.008789062 124.747070312 l 1
284.907226562 351.794921875 m 1
 284.907226562 351.794921875 370.30078125 299.759765625 370.366210938 299.865234375 c 0
 500 512.60546875 500 512.60546875 500 512.60546875 c 1
 500 512.60546875 629.633789062 299.865234375 629.69921875 299.759765625 c 2
 715.092773438 351.794921875 l 1
 500 704.77734375 l 1
 284.907226562 351.794921875 l 1
EndSplineSet
Validated: 41
EndChar

StartChar: uniE1CB
Encoding: 57803 57803 117
Width: 1000
Flags: HW
LayerCount: 2
Fore
SplineSet
45.01953125 98.14453125 m 1
 45.01953125 -1.85546875 l 1
 954.98046875 -1.85546875 l 1
 954.98046875 98.14453125 l 1
 45.01953125 98.14453125 l 1
507.553710938 668.255859375 m 0
 291.008789062 668.255859375 238.932617188 485.334960938 307.31640625 357.256835938 c 0
 321.594726562 330.513671875 341.112304688 306.384765625 366.467773438 288.837890625 c 1
 366.467773438 288.837890625 423.370117188 371.059570312 423.278320312 371.123046875 c 0
 398.760742188 388.090820312 379.211914062 429.250976562 379.211914062 469.203125 c 0
 379.211914062 486.47265625 379.892578125 568.255859375 507.553710938 568.255859375 c 0
 560.880859375 568.255859375 587.413085938 551.411132812 601.986328125 533.163085938 c 0
 638.633789062 487.278320312 618.020507812 402.47265625 571.4609375 371.62890625 c 1
 626.68359375 288.266601562 l 1
 684.334960938 326.458007812 720.799804688 399.188476562 720.799804688 473.727539062 c 0
 720.799804688 580.727539062 645.671875 668.255859375 507.553710938 668.255859375 c 0
EndSplineSet
Validated: 41
EndChar

StartChar: uniE1CD
Encoding: 57805 57805 118
Width: 1000
Flags: HW
LayerCount: 2
Fore
SplineSet
75.8974609375 106.2265625 m 0
 429.956054688 -206.663085938 723.127929688 -70.025390625 924.172851562 106.116210938 c 1
 858.286132812 181.318359375 l 1
 618.796875 -28.505859375 392.766601562 -40.3681640625 142.071289062 181.17578125 c 1
 142.071289062 181.17578125 75.86328125 106.256835938 75.8974609375 106.2265625 c 0
500 467.814453125 m 1
 500 467.814453125 370.366210938 680.5546875 370.30078125 680.66015625 c 1
 284.907226562 628.625 l 1
 500 275.642578125 l 1
 715.092773438 628.625 l 1
 715.092773438 628.625 629.69921875 680.66015625 629.633789062 680.5546875 c 0
 500 467.814453125 500 467.814453125 500 467.814453125 c 1
EndSplineSet
Validated: 41
EndChar

StartChar: uniE1CE
Encoding: 57806 57806 119
Width: 1000
Flags: HW
LayerCount: 2
Fore
SplineSet
453.880859375 188.322265625 m 1
 553.858398438 189.711914062 l 1
 546.125976562 746.11328125 l 1
 446.1484375 744.723632812 l 1
 453.880859375 188.322265625 l 1
499.989257812 492.625 m 1
 300.904296875 738.348632812 l 1
 223.236328125 675.387695312 l 1
 499.983398438 333.809570312 l 1
 776.767578125 675.384765625 l 1
 776.767578125 675.384765625 699.104492188 738.350585938 699.057617188 738.29296875 c 2
 499.989257812 492.625 l 1
680.33984375 -26.025390625 m 0
 585.224609375 -26.025390625 506.53125 138.544921875 354.6796875 138.544921875 c 0
 271.34765625 138.544921875 184.415039062 89.7099609375 80.7529296875 -22.482421875 c 1
 154.1875 -90.3330078125 l 1
 250.494140625 13.8994140625 313.99609375 38.544921875 354.6796875 38.544921875 c 0
 460.470703125 38.544921875 535.544921875 -126.025390625 680.33984375 -126.025390625 c 0
 756.124023438 -126.025390625 832.158203125 -81.19921875 919.283203125 16.0771484375 c 1
 844.806640625 82.7822265625 l 1
 765.030273438 -6.2890625 712.943359375 -26.025390625 680.33984375 -26.025390625 c 0
EndSplineSet
Validated: 37
EndChar

StartChar: uniE1CF
Encoding: 57807 57807 120
Width: 500
Flags: HW
LayerCount: 2
Fore
SplineSet
100.78125 775.732421875 m 1
 100.78125 675.732421875 l 1
 418.9453125 675.732421875 l 1
 418.9453125 775.732421875 l 1
 100.78125 775.732421875 l 1
309.86328125 685.107421875 m 1
 209.86328125 685.107421875 l 1
 209.86328125 335.05859375 l 1
 309.86328125 335.05859375 l 1
 309.86328125 685.107421875 l 1
100.78125 370.947265625 m 1
 100.78125 270.947265625 l 1
 418.9453125 270.947265625 l 1
 418.9453125 370.947265625 l 1
 100.78125 370.947265625 l 1
EndSplineSet
Validated: 5
EndChar

StartChar: uniE1D0
Encoding: 57808 57808 121
Width: 1000
Flags: HW
LayerCount: 2
Fore
SplineSet
310.055664062 311.212890625 m 1
 310.055664062 311.212890625 393.9375 257.1328125 394.002929688 257.235351562 c 2
 497.995117188 421.530273438 l 1
 607.139648438 256.3125 l 1
 689.955078125 312.038085938 l 1
 538.543945312 541.237304688 l 1
 455.129882812 540.412109375 l 1
 310.055664062 311.212890625 l 1
540.572265625 729.90234375 m 1
 441.032226562 729.90234375 l 1
 441.032226562 494.30859375 l 1
 540.572265625 494.30859375 l 1
 540.572265625 729.90234375 l 1
145.206054688 -64.7021484375 m 1
 183.749023438 -157.211914062 l 1
 854.793945312 126.26171875 l 1
 816.250976562 218.772460938 l 1
 145.206054688 -64.7021484375 l 1
183.749023438 218.772460938 m 1
 145.131835938 126.293945312 l 1
 145.206054688 126.26171875 816.250976562 -157.211914062 816.250976562 -157.211914062 c 2
 854.868164062 -64.7333984375 l 1
 183.749023438 218.772460938 l 1
EndSplineSet
Validated: 37
EndChar

StartChar: uniE1D1
Encoding: 57809 57809 122
Width: 1000
Flags: HW
LayerCount: 2
Fore
SplineSet
269.873046875 736.474609375 m 1
 269.873046875 636.474609375 l 1
 730.126953125 636.474609375 l 1
 730.126953125 736.474609375 l 1
 269.873046875 736.474609375 l 1
269.873046875 -36.474609375 m 1
 269.873046875 -136.474609375 l 1
 730.126953125 -136.474609375 l 1
 730.126953125 -36.474609375 l 1
 269.873046875 -36.474609375 l 1
507.553710938 489.984375 m 0
 291.008789062 489.984375 238.932617188 307.063476562 307.31640625 178.985351562 c 0
 321.594726562 152.2421875 341.112304688 128.11328125 366.467773438 110.56640625 c 1
 366.467773438 110.56640625 423.370117188 192.788085938 423.278320312 192.8515625 c 0
 398.760742188 209.819335938 379.211914062 250.979492188 379.211914062 290.931640625 c 0
 379.211914062 308.201171875 379.892578125 389.984375 507.553710938 389.984375 c 0
 560.880859375 389.984375 587.413085938 373.139648438 601.986328125 354.891601562 c 0
 638.633789062 309.006835938 618.020507812 224.201171875 571.4609375 193.357421875 c 1
 626.68359375 109.995117188 l 1
 684.334960938 148.186523438 720.799804688 220.916992188 720.799804688 295.456054688 c 0
 720.799804688 402.456054688 645.671875 489.984375 507.553710938 489.984375 c 0
EndSplineSet
Validated: 41
EndChar

StartChar: uniE1D4
Encoding: 57812 57812 123
Width: 1000
Flags: HW
LayerCount: 2
Fore
SplineSet
66.9482421875 436.142578125 m 1
 123.583007812 353.735351562 l 1
 500 612.430664062 l 1
 876.416992188 353.735351562 l 1
 895.286132812 381.234375 914.224609375 408.6640625 933.051757812 436.206054688 c 0
 788.702148438 535.391601562 644.345703125 634.5703125 500 733.760742188 c 1
 66.9482421875 436.142578125 l 1
806.982421875 -33.740234375 m 1
 193.017578125 -33.740234375 l 1
 193.017578125 239.794921875 l 1
 93.017578125 239.794921875 l 1
 93.017578125 -133.740234375 l 1
 906.982421875 -133.740234375 l 1
 906.982421875 239.794921875 l 1
 806.982421875 239.794921875 l 1
 806.982421875 -33.740234375 l 1
EndSplineSet
Validated: 9
EndChar

StartChar: uniE1D5
Encoding: 57813 57813 124
Width: 1000
Flags: HW
LayerCount: 2
Fore
SplineSet
507.555664062 681.48828125 m 0
 290.8203125 681.48828125 239.01171875 498.440429688 307.314453125 370.49609375 c 0
 321.592773438 343.750976562 341.110351562 319.619140625 366.467773438 302.0703125 c 1
 366.467773438 302.0703125 423.370117188 384.291992188 423.278320312 384.35546875 c 0
 398.763671875 401.321289062 379.211914062 442.489257812 379.211914062 482.451171875 c 0
 379.211914062 500.401367188 380.338867188 581.48828125 507.555664062 581.48828125 c 0
 560.884765625 581.48828125 587.41796875 564.645507812 601.989257812 546.403320312 c 0
 638.634765625 500.526367188 618.018554688 415.725585938 571.447265625 384.852539062 c 1
 626.697265625 301.508789062 l 1
 684.34375 339.72265625 720.799804688 412.456054688 720.799804688 486.98046875 c 0
 720.799804688 593.9765625 645.671875 681.48828125 507.555664062 681.48828125 c 0
924.365234375 -37.353515625 m 1
 924.365234375 62.646484375 l 1
 305.760742188 62.646484375 l 1
 412.875 177.42578125 l 1
 412.875 177.42578125 339.779296875 245.640625 339.76171875 245.62109375 c 0
 75.6845703125 -37.353515625 75.6845703125 -37.353515625 75.6845703125 -37.353515625 c 1
 924.365234375 -37.353515625 l 1
EndSplineSet
Validated: 41
EndChar

StartChar: uniE1D6
Encoding: 57814 57814 125
Width: 1000
Flags: HW
LayerCount: 2
Fore
SplineSet
361.81640625 -154.98046875 m 1
 461.81640625 -154.98046875 l 1
 461.81640625 754.98046875 l 1
 361.81640625 754.98046875 l 1
 361.81640625 -154.98046875 l 1
538.18359375 -154.98046875 m 1
 638.18359375 -154.98046875 l 1
 638.18359375 754.98046875 l 1
 538.18359375 754.98046875 l 1
 538.18359375 -154.98046875 l 1
EndSplineSet
Validated: 1
EndChar

StartChar: uniE1D7
Encoding: 57815 57815 126
Width: 1000
Flags: HW
LayerCount: 2
Fore
SplineSet
178.80859375 495.1171875 m 1
 78.80859375 495.1171875 l 1
 78.80859375 104.8828125 l 1
 178.80859375 104.8828125 l 1
 178.80859375 495.1171875 l 1
921.19140625 495.1171875 m 1
 821.19140625 495.1171875 l 1
 821.19140625 104.8828125 l 1
 921.19140625 104.8828125 l 1
 921.19140625 495.1171875 l 1
105.224609375 350 m 1
 105.224609375 250 l 1
 876.806640625 250 l 1
 876.806640625 350 l 1
 105.224609375 350 l 1
EndSplineSet
Validated: 5
EndChar

StartChar: uniE1D8
Encoding: 57816 57816 127
Width: 1000
Flags: HW
LayerCount: 2
Fore
SplineSet
178.80859375 724.612304688 m 1
 78.80859375 724.612304688 l 1
 78.80859375 334.377929688 l 1
 178.80859375 334.377929688 l 1
 178.80859375 724.612304688 l 1
921.19140625 724.612304688 m 1
 821.19140625 724.612304688 l 1
 821.19140625 334.377929688 l 1
 921.19140625 334.377929688 l 1
 921.19140625 724.612304688 l 1
105.224609375 579.495117188 m 1
 105.224609375 479.495117188 l 1
 876.806640625 479.495117188 l 1
 876.806640625 579.495117188 l 1
 105.224609375 579.495117188 l 1
507.618164062 255.319335938 m 0
 290.676757812 255.319335938 239.067382812 72.1904296875 307.31640625 -55.6337890625 c 0
 321.594726562 -82.376953125 341.112304688 -106.505859375 366.467773438 -124.052734375 c 1
 366.467773438 -124.052734375 423.370117188 -41.8310546875 423.278320312 -41.767578125 c 0
 398.75 -24.7919921875 379.211914062 16.376953125 379.211914062 56.30859375 c 0
 379.211914062 74.546875 380.52734375 155.319335938 507.618164062 155.319335938 c 0
 560.91796875 155.319335938 587.432617188 138.482421875 601.997070312 120.245117188 c 0
 638.630859375 74.373046875 618.015625 -10.421875 571.4609375 -41.26171875 c 1
 626.68359375 -124.624023438 l 1
 684.333007812 -86.43359375 720.799804688 -13.703125 720.799804688 60.8330078125 c 0
 720.799804688 167.83203125 645.672851562 255.319335938 507.618164062 255.319335938 c 0
EndSplineSet
Validated: 37
EndChar

StartChar: uniE1DB
Encoding: 57819 57819 128
Width: 1000
Flags: HW
LayerCount: 2
Fore
SplineSet
270.373046875 -77.8564453125 m 1
 270.373046875 -77.8564453125 354.546875 -131.749023438 354.611328125 -131.646484375 c 2
 497.15625 91.9970703125 l 1
 646.538085938 -132.56640625 l 1
 729.641601562 -77.0341796875 l 1
 537.845703125 211.290039062 l 1
 454.141601562 210.467773438 l 1
 270.373046875 -77.8564453125 l 1
538.22265625 455.896484375 m 1
 438.3359375 455.896484375 l 1
 438.3359375 159.52734375 l 1
 538.22265625 159.52734375 l 1
 538.22265625 455.896484375 l 1
680.33984375 567.96875 m 0
 585.224609375 567.96875 506.53125 732.5390625 354.6796875 732.5390625 c 0
 271.34765625 732.5390625 184.415039062 683.704101562 80.7529296875 571.51171875 c 1
 154.1875 503.661132812 l 1
 250.494140625 607.893554688 313.99609375 632.5390625 354.6796875 632.5390625 c 0
 460.470703125 632.5390625 535.544921875 467.96875 680.33984375 467.96875 c 0
 756.124023438 467.96875 832.158203125 512.794921875 919.283203125 610.071289062 c 1
 919.283203125 610.071289062 844.806640625 676.776367188 844.779296875 676.745117188 c 0
 765.030273438 587.705078125 712.943359375 567.96875 680.33984375 567.96875 c 0
EndSplineSet
Validated: 37
EndChar

StartChar: uniE1DC
Encoding: 57820 57820 129
Width: 1000
Flags: HW
LayerCount: 2
Fore
SplineSet
155.287109375 512.466796875 m 1
 223.501953125 439.37109375 l 1
 338.28125 546.485351562 l 1
 338.28125 -72.0703125 l 1
 431.024414062 -98.01171875 l 1
 844.745117188 581.7734375 l 1
 844.745117188 581.7734375 759.323242188 633.76171875 759.258789062 633.65625 c 0
 438.28125 106.2578125 438.28125 106.2578125 438.28125 106.2578125 c 1
 438.28125 661.5234375 l 1
 354.18359375 698.080078125 l 1
 155.287109375 512.466796875 l 1
EndSplineSet
Validated: 41
EndChar

StartChar: uniE1DD
Encoding: 57821 57821 130
Width: 1000
Flags: HW
LayerCount: 2
Fore
SplineSet
93.017578125 347.412109375 m 1
 193.017578125 347.412109375 l 1
 193.017578125 620.947265625 l 1
 806.982421875 620.947265625 l 1
 806.982421875 347.412109375 l 1
 906.982421875 347.412109375 l 1
 906.982421875 720.947265625 l 1
 93.017578125 720.947265625 l 1
 93.017578125 347.412109375 l 1
252.493164062 -104.702148438 m 1
 252.493164062 -104.702148438 336.762695312 -158.534179688 336.828125 -158.431640625 c 2
 496.77734375 91.9521484375 l 1
 664.325195312 -159.350585938 l 1
 747.522460938 -103.880859375 l 1
 537.512695312 211.109375 l 1
 453.713867188 210.288085938 l 1
 252.493164062 -104.702148438 l 1
537.141601562 480.932617188 m 1
 437.141601562 480.932617188 l 1
 437.141601562 157.153320312 l 1
 537.141601562 157.153320312 l 1
 537.141601562 480.932617188 l 1
EndSplineSet
Validated: 37
EndChar

StartChar: uniE1DE
Encoding: 57822 57822 131
Width: 1000
Flags: HW
LayerCount: 2
Fore
SplineSet
75.8974609375 89.91796875 m 0
 429.956054688 -222.971679688 723.127929688 -86.333984375 924.172851562 89.8076171875 c 1
 858.286132812 165.009765625 l 1
 618.796875 -44.814453125 392.766601562 -56.6767578125 142.071289062 164.8671875 c 1
 142.071289062 164.8671875 75.86328125 89.9482421875 75.8974609375 89.91796875 c 0
361.260742188 343.708007812 m 0
 323.086914062 417.344726562 439.915039062 561.736328125 522.854492188 561.736328125 c 0
 607.57421875 559.791992188 710.000976562 417.435546875 670.1015625 344.745117188 c 0
 640.620117188 291.034179688 491.637695312 268.872070312 403.51953125 309.123046875 c 0
 380.416992188 319.67578125 367.12109375 332.408203125 361.260742188 343.708007812 c 0
253.966796875 376.161132812 m 0
 253.966796875 185.888671875 523.3125 154.3671875 666.256835938 218.255859375 c 0
 720.876953125 242.666992188 778.859375 290.208007812 778.859375 382.029296875 c 0
 778.859375 416.184570312 770.506835938 449.290039062 757.153320312 480.236328125 c 0
 718.651367188 569.461914062 627.55078125 659.310546875 526.666015625 661.69140625 c 0
 414.529296875 661.845703125 318.15234375 563.393554688 278.384765625 478.045898438 c 0
 263.533203125 446.170898438 253.966796875 411.844726562 253.966796875 376.161132812 c 0
290.231445312 694.163085938 m 1
 220.59765625 622.419921875 l 1
 433.106445312 416.161132812 l 1
 502.740234375 487.905273438 l 1
 290.231445312 694.163085938 l 1
EndSplineSet
Validated: 37
EndChar

StartChar: uniE1E1
Encoding: 57825 57825 132
Width: 1000
Flags: H
LayerCount: 2
Fore
SplineSet
967.7734375 430.224609375 m 1
 867.7734375 430.224609375 l 1
 867.7734375 156.689453125 l 1
 359.619140625 156.689453125 l 1
 359.619140625 543.252929688 l 1
 32.2255859375 245.568359375 l 1
 99.486328125 171.594726562 l 1
 259.619140625 317.196289062 l 1
 259.619140625 56.689453125 l 1
 967.7734375 56.689453125 l 1
 967.7734375 430.224609375 l 1
EndSplineSet
Validated: 9
EndChar

StartChar: uniE1E2
Encoding: 57826 57826 133
Width: 1000
Flags: HW
LayerCount: 2
Fore
SplineSet
66.9482421875 -18.837890625 m 1
 123.583007812 -101.245117188 l 1
 500 157.450195312 l 1
 876.416992188 -101.245117188 l 1
 895.286132812 -73.74609375 914.224609375 -46.31640625 933.051757812 -18.7744140625 c 0
 788.702148438 80.4111328125 644.345703125 179.58984375 500 278.780273438 c 1
 66.9482421875 -18.837890625 l 1
75.634765625 518.212890625 m 1
 75.634765625 418.212890625 l 1
 924.315429688 418.212890625 l 1
 660.220703125 701.20703125 l 1
 587.125 632.9921875 l 1
 694.239257812 518.212890625 l 1
 75.634765625 518.212890625 l 1
EndSplineSet
Validated: 9
EndChar

StartChar: uniE1E3
Encoding: 57827 57827 134
Width: 1000
Flags: HW
LayerCount: 2
Fore
SplineSet
390.544921875 -82.7275390625 m 1
 490.52734375 -81.3369140625 l 1
 481.40234375 575.139648438 l 1
 381.419921875 573.75 l 1
 390.544921875 -82.7275390625 l 1
194.098632812 560.377929688 m 1
 116.379882812 497.478515625 l 1
 435.950195312 103.088867188 l 1
 755.565429688 497.4765625 l 1
 677.897460938 560.438476562 l 1
 435.956054688 261.895507812 l 1
 194.098632812 560.377929688 l 1
783.59375 -130.46875 m 1
 883.59375 -130.46875 l 1
 883.59375 739.35546875 l 1
 416.064453125 739.35546875 l 1
 416.064453125 639.35546875 l 1
 783.59375 639.35546875 l 1
 783.59375 -130.46875 l 1
EndSplineSet
Validated: 5
EndChar

StartChar: uniE1E4
Encoding: 57828 57828 135
Width: 1000
Flags: HW
LayerCount: 2
Fore
SplineSet
75.8974609375 565.748046875 m 0
 429.956054688 252.858398438 723.127929688 389.49609375 924.172851562 565.637695312 c 1
 858.286132812 640.83984375 l 1
 618.796875 431.015625 392.766601562 419.153320312 142.071289062 640.697265625 c 1
 142.071289062 640.697265625 75.86328125 565.778320312 75.8974609375 565.748046875 c 0
75.634765625 59.1796875 m 1
 75.634765625 -40.8203125 l 1
 924.315429688 -40.8203125 l 1
 660.220703125 242.173828125 l 1
 587.125 173.958984375 l 1
 694.239257812 59.1796875 l 1
 75.634765625 59.1796875 l 1
EndSplineSet
Validated: 41
EndChar

StartChar: uniE1E5
Encoding: 57829 57829 136
Width: 1000
Flags: HW
LayerCount: 2
Fore
SplineSet
686.767578125 337.841796875 m 1
 686.767578125 437.841796875 l 1
 413.232421875 437.841796875 l 1
 413.232421875 628.466796875 l 1
 686.767578125 628.466796875 l 1
 686.767578125 728.466796875 l 1
 313.232421875 728.466796875 l 1
 313.232421875 337.841796875 l 1
 686.767578125 337.841796875 l 1
680.330078125 2.3369140625 m 0
 585.220703125 2.3369140625 506.529296875 166.873046875 354.690429688 166.873046875 c 0
 271.356445312 166.873046875 184.420898438 118.036132812 80.7529296875 5.837890625 c 1
 154.1875 -62.0126953125 l 1
 250.5 42.2265625 314.005859375 66.873046875 354.690429688 66.873046875 c 0
 460.474609375 66.873046875 535.547851562 -97.6630859375 680.330078125 -97.6630859375 c 0
 756.116210938 -97.6630859375 832.153320312 -52.8359375 919.283203125 44.4462890625 c 1
 919.283203125 44.4462890625 844.806640625 111.151367188 844.779296875 111.120117188 c 0
 765.025390625 22.07421875 712.935546875 2.3369140625 680.330078125 2.3369140625 c 0
EndSplineSet
Validated: 41
EndChar

StartChar: uniE1E7
Encoding: 57831 57831 137
Width: 1000
Flags: HW
LayerCount: 2
Fore
SplineSet
399.461914062 246.610351562 m 1
 499.435546875 248 l 1
 492.149414062 772.338867188 l 1
 392.174804688 770.948242188 l 1
 399.461914062 246.610351562 l 1
445.791992188 537.99609375 m 1
 260.428710938 766.796875 l 1
 182.762695312 703.833984375 l 1
 445.786132812 379.17578125 l 1
 708.845703125 703.83203125 l 1
 708.845703125 703.83203125 631.184570312 766.799804688 631.137695312 766.741210938 c 2
 445.791992188 537.99609375 l 1
311.760742188 -111.520507812 m 1
 391.017578125 -172.340820312 l 1
 391.073242188 -172.268554688 817.23828125 390.141601562 817.23828125 390.141601562 c 1
 737.981445312 450.961914062 l 1
 311.760742188 -111.520507812 l 1
604.15625 169.702148438 m 1
 524.842773438 108.95703125 l 1
 737.92578125 -172.266601562 l 1
 817.239257812 -111.521484375 l 1
 604.15625 169.702148438 l 1
EndSplineSet
Validated: 37
EndChar

StartChar: uniE1E8
Encoding: 57832 57832 138
Width: 1000
Flags: HW
LayerCount: 2
Fore
SplineSet
507.555664062 276.5078125 m 0
 290.822265625 276.5078125 239.009765625 93.490234375 307.31640625 -34.4423828125 c 0
 321.594726562 -61.185546875 341.112304688 -85.314453125 366.467773438 -102.861328125 c 1
 366.467773438 -102.861328125 423.370117188 -20.6396484375 423.278320312 -20.576171875 c 0
 398.75 -3.6005859375 379.211914062 37.568359375 379.211914062 77.5 c 0
 379.211914062 95.37890625 380.293945312 176.5078125 507.555664062 176.5078125 c 0
 560.884765625 176.5078125 587.41796875 159.665039062 601.990234375 141.422851562 c 0
 638.631835938 95.5537109375 618.01953125 10.7724609375 571.4609375 -20.0703125 c 1
 626.68359375 -103.432617188 l 1
 684.334960938 -65.2412109375 720.799804688 7.4814453125 720.799804688 82.0087890625 c 0
 720.799804688 188.995117188 645.672851562 276.5078125 507.555664062 276.5078125 c 0
100.008789062 630.264648438 m 1
 132.977539062 589.235351562 212.841796875 470.75 212.841796875 400.732421875 c 1
 312.841796875 400.732421875 l 1
 312.841796875 419.720703125 310.547851562 458.881835938 282.604492188 522.389648438 c 1
 491.095703125 436.124023438 684.591796875 479.55859375 900.004882812 619.587890625 c 1
 845.505859375 703.426757812 l 1
 585.133789062 534.170898438 395.209960938 538.99609375 168.19140625 702.106445312 c 1
 100.008789062 630.264648438 l 1
EndSplineSet
EndChar

StartChar: uniE1E9
Encoding: 57833 57833 139
Width: 1000
Flags: HW
LayerCount: 2
Fore
SplineSet
550.072265625 636.8671875 m 1
 741.686523438 635.302734375 830.93359375 543.959960938 767.563476562 469.469726562 c 0
 737.930664062 434.63671875 667.896484375 398.499023438 550.166015625 397.752929688 c 0
 545.80078125 397.725585938 234.805664062 395.817382812 113.6953125 397.747070312 c 1
 112.0859375 297.760742188 l 1
 168.610351562 296.866210938 328.587890625 296.373046875 550.810546875 297.754882812 c 0
 657.002929688 298.427734375 740.703125 323.041992188 799.614257812 364.747070312 c 0
 969.141601562 484.76171875 898.9609375 734.021484375 550.904296875 736.86328125 c 1
 550.072265625 636.8671875 l 1
710.547851562 -148.190429688 m 0
 910.8984375 -148.190429688 965.241210938 32.626953125 893.8984375 160.801757812 c 0
 878.47265625 188.515625 857.05859375 213.547851562 829.555664062 231.758789062 c 1
 829.555664062 231.758789062 774.350585938 148.384765625 774.448242188 148.319335938 c 0
 804.8203125 128.208984375 823.720703125 85.1953125 823.720703125 46.275390625 c 0
 823.720703125 10.4638671875 808.734375 -48.1904296875 710.547851562 -48.1904296875 c 0
 661.448242188 -48.1904296875 582.12109375 -34.9208984375 582.12109375 50.83203125 c 0
 582.12109375 90.7470703125 601.650390625 131.91015625 626.197265625 148.888671875 c 2
 597.802734375 240.0390625 l 1
 75.9765625 240.0390625 l 1
 75.9765625 140.0390625 l 1
 499.59375 140.0390625 l 1
 448.239257812 13.326171875 506.984375 -148.190429688 710.547851562 -148.190429688 c 0
EndSplineSet
Validated: 41
EndChar

StartChar: uniE1EB
Encoding: 57835 57835 140
Width: 1000
Flags: HW
LayerCount: 2
Fore
SplineSet
550 52.7119140625 m 1
 550 379.762695312 l 1
 880.71875 201.465820312 l 1
 880.71875 201.465820312 928.176757812 289.493164062 928.0703125 289.549804688 c 0
 450 547.288085938 450 547.288085938 450 547.288085938 c 1
 450 220.237304688 l 1
 119.28125 398.534179688 l 2
 119.28125 398.534179688 71.8232421875 310.506835938 71.9296875 310.450195312 c 0
 550 52.7119140625 550 52.7119140625 550 52.7119140625 c 1
EndSplineSet
Validated: 41
EndChar

StartChar: uniE1EA
Encoding: 57834 57834 141
Width: 1000
Flags: HW
LayerCount: 2
Fore
SplineSet
97.265625 390.72265625 m 1
 97.265625 290.72265625 l 1
 596.844726562 290.72265625 l 1
 709.373046875 522.600585938 l 1
 709.373046875 522.600585938 811.393554688 293.926757812 811.431640625 293.840820312 c 2
 902.766601562 334.588867188 l 1
 713.185546875 759.528320312 l 1
 534.209960938 390.72265625 l 1
 97.265625 390.72265625 l 1
100.00390625 70.0166015625 m 1
 133.024414062 28.9111328125 212.841796875 -89.5703125 212.841796875 -159.521484375 c 1
 312.841796875 -159.521484375 l 1
 312.841796875 -140.537109375 310.547851562 -101.3828125 282.592773438 -37.859375 c 1
 491.090820312 -124.1328125 684.590820312 -80.6962890625 900.004882812 59.333984375 c 1
 845.505859375 143.172851562 l 1
 585.133789062 -26.0830078125 395.209960938 -21.2578125 168.19140625 141.852539062 c 1
 100.00390625 70.0166015625 l 1
EndSplineSet
Validated: 41
EndChar

StartChar: uniE1EE
Encoding: 57838 57838 142
Width: 1000
Flags: HW
LayerCount: 2
Fore
SplineSet
558.41796875 440.529296875 m 1
 807.337890625 438.475585938 895.193359375 302.03515625 774.661132812 215.986328125 c 0
 732.16796875 185.650390625 660.504882812 161.100585938 558.51171875 160.448242188 c 0
 553.661132812 160.41796875 208.090820312 158.270507812 73.3740234375 160.442382812 c 1
 71.7431640625 60.4560546875 l 1
 134.5 59.451171875 312.235351562 58.8955078125 559.1640625 60.4501953125 c 0
 676.411132812 61.2001953125 768.399414062 88.66015625 832.672851562 134.544921875 c 0
 1017.22753906 266.299804688 939.083984375 537.391601562 559.2578125 540.525390625 c 1
 558.41796875 440.529296875 l 1
EndSplineSet
Validated: 41
EndChar

StartChar: uniE1EF
Encoding: 57839 57839 143
Width: 1000
Flags: HW
LayerCount: 2
Fore
SplineSet
489.689453125 300 m 1
 489.689453125 300 702.4296875 429.633789062 702.53515625 429.69921875 c 1
 650.5 515.092773438 l 1
 297.517578125 300 l 1
 650.5 84.9072265625 l 2
 650.5 84.9072265625 702.53515625 170.30078125 702.4296875 170.366210938 c 0
 489.689453125 300 489.689453125 300 489.689453125 300 c 1
EndSplineSet
Validated: 41
EndChar

StartChar: uniE1F0
Encoding: 57840 57840 144
Width: 1000
Flags: HW
LayerCount: 2
Fore
SplineSet
95.41015625 368.994140625 m 1
 195.41015625 368.994140625 l 1
 195.41015625 642.529296875 l 1
 809.375 642.529296875 l 1
 809.375 368.994140625 l 1
 909.375 368.994140625 l 1
 909.375 742.529296875 l 1
 95.41015625 742.529296875 l 1
 95.41015625 368.994140625 l 1
557.080078125 689.84375 m 1
 457.080078125 689.84375 l 1
 457.080078125 124.189453125 l 1
 342.305664062 231.328125 l 1
 274.08203125 158.241210938 l 1
 557.080078125 -105.927734375 l 1
 557.080078125 689.84375 l 1
EndSplineSet
Validated: 5
EndChar

StartChar: uniE1F1
Encoding: 57841 57841 145
Width: 1000
Flags: HW
LayerCount: 2
Fore
SplineSet
75.8974609375 355.884765625 m 0
 429.956054688 42.9951171875 723.127929688 179.6328125 924.172851562 355.774414062 c 1
 858.286132812 430.9765625 l 1
 618.796875 221.15234375 392.766601562 209.290039062 142.071289062 430.833984375 c 1
 142.071289062 430.833984375 75.86328125 355.915039062 75.8974609375 355.884765625 c 0
EndSplineSet
Validated: 41
EndChar

StartChar: uniE1F2
Encoding: 57842 57842 146
Width: 1000
Flags: HW
LayerCount: 2
Fore
SplineSet
45.01953125 646.630859375 m 1
 45.01953125 546.630859375 l 1
 954.98046875 546.630859375 l 1
 954.98046875 646.630859375 l 1
 45.01953125 646.630859375 l 1
494.775390625 350 m 1
 494.775390625 250 l 1
 954.98046875 250 l 1
 954.98046875 350 l 1
 494.775390625 350 l 1
494.775390625 53.369140625 m 1
 494.775390625 -46.630859375 l 1
 954.98046875 -46.630859375 l 1
 954.98046875 53.369140625 l 1
 494.775390625 53.369140625 l 1
EndSplineSet
Validated: 9
EndChar

StartChar: uniE1F4
Encoding: 57844 57844 147
Width: 1000
Flags: HW
LayerCount: 2
Fore
SplineSet
454.711914062 62.97265625 m 1
 554.697265625 64.36328125 l 1
 545.296875 740.715820312 l 1
 445.311523438 739.326171875 l 1
 454.711914062 62.97265625 l 1
249.616210938 724.575195312 m 1
 171.89453125 661.677734375 l 1
 499.98046875 256.799804688 l 1
 828.112304688 661.674804688 l 1
 750.442382812 724.635742188 l 1
 499.986328125 415.603515625 l 1
 249.616210938 724.575195312 l 1
806.982421875 -36.376953125 m 1
 193.017578125 -36.376953125 l 1
 193.017578125 237.20703125 l 1
 93.017578125 237.20703125 l 1
 93.017578125 -136.376953125 l 1
 906.982421875 -136.376953125 l 1
 906.982421875 237.20703125 l 1
 806.982421875 237.20703125 l 1
 806.982421875 -36.376953125 l 1
EndSplineSet
Validated: 5
EndChar

StartChar: uniE1F5
Encoding: 57845 57845 148
Width: 1000
Flags: HW
LayerCount: 2
Fore
SplineSet
468.9453125 -124.365234375 m 1
 568.9453125 -124.365234375 l 1
 568.9453125 724.334960938 l 1
 286.015625 460.234375 l 1
 354.21875 387.12890625 l 1
 468.9453125 494.219726562 l 1
 468.9453125 -124.365234375 l 1
325.09765625 243.45703125 m 1
 325.09765625 143.45703125 l 1
 714.013671875 143.45703125 l 1
 714.013671875 243.45703125 l 1
 325.09765625 243.45703125 l 1
EndSplineSet
Validated: 5
EndChar

StartChar: uniE1F6
Encoding: 57846 57846 149
Width: 1000
Flags: HW
LayerCount: 2
Fore
SplineSet
75.8974609375 42.26171875 m 0
 429.956054688 -270.627929688 723.127929688 -133.990234375 924.172851562 42.1513671875 c 1
 858.286132812 117.353515625 l 1
 618.796875 -92.470703125 392.766601562 -104.333007812 142.071289062 117.2109375 c 1
 142.071289062 117.2109375 75.86328125 42.2919921875 75.8974609375 42.26171875 c 0
336.752929688 633.033203125 m 1
 336.752929688 533.033203125 l 1
 663.216796875 533.033203125 l 1
 663.216796875 633.033203125 l 1
 336.752929688 633.033203125 l 1
336.752929688 386.297851562 m 1
 336.752929688 286.297851562 l 1
 663.216796875 286.297851562 l 1
 663.216796875 386.297851562 l 1
 336.752929688 386.297851562 l 1
549.985351562 744.587890625 m 1
 449.985351562 744.587890625 l 1
 449.985351562 152.053710938 l 1
 549.985351562 152.053710938 l 1
 549.985351562 744.587890625 l 1
EndSplineSet
Validated: 37
EndChar

StartChar: uniE1F7
Encoding: 57847 57847 150
Width: 1000
Flags: HW
LayerCount: 2
Fore
SplineSet
100.00390625 135.836914062 m 1
 133.024414062 94.7314453125 212.841796875 -23.75 212.841796875 -93.701171875 c 1
 312.841796875 -93.701171875 l 1
 312.841796875 -74.7158203125 310.547851562 -35.564453125 282.595703125 27.953125 c 1
 491.143554688 -58.3505859375 684.65625 -14.8720703125 900.010742188 125.158203125 c 1
 845.5 208.989257812 l 1
 585.106445312 39.6728515625 395.186523438 44.5791015625 168.19140625 207.672851562 c 1
 100.00390625 135.836914062 l 1
507.553710938 693.744140625 m 0
 291.008789062 693.744140625 238.932617188 510.823242188 307.31640625 382.745117188 c 0
 321.594726562 356.001953125 341.112304688 331.873046875 366.467773438 314.326171875 c 1
 366.467773438 314.326171875 423.370117188 396.547851562 423.278320312 396.611328125 c 0
 398.760742188 413.579101562 379.211914062 454.739257812 379.211914062 494.69140625 c 0
 379.211914062 511.9609375 379.892578125 593.744140625 507.553710938 593.744140625 c 0
 560.880859375 593.744140625 587.413085938 576.899414062 601.986328125 558.651367188 c 0
 638.633789062 512.766601562 618.020507812 427.9609375 571.4609375 397.1171875 c 1
 626.68359375 313.754882812 l 1
 684.334960938 351.946289062 720.799804688 424.676757812 720.799804688 499.215820312 c 0
 720.799804688 606.215820312 645.671875 693.744140625 507.553710938 693.744140625 c 0
EndSplineSet
EndChar

StartChar: uniE1F8
Encoding: 57848 57848 151
Width: 1000
Flags: H
LayerCount: 2
Fore
SplineSet
367.169921875 -90.5986328125 m 1
 444.944335938 -152.579101562 l 1
 444.998046875 -152.504882812 765.118164062 286.213867188 765.118164062 286.213867188 c 1
 687.34375 348.194335938 l 1
 367.169921875 -90.5986328125 l 1
605.056640625 128.747070312 m 1
 527.23046875 66.837890625 l 1
 687.290039062 -152.505859375 l 1
 765.1171875 -90.59765625 l 1
 605.056640625 128.747070312 l 1
234.888671875 313.689453125 m 1
 234.888671875 313.689453125 318.83203125 259.649414062 318.897460938 259.751953125 c 2
 429.645507812 434.461914062 l 1
 545.83984375 258.830078125 l 1
 628.716796875 314.513671875 l 1
 470.223632812 554.081054688 l 1
 386.749023438 553.256835938 l 1
 234.888671875 313.689453125 l 1
471.963867188 752.559570312 m 1
 372.349609375 752.559570312 l 1
 372.349609375 506.30859375 l 1
 471.963867188 506.30859375 l 1
 471.963867188 752.559570312 l 1
EndSplineSet
Validated: 37
EndChar

StartChar: uniE1FB
Encoding: 57851 57851 152
Width: 1000
Flags: HW
LayerCount: 2
Fore
SplineSet
309.348632812 39.453125 m 1
 503.580078125 39.453125 l 1
 411.688476562 -138.647460938 l 2
 411.688476562 -138.647460938 500.5625 -184.502929688 500.616210938 -184.399414062 c 0
 667.708984375 139.453125 667.708984375 139.453125 667.708984375 139.453125 c 1
 473.463867188 139.453125 l 1
 565.364257812 317.606445312 l 1
 565.364257812 317.606445312 476.486328125 363.454101562 476.432617188 363.350585938 c 0
 309.348632812 39.453125 309.348632812 39.453125 309.348632812 39.453125 c 1
301.022460938 345.706054688 m 1
 378.796875 283.725585938 l 1
 378.850585938 283.80078125 698.970703125 722.51953125 698.970703125 722.51953125 c 1
 621.196289062 784.5 l 1
 301.022460938 345.706054688 l 1
538.91015625 565.051757812 m 1
 461.083007812 503.143554688 l 1
 621.142578125 283.798828125 l 1
 698.969726562 345.708007812 l 1
 538.91015625 565.051757812 l 1
EndSplineSet
Validated: 37
EndChar

StartChar: uniE1FC
Encoding: 57852 57852 153
Width: 1000
Flags: H
LayerCount: 2
Fore
SplineSet
628.243164062 649.551757812 m 0
 632.272460938 649.982421875 764.874023438 663.724609375 908.004882812 657.323242188 c 1
 912.47265625 757.224609375 l 2
 896.196289062 757.953125 598.725585938 770.37890625 450.572265625 714.255859375 c 0
 301.430664062 657.73828125 97.9736328125 447.815429688 87.5283203125 436.97265625 c 2
 159.532226562 367.607421875 l 1
 202.38671875 412.091796875 373.809570312 578.208984375 485.951171875 620.705078125 c 0
 520.48046875 633.78515625 572.926757812 643.640625 628.243164062 649.551757812 c 0
725.3515625 257.958984375 m 1
 441.171875 257.958984375 l 1
 591.530273438 540.424804688 l 1
 591.530273438 540.424804688 503.252929688 587.416015625 503.196289062 587.309570312 c 0
 274.6484375 157.958984375 274.6484375 157.958984375 274.6484375 157.958984375 c 1
 558.828125 157.958984375 l 1
 408.469726562 -124.506835938 l 1
 408.469726562 -124.506835938 496.747070312 -171.498046875 496.803710938 -171.391601562 c 0
 725.3515625 257.958984375 725.3515625 257.958984375 725.3515625 257.958984375 c 1
EndSplineSet
Validated: 41
EndChar

StartChar: uniE1FD
Encoding: 57853 57853 154
Width: 500
Flags: HW
LayerCount: 2
Fore
SplineSet
250 534.306640625 m 1
 120.298828125 747.119140625 l 1
 34.9091796875 695.077148438 l 1
 250 342.158203125 l 1
 465.090820312 695.077148438 l 1
 465.090820312 695.077148438 379.701171875 747.119140625 379.635742188 747.012695312 c 0
 250 534.306640625 250 534.306640625 250 534.306640625 c 1
EndSplineSet
Validated: 41
EndChar

StartChar: uniE1FE
Encoding: 57854 57854 155
Width: 1000
Flags: H
LayerCount: 2
Fore
SplineSet
300.87890625 -124.365234375 m 1
 400.87890625 -124.365234375 l 1
 400.87890625 724.315429688 l 1
 117.904296875 460.23828125 l 1
 186.099609375 387.125 l 1
 300.87890625 494.239257812 l 1
 300.87890625 -124.365234375 l 1
541.50390625 -124.365234375 m 1
 641.50390625 -124.365234375 l 1
 641.50390625 335.888671875 l 1
 541.50390625 335.888671875 l 1
 541.50390625 -124.365234375 l 1
782.12890625 -124.365234375 m 1
 882.12890625 -124.365234375 l 1
 882.12890625 335.888671875 l 1
 782.12890625 335.888671875 l 1
 782.12890625 -124.365234375 l 1
EndSplineSet
Validated: 9
EndChar

StartChar: uniE1FF
Encoding: 57855 57855 156
Width: 1000
Flags: H
LayerCount: 2
Fore
SplineSet
500 503.80078125 m 1
 500 503.80078125 370.366210938 716.541015625 370.30078125 716.646484375 c 2
 284.907226562 664.611328125 l 1
 500 311.62890625 l 1
 715.092773438 664.611328125 l 1
 715.092773438 664.611328125 629.69921875 716.646484375 629.633789062 716.541015625 c 0
 500 503.80078125 500 503.80078125 500 503.80078125 c 1
806.982421875 -16.552734375 m 1
 193.017578125 -16.552734375 l 1
 193.017578125 256.982421875 l 1
 93.017578125 256.982421875 l 1
 93.017578125 -116.552734375 l 1
 906.982421875 -116.552734375 l 1
 906.982421875 256.982421875 l 1
 806.982421875 256.982421875 l 1
 806.982421875 -16.552734375 l 1
EndSplineSet
EndChar

StartChar: uniE201
Encoding: 57857 57857 157
Width: 1000
Flags: H
LayerCount: 2
Fore
SplineSet
293.0546875 48.1044921875 m 1
 299.828125 45.8828125 431.829101562 3.033203125 539.662109375 3.033203125 c 0
 571.563476562 3.033203125 603.235351562 6.2080078125 632.809570312 18.4453125 c 0
 692.65234375 43.20703125 737.427734375 112.5234375 682.555664062 209.647460938 c 0
 665.298828125 240.192382812 642.139648438 267.44921875 618.5234375 291.625 c 0
 565.540039062 345.862304688 508.741210938 384.923828125 507.313476562 385.912109375 c 1
 451.25390625 302.833007812 l 1
 452.924804688 301.676757812 557.631835938 228.114257812 596.23828125 159.783203125 c 0
 600.153320312 152.853515625 611.9296875 130.310546875 606.2109375 119.213867188 c 0
 602.03515625 111.115234375 576.078125 103.663085938 539.662109375 103.663085938 c 0
 449.032226562 103.663085938 323.6796875 143.857421875 323.6796875 143.857421875 c 2
 293.0546875 48.1044921875 l 1
529.016601562 80.9208984375 m 1
 429.643554688 80.9208984375 l 1
 429.643554688 -167.440429688 l 1
 529.016601562 -167.440429688 l 1
 529.016601562 80.9208984375 l 1
661.083984375 419.873046875 m 1
 661.083984375 519.873046875 l 1
 438.916015625 519.873046875 l 1
 438.916015625 667.48046875 l 1
 661.083984375 667.48046875 l 1
 661.083984375 767.48046875 l 1
 338.916015625 767.48046875 l 1
 338.916015625 419.873046875 l 1
 661.083984375 419.873046875 l 1
EndSplineSet
Validated: 37
EndChar

StartChar: uniE202
Encoding: 57858 57858 158
Width: 1000
Flags: HW
LayerCount: 2
Fore
SplineSet
689.984375 500.405273438 m 0
 689.984375 716.962890625 507.041992188 769.056640625 378.974609375 700.655273438 c 0
 352.231445312 686.372070312 328.103515625 666.845703125 310.55859375 641.48046875 c 1
 310.55859375 641.48046875 392.794921875 584.599609375 392.859375 584.69140625 c 0
 409.833984375 609.232421875 450.9921875 628.767578125 490.919921875 628.767578125 c 0
 508.145507812 628.767578125 589.984375 628.109375 589.984375 500.405273438 c 0
 589.984375 447.083007812 573.141601562 420.551757812 554.8984375 405.979492188 c 0
 509.017578125 369.331054688 424.2109375 389.950195312 393.36328125 436.538085938 c 1
 309.989257812 381.333007812 l 1
 348.180664062 323.654296875 420.923828125 287.16796875 495.4765625 287.16796875 c 0
 602.463867188 287.16796875 689.984375 362.291992188 689.984375 500.405273438 c 0
66.9482421875 -78.798828125 m 1
 123.583007812 -161.206054688 l 1
 500 97.4892578125 l 1
 876.416992188 -161.206054688 l 1
 895.286132812 -133.70703125 914.224609375 -106.27734375 933.051757812 -78.7353515625 c 0
 788.702148438 20.4501953125 644.345703125 119.62890625 500 218.819335938 c 1
 66.9482421875 -78.798828125 l 1
EndSplineSet
Validated: 41
EndChar

StartChar: uniE203
Encoding: 57859 57859 159
Width: 1000
Flags: H
LayerCount: 2
Fore
SplineSet
441.58203125 159.470703125 m 1
 192.662109375 161.524414062 104.806640625 297.96484375 225.338867188 384.013671875 c 0
 267.83203125 414.349609375 339.495117188 438.899414062 441.48828125 439.551757812 c 0
 446.338867188 439.58203125 791.909179688 441.729492188 926.625976562 439.557617188 c 1
 928.256835938 539.543945312 l 1
 865.5 540.548828125 687.764648438 541.104492188 440.8359375 539.549804688 c 0
 323.588867188 538.799804688 231.600585938 511.33984375 167.327148438 465.455078125 c 0
 -17.2275390625 333.700195312 60.916015625 62.6083984375 440.7421875 59.474609375 c 1
 441.58203125 159.470703125 l 1
EndSplineSet
Validated: 41
EndChar

StartChar: uniE204
Encoding: 57860 57860 160
Width: 1000
Flags: HW
LayerCount: 2
Fore
SplineSet
550.000976562 536.416992188 m 1
 450.000976562 536.416992188 l 1
 450.000976562 63.5654296875 l 1
 550.000976562 63.5654296875 l 1
 550.000976562 536.416992188 l 1
256.934570312 349.991210938 m 1
 256.934570312 249.991210938 l 1
 743.067382812 249.991210938 l 1
 743.067382812 349.991210938 l 1
 256.934570312 349.991210938 l 1
EndSplineSet
Validated: 5
EndChar

StartChar: uniE205
Encoding: 57861 57861 161
Width: 1000
Flags: HW
LayerCount: 2
Fore
SplineSet
314.737304688 436.869140625 m 1
 298.905273438 476.044921875 313.8125 493.139648438 324.985351562 503.55078125 c 0
 390.657226562 564.74609375 592.890625 562.520507812 668.138671875 494.85546875 c 0
 691.989257812 473.408203125 692.033203125 456.192382812 692.033203125 441.11328125 c 0
 692.033203125 321.174804688 607.5625 274.3125 528.384765625 234.477539062 c 0
 508.874023438 224.661132812 491.236328125 216.649414062 474.149414062 203.154296875 c 0
 401.365234375 145.59765625 415.146484375 23.873046875 459.758789062 -47.841796875 c 0
 487.955078125 -30.5595703125 516.430664062 -12.6494140625 544.733398438 4.873046875 c 1
 521.774414062 41.7802734375 514.752929688 107.79296875 536.104492188 124.677734375 c 0
 539.135742188 127.071289062 553.970703125 135.397460938 573.23046875 145.087890625 c 0
 613.859375 165.528320312 675.682617188 195.556640625 724.280273438 251.989257812 c 0
 759.989257812 293.456054688 794.65234375 358.165039062 791.872070312 451.897460938 c 0
 790.748046875 489.80078125 772.629882812 578.986328125 634.114257812 624.935546875 c 0
 587.262695312 640.4765625 535.62890625 647.853515625 484.521484375 647.853515625 c 0
 436.6015625 647.853515625 325.259765625 640.466796875 256.844726562 576.715820312 c 0
 222.305664062 544.530273438 187.708007812 484.263671875 222.0078125 399.392578125 c 1
 314.737304688 436.869140625 l 1
EndSplineSet
Validated: 41
EndChar

StartChar: uniE208
Encoding: 57864 57864 162
Width: 500
Flags: HW
LayerCount: 2
Fore
SplineSet
83.8388671875 464.657226562 m 1
 85.7109375 224.443359375 242.952148438 162.96875 337.577148438 246.529296875 c 0
 387.329101562 290.46484375 414.963867188 366.091796875 415.575195312 464.723632812 c 0
 416.904296875 689.3359375 415.5703125 773.138671875 415.5703125 776.25390625 c 1
 415.5703125 776.25390625 315.581054688 774.749023438 315.58203125 774.72265625 c 0
 316.169921875 736.05078125 316.510742188 623.088867188 315.577148438 465.354492188 c 0
 314.950195312 364.1171875 276.626953125 311.140625 248.659179688 311.140625 c 0
 222.120117188 311.140625 184.653320312 360.587890625 183.8359375 465.435546875 c 1
 83.8388671875 464.657226562 l 1
EndSplineSet
Validated: 41
EndChar

StartChar: uniE209
Encoding: 57865 57865 163
Width: 1000
Flags: H
LayerCount: 2
Fore
SplineSet
816.229492188 223.389648438 m 1
 854.814453125 131.006835938 l 1
 183.770507812 -152.467773438 l 1
 145.184570312 -60.0849609375 l 1
 816.229492188 223.389648438 l 1
183.770507812 223.389648438 m 1
 854.814453125 -60.0849609375 l 1
 816.229492188 -152.467773438 l 1
 145.184570312 131.006835938 l 1
 183.770507812 223.389648438 l 1
499.034179688 579.708984375 m 0
 499.034179688 518.431640625 400.993164062 463.193359375 400.993164062 353.045898438 c 0
 400.993164062 291.716796875 432.110351562 227.982421875 500.671875 153.9765625 c 1
 574.03515625 221.90234375 l 1
 513.657226562 287.075195312 500.993164062 328.052734375 500.993164062 353.045898438 c 0
 500.993164062 420.362304688 599.034179688 476.151367188 599.034179688 579.708984375 c 0
 599.034179688 635.803710938 570.220703125 692.071289062 510.462890625 754.600585938 c 1
 438.169921875 685.536132812 l 1
 489.390625 631.939453125 499.034179688 599.045898438 499.034179688 579.708984375 c 0
EndSplineSet
Validated: 5
EndChar

StartChar: uniE20A
Encoding: 57866 57866 164
Width: 1000
Flags: H
LayerCount: 2
Fore
SplineSet
640.529296875 241.58203125 m 1
 638.475585938 -7.337890625 502.03515625 -95.193359375 415.986328125 25.3388671875 c 0
 385.650390625 67.83203125 361.100585938 139.495117188 360.448242188 241.48828125 c 0
 360.41796875 246.338867188 358.270507812 591.909179688 360.442382812 726.625976562 c 1
 260.456054688 728.256835938 l 1
 259.451171875 665.5 258.895507812 487.764648438 260.450195312 240.8359375 c 0
 261.200195312 123.588867188 288.66015625 31.6005859375 334.544921875 -32.6728515625 c 0
 466.299804688 -217.227539062 737.391601562 -139.083984375 740.525390625 240.7421875 c 1
 640.529296875 241.58203125 l 1
EndSplineSet
Validated: 41
EndChar

StartChar: uniE20B
Encoding: 57867 57867 165
Width: 1000
Flags: H
LayerCount: 2
Fore
SplineSet
66.9482421875 76.083984375 m 1
 123.583007812 -6.3232421875 l 1
 500 252.372070312 l 1
 876.416992188 -6.3232421875 l 1
 895.286132812 21.17578125 914.224609375 48.60546875 933.051757812 76.1474609375 c 0
 788.702148438 175.333007812 644.345703125 274.51171875 500 373.702148438 c 1
 66.9482421875 76.083984375 l 1
498.926757812 606.295898438 m 0
 281.9765625 606.295898438 230.342773438 423.149414062 298.612304688 295.33203125 c 0
 312.895507812 268.588867188 332.421875 244.4609375 357.787109375 226.916015625 c 1
 357.787109375 226.916015625 414.66796875 309.15234375 414.576171875 309.216796875 c 0
 390.036132812 326.190429688 370.5 367.348632812 370.5 407.2734375 c 0
 370.5 425.448242188 371.778320312 506.295898438 498.926757812 506.295898438 c 0
 552.22265625 506.295898438 578.735351562 489.4609375 593.297851562 471.228515625 c 0
 629.93359375 425.360351562 609.3125 340.565429688 562.729492188 309.720703125 c 1
 617.934570312 226.346679688 l 1
 675.612304688 264.537109375 712.099609375 337.279296875 712.099609375 411.830078125 c 0
 712.099609375 518.815429688 636.975585938 606.295898438 498.926757812 606.295898438 c 0
EndSplineSet
Validated: 37
EndChar

StartChar: uniE20C
Encoding: 57868 57868 166
Width: 500
Flags: HW
LayerCount: 2
Fore
SplineSet
9.90234375 407.42578125 m 2
 17.2802734375 405.036132812 173.483398438 354.956054688 300.26171875 354.956054688 c 0
 337.498046875 354.956054688 374.099609375 358.704101562 407.567382812 372.37890625 c 0
 434.229492188 383.2734375 460.616210938 402.21875 476.1171875 431.909179688 c 0
 505.470703125 488.151367188 496.677734375 567.995117188 387.564453125 678.295898438 c 0
 325.328125 741.208984375 258.138671875 786.8828125 256.702148438 787.864257812 c 1
 200.288085938 705.3046875 l 1
 234.10546875 682.197265625 335.453125 604.197265625 375.389648438 534.391601562 c 0
 384.126953125 519.12109375 395.650390625 493.875 387.412109375 478.08984375 c 0
 378.930664062 461.846679688 338.736328125 454.956054688 300.26171875 454.956054688 c 0
 190.577148438 454.956054688 40.720703125 502.579101562 40.720703125 502.579101562 c 1
 9.90234375 407.42578125 l 2
278.541992188 437.32421875 m 1
 178.541992188 437.32421875 l 1
 178.541992188 145.771484375 l 1
 278.541992188 145.771484375 l 1
 278.541992188 437.32421875 l 1
EndSplineSet
Validated: 37
EndChar

StartChar: uniE20E
Encoding: 57870 57870 167
Width: 1000
Flags: H
LayerCount: 2
Fore
SplineSet
135.059570312 698.453125 m 1
 137.294921875 349.116210938 378.115234375 249.192382812 516.41015625 392.640625 c 1
 518.45703125 -99.1865234375 l 1
 618.45703125 -98.7626953125 l 1
 615.13671875 698.991210938 l 1
 515.138671875 698.991210938 l 1
 513.681640625 522.424804688 444.659179688 429.372070312 376.78515625 429.372070312 c 0
 308.563476562 429.372070312 236.18359375 523.056640625 235.057617188 699.10546875 c 1
 135.059570312 698.453125 l 1
764.94140625 -99.21875 m 1
 864.94140625 -99.21875 l 1
 864.94140625 360.986328125 l 1
 764.94140625 360.986328125 l 1
 764.94140625 -99.21875 l 1
EndSplineSet
Validated: 41
EndChar

StartChar: uniE20F
Encoding: 57871 57871 168
Width: 1000
Flags: H
LayerCount: 2
Fore
SplineSet
6690.91796875 -1490.33203125 m 0
 6753.73144531 -1488.10253906 6806.38964844 -1503.22070312 6844.921875 -1532.6171875 c 0
 6883.453125 -1562.01367188 6905.59082031 -1604.27636719 6913.18359375 -1646.77734375 c 0
 6928.36914062 -1731.77929688 6894.85449219 -1822.01171875 6822.36328125 -1870.01953125 c 1
 6767.1875 -1786.62109375 l 2
 6798.8828125 -1765.62988281 6822.55273438 -1708.05273438 6814.74609375 -1664.35546875 c 0
 6810.84277344 -1642.50683594 6801.46484375 -1625.22265625 6784.27734375 -1612.109375 c 0
 6767.08984375 -1598.99609375 6739.84960938 -1588.62207031 6694.43359375 -1590.234375 c 0
 6648.74023438 -1591.85644531 6621.77832031 -1603.91992188 6604.98046875 -1618.06640625 c 0
 6588.18261719 -1632.21289062 6579.48730469 -1649.83886719 6576.171875 -1671.484375 c 0
 6569.54199219 -1714.77441406 6594.94628906 -1770.53515625 6619.04296875 -1787.20703125 c 2
 6590.52734375 -1878.3203125 l 1
 6068.75 -1878.3203125 l 1
 6068.75 -1778.3203125 l 1
 6491.30859375 -1778.3203125 l 1
 6476.26367188 -1740.75292969 6470.87890625 -1698.56347656 6477.34375 -1656.34765625 c 0
 6483.72167969 -1614.70214844 6503.86035156 -1572.48144531 6540.52734375 -1541.6015625 c 0
 6577.19433594 -1510.72167969 6628.3828125 -1492.55175781 6690.91796875 -1490.33203125 c 0
6822.32910156 -1870.04003906 m 1
 6880.0078125 -1831.84863281 6916.49414062 -1759.11328125 6916.49414062 -1684.57128906 c 0
 6916.49414062 -1577.59863281 6841.37011719 -1490.09375 6703.25878906 -1490.09375 c 0
 6499.90429688 -1490.09375 6440.97753906 -1651.50976562 6492.33789062 -1778.3203125 c 1
 6068.75 -1778.3203125 l 1
 6068.75 -1878.3203125 l 1
 6590.52734375 -1878.3203125 l 1
 6618.91699219 -1787.16699219 l 2
 6594.42285156 -1770.22851562 6574.88574219 -1729.09667969 6574.88574219 -1689.15429688 c 0
 6574.88574219 -1671.24902344 6575.99023438 -1590.09375 6703.25878906 -1590.09375 c 0
 6756.58398438 -1590.09375 6783.11621094 -1606.93457031 6797.68554688 -1625.171875 c 0
 6834.32910156 -1671.03710938 6813.7109375 -1755.81835938 6767.12402344 -1786.66601562 c 1
 6822.32910156 -1870.04003906 l 1
6822.32910156 -1870.04003906 m 1
 6880.0078125 -1831.84863281 6916.49414062 -1759.11328125 6916.49414062 -1684.57128906 c 0
 6916.49414062 -1577.59863281 6841.37011719 -1490.09375 6703.25878906 -1490.09375 c 0
 6499.90429688 -1490.09375 6440.97753906 -1651.50976562 6492.33789062 -1778.3203125 c 1
 6068.75 -1778.3203125 l 1
 6068.75 -1878.3203125 l 1
 6590.52734375 -1878.3203125 l 1
 6618.91699219 -1787.16699219 l 2
 6594.42285156 -1770.22851562 6574.88574219 -1729.09667969 6574.88574219 -1689.15429688 c 0
 6574.88574219 -1671.24902344 6575.99023438 -1590.09375 6703.25878906 -1590.09375 c 0
 6756.58398438 -1590.09375 6783.11621094 -1606.93457031 6797.68554688 -1625.171875 c 0
 6834.32910156 -1671.03710938 6813.7109375 -1755.81835938 6767.12402344 -1786.66601562 c 1
 6822.32910156 -1870.04003906 l 1
66.9482421875 419.736328125 m 1
 123.583007812 337.329101562 l 1
 500 596.024414062 l 1
 876.416992188 337.329101562 l 1
 895.286132812 364.828125 914.224609375 392.2578125 933.051757812 419.799804688 c 0
 788.702148438 518.985351562 644.345703125 618.1640625 500 717.354492188 c 1
 66.9482421875 419.736328125 l 1
339.404296875 360.3515625 m 1
 339.404296875 260.3515625 l 1
 535.107421875 260.3515625 l 1
 535.107421875 -129.833984375 l 1
 635.107421875 -129.833984375 l 1
 635.107421875 360.3515625 l 1
 339.404296875 360.3515625 l 1
EndSplineSet
EndChar

StartChar: uniE210
Encoding: 57872 57872 169
Width: 500
Flags: HW
LayerCount: 2
Fore
SplineSet
261.5234375 776.318359375 m 1
 161.5234375 776.318359375 l 1
 161.5234375 287.805664062 l 1
 129.3359375 311.963867188 78.486328125 339.201171875 18.3359375 332.557617188 c 1
 18.3359375 332.557617188 29.3154296875 233.154296875 29.41796875 233.165039062 c 0
 39.630859375 234.293945312 55.9111328125 233.272460938 77.1748046875 222.807617188 c 0
 126.670898438 198.448242188 160.390625 145.561523438 161.646484375 127.576171875 c 2
 261.5234375 131.103515625 l 1
 261.5234375 776.318359375 l 1
263.692382812 429.721679688 m 2
 326.188476562 351.674804688 l 1
 378.294921875 393.431640625 430.473632812 435.1171875 482.536132812 476.918945312 c 1
 420.100585938 554.965820312 l 2
 420.100585938 554.965820312 263.752929688 429.770507812 263.692382812 429.721679688 c 2
EndSplineSet
Validated: 41
EndChar

StartChar: uniE211
Encoding: 57873 57873 170
Width: 1000
Flags: HW
LayerCount: 2
Fore
SplineSet
100.00390625 97.8486328125 m 1
 133.024414062 56.7431640625 212.841796875 -61.73828125 212.841796875 -131.689453125 c 1
 312.841796875 -131.689453125 l 1
 312.841796875 -112.705078125 310.547851562 -73.55078125 282.592773438 -10.02734375 c 1
 491.090820312 -96.30078125 684.590820312 -52.8642578125 900.004882812 87.166015625 c 1
 845.505859375 171.004882812 l 1
 585.133789062 1.7490234375 395.209960938 6.57421875 168.19140625 169.684570312 c 1
 100.00390625 97.8486328125 l 1
501.505859375 551.875976562 m 0
 501.505859375 488.092773438 398.520507812 431.359375 398.520507812 317.868164062 c 0
 398.520507812 254.807617188 431.040039062 189.321289062 502.876953125 113.126953125 c 1
 575.638671875 181.697265625 l 1
 512.000976562 249.194335938 498.520507812 291.810546875 498.520507812 317.868164062 c 0
 498.520507812 387.795898438 601.505859375 445.236328125 601.505859375 551.875976562 c 0
 601.505859375 609.537109375 571.418945312 667.313476562 508.842773438 731.670898438 c 1
 437.153320312 661.981445312 l 1
 491.185546875 606.41015625 501.505859375 572.110351562 501.505859375 551.875976562 c 0
EndSplineSet
Validated: 41
EndChar

StartChar: uniE212
Encoding: 57874 57874 171
Width: 1000
Flags: HW
LayerCount: 2
Fore
SplineSet
65.087890625 507.32421875 m 1
 65.087890625 407.32421875 l 1
 834.912109375 407.32421875 l 1
 834.912109375 92.67578125 l 1
 934.912109375 92.67578125 l 1
 934.912109375 507.32421875 l 1
 65.087890625 507.32421875 l 1
EndSplineSet
Validated: 9
EndChar

StartChar: uniE215
Encoding: 57877 57877 172
Width: 1000
Flags: H
LayerCount: 2
Fore
SplineSet
392.67578125 447.802734375 m 1
 292.67578125 447.802734375 l 1
 292.67578125 -157.421875 l 1
 707.32421875 -157.421875 l 1
 707.32421875 -57.421875 l 1
 392.67578125 -57.421875 l 1
 392.67578125 447.802734375 l 1
75.634765625 574.4140625 m 1
 75.634765625 474.4140625 l 1
 924.315429688 474.4140625 l 1
 660.220703125 757.408203125 l 1
 587.125 689.193359375 l 1
 694.239257812 574.4140625 l 1
 75.634765625 574.4140625 l 1
EndSplineSet
Validated: 9
EndChar

StartChar: uniE216
Encoding: 57878 57878 173
Width: 1000
Flags: H
LayerCount: 2
Fore
SplineSet
313.534179688 631.505859375 m 1
 693.612304688 631.505859375 l 1
 693.612304688 531.505859375 l 1
 313.534179688 531.505859375 l 1
 313.534179688 631.505859375 l 1
313.534179688 397.215820312 m 1
 693.612304688 397.215820312 l 1
 693.612304688 297.215820312 l 1
 313.534179688 297.215820312 l 1
 313.534179688 397.215820312 l 1
453.573242188 769.591796875 m 1
 553.573242188 769.591796875 l 1
 553.573242188 159.123046875 l 1
 453.573242188 159.123046875 l 1
 453.573242188 769.591796875 l 1
680.338867188 -62.9404296875 m 0
 585.227539062 -62.9404296875 506.536132812 101.610351562 354.696289062 101.610351562 c 0
 271.358398438 101.610351562 184.421875 52.7666015625 80.751953125 -59.447265625 c 1
 154.189453125 -127.293945312 l 1
 250.505859375 -23.0390625 314.012695312 1.6103515625 354.696289062 1.6103515625 c 0
 460.477539062 1.6103515625 535.551757812 -162.940429688 680.338867188 -162.940429688 c 0
 756.123046875 -162.940429688 832.157226562 -118.114257812 919.283203125 -20.8369140625 c 1
 844.806640625 45.8681640625 l 1
 765.030273438 -43.2041015625 712.942382812 -62.9404296875 680.338867188 -62.9404296875 c 0
EndSplineSet
Validated: 5
EndChar

StartChar: uniE217
Encoding: 57879 57879 174
Width: 1000
Flags: HW
LayerCount: 2
Fore
SplineSet
66.9482421875 192.392578125 m 1
 123.583007812 109.985351562 l 1
 500 368.680664062 l 1
 876.416992188 109.985351562 l 1
 895.286132812 137.484375 914.224609375 164.9140625 933.051757812 192.456054688 c 0
 788.702148438 291.641601562 644.345703125 390.8203125 500 490.010742188 c 1
 66.9482421875 192.392578125 l 1
EndSplineSet
Validated: 9
EndChar

StartChar: uniE218
Encoding: 57880 57880 175
Width: 1000
Flags: HW
LayerCount: 2
Fore
SplineSet
305.865234375 89.5146484375 m 0
 305.865234375 -110.893554688 486.682617188 -165.245117188 614.881835938 -93.900390625 c 0
 642.59765625 -78.4755859375 667.631835938 -57.0654296875 685.8515625 -29.5693359375 c 1
 685.8515625 -29.5693359375 602.495117188 25.6630859375 602.4296875 25.5654296875 c 0
 582.296875 -4.8193359375 539.2734375 -23.720703125 500.352539062 -23.720703125 c 0
 464.533203125 -23.720703125 405.865234375 -8.7255859375 405.865234375 89.5146484375 c 0
 405.865234375 138.180664062 418.985351562 217.87890625 504.9296875 217.87890625 c 0
 544.848632812 217.87890625 586.01171875 198.349609375 602.990234375 173.802734375 c 2
 694.140625 202.197265625 l 1
 694.140625 724.0234375 l 1
 594.140625 724.0234375 l 1
 594.140625 300.40625 l 1
 467.15625 351.870117188 305.865234375 292.681640625 305.865234375 89.5146484375 c 0
EndSplineSet
Validated: 41
EndChar

StartChar: uniE219
Encoding: 57881 57881 176
Width: 1000
Flags: H
LayerCount: 2
Fore
SplineSet
45.01953125 443.06640625 m 1
 45.01953125 343.06640625 l 1
 954.98046875 343.06640625 l 1
 954.98046875 443.06640625 l 1
 45.01953125 443.06640625 l 1
45.01953125 256.93359375 m 1
 45.01953125 156.93359375 l 1
 954.98046875 156.93359375 l 1
 954.98046875 256.93359375 l 1
 45.01953125 256.93359375 l 1
EndSplineSet
Validated: 1
EndChar

StartChar: uniE21B
Encoding: 57883 57883 177
Width: 1000
Flags: HW
LayerCount: 2
Fore
SplineSet
924.365234375 138.623046875 m 1
 924.365234375 238.623046875 l 1
 75.6845703125 238.623046875 l 1
 339.779296875 -44.37109375 l 1
 412.875 23.84375 l 1
 305.760742188 138.623046875 l 1
 924.365234375 138.623046875 l 1
75.634765625 461.376953125 m 1
 75.634765625 361.376953125 l 1
 924.315429688 361.376953125 l 1
 660.220703125 644.37109375 l 1
 587.125 576.15625 l 1
 694.239257812 461.376953125 l 1
 75.634765625 461.376953125 l 1
EndSplineSet
Validated: 9
EndChar

StartChar: uniE21C
Encoding: 57884 57884 178
Width: 1000
Flags: HW
LayerCount: 2
Fore
SplineSet
752.36328125 253.625976562 m 1
 852.36328125 253.625976562 l 1
 852.36328125 654.771484375 l 1
 147.637695312 19.50390625 l 1
 214.580078125 -54.7578125 l 1
 752.36328125 430.020507812 l 1
 752.36328125 253.625976562 l 1
581.123046875 279.895507812 m 1
 481.123046875 279.895507812 l 1
 481.123046875 43.6162109375 l 1
 581.123046875 43.6162109375 l 1
 581.123046875 279.895507812 l 1
EndSplineSet
Validated: 5
EndChar

StartChar: uniE21D
Encoding: 57885 57885 179
Width: 1000
Flags: HW
LayerCount: 2
Fore
SplineSet
924.365234375 47.119140625 m 1
 924.365234375 147.119140625 l 1
 84.86328125 147.119140625 l 1
 84.86328125 47.119140625 l 1
 924.365234375 47.119140625 l 1
75.634765625 369.873046875 m 1
 75.634765625 269.873046875 l 1
 924.315429688 269.873046875 l 1
 660.220703125 552.8671875 l 1
 587.125 484.65234375 l 1
 694.239257812 369.873046875 l 1
 75.634765625 369.873046875 l 1
EndSplineSet
Validated: 9
EndChar

StartChar: uniE21E
Encoding: 57886 57886 180
Width: 1000
Flags: HW
LayerCount: 2
Fore
SplineSet
93.017578125 -139.501953125 m 1
 193.017578125 -139.501953125 l 1
 193.017578125 134.033203125 l 1
 806.982421875 134.033203125 l 1
 806.982421875 -139.501953125 l 1
 906.982421875 -139.501953125 l 1
 906.982421875 234.033203125 l 1
 93.017578125 234.033203125 l 1
 93.017578125 -139.501953125 l 1
344.84765625 421.51953125 m 0
 306.6953125 495.114257812 423.537109375 639.532226562 506.498046875 639.532226562 c 0
 591.21875 637.588867188 693.651367188 495.27734375 653.740234375 422.533203125 c 0
 624.251953125 368.853515625 475.288085938 346.657226562 387.131835938 386.920898438 c 0
 364.025390625 397.474609375 350.717773438 410.2109375 344.84765625 421.51953125 c 0
237.565429688 453.943359375 m 0
 237.565429688 263.731445312 506.87890625 232.145507812 649.877929688 296.05078125 c 0
 704.512695312 320.466796875 762.502929688 368.01171875 762.502929688 459.842773438 c 0
 762.502929688 494.000976562 754.150390625 527.108398438 740.796875 558.0546875 c 0
 702.296875 647.272460938 611.197265625 737.107421875 510.309570312 739.48828125 c 0
 398.168945312 739.642578125 301.768554688 641.18359375 261.991210938 555.8359375 c 0
 247.134765625 523.959960938 237.565429688 489.630859375 237.565429688 453.943359375 c 0
EndSplineSet
Validated: 41
EndChar

StartChar: uniE21F
Encoding: 57887 57887 181
Width: 1000
Flags: HW
LayerCount: 2
Fore
SplineSet
75.634765625 553.80859375 m 1
 75.634765625 453.80859375 l 1
 924.315429688 453.80859375 l 1
 660.220703125 736.802734375 l 1
 587.125 668.587890625 l 1
 694.239257812 553.80859375 l 1
 75.634765625 553.80859375 l 1
558.41796875 257.47265625 m 1
 807.337890625 255.418945312 895.193359375 118.978515625 774.661132812 32.9296875 c 0
 732.16796875 2.59375 660.504882812 -21.9560546875 558.51171875 -22.6083984375 c 0
 553.661132812 -22.638671875 208.090820312 -24.7861328125 73.3740234375 -22.6142578125 c 1
 71.7431640625 -122.600585938 l 1
 134.5 -123.60546875 312.235351562 -124.161132812 559.1640625 -122.606445312 c 0
 676.411132812 -121.856445312 768.399414062 -94.396484375 832.672851562 -48.51171875 c 0
 1017.22753906 83.2431640625 939.083984375 354.334960938 559.2578125 357.46875 c 1
 558.41796875 257.47265625 l 1
EndSplineSet
Validated: 41
EndChar

StartChar: uniE231
Encoding: 57905 57905 182
Width: 1000
Flags: HW
LayerCount: 2
Fore
SplineSet
93.017578125 -175.68359375 m 1
 193.017578125 -175.68359375 l 1
 193.017578125 97.8515625 l 1
 806.982421875 97.8515625 l 1
 806.982421875 -175.68359375 l 1
 906.982421875 -175.68359375 l 1
 906.982421875 197.8515625 l 1
 93.017578125 197.8515625 l 1
 93.017578125 -175.68359375 l 1
687.630859375 544.53125 m 1
 476.393554688 544.53125 l 1
 579.68359375 745.022460938 l 1
 579.68359375 745.022460938 490.780273438 790.823242188 490.7265625 790.719726562 c 0
 312.375976562 444.53125 312.375976562 444.53125 312.375976562 444.53125 c 1
 523.599609375 444.53125 l 1
 420.318359375 244.091796875 l 1
 420.318359375 244.091796875 509.217773438 198.284179688 509.271484375 198.388671875 c 0
 687.630859375 544.53125 687.630859375 544.53125 687.630859375 544.53125 c 1
EndSplineSet
EndChar

StartChar: uniE232
Encoding: 57906 57906 183
Width: 1000
Flags: HW
LayerCount: 2
Fore
SplineSet
344.84765625 218.6875 m 0
 306.6953125 292.282226562 423.537109375 436.700195312 506.498046875 436.700195312 c 0
 591.217773438 434.756835938 693.64453125 292.400390625 653.745117188 219.708984375 c 0
 624.24609375 166.01171875 475.279296875 143.829101562 387.131835938 184.088867188 c 0
 364.025390625 194.642578125 350.717773438 207.37890625 344.84765625 218.6875 c 0
237.565429688 251.111328125 m 0
 237.565429688 60.8994140625 506.87890625 29.3134765625 649.877929688 93.21875 c 0
 704.48828125 117.624023438 762.502929688 165.16015625 762.502929688 256.994140625 c 0
 762.502929688 291.149414062 754.150390625 324.25390625 740.796875 355.201171875 c 0
 702.294921875 444.426757812 611.194335938 534.275390625 510.309570312 536.65625 c 0
 398.168945312 536.810546875 301.768554688 438.3515625 261.991210938 353.00390625 c 0
 247.134765625 321.127929688 237.565429688 286.798828125 237.565429688 251.111328125 c 0
EndSplineSet
EndChar

StartChar: uniE233
Encoding: 57907 57907 184
Width: 1000
Flags: HW
LayerCount: 2
Fore
SplineSet
652.260742188 627.619140625 m 0
 609.930664062 641.506835938 562.967773438 647.853515625 515.478515625 647.853515625 c 0
 472.65625 647.853515625 345.325195312 641.420898438 265.0390625 569.2265625 c 0
 232.91015625 540.334960938 209.553710938 499.982421875 208.127929688 451.897460938 c 0
 207.077148438 416.474609375 208.875 329.611328125 275.719726562 251.989257812 c 0
 324.317382812 195.556640625 386.140625 165.528320312 426.76953125 145.087890625 c 0
 446.029296875 135.397460938 460.864257812 127.071289062 463.895507812 124.677734375 c 0
 485.24609375 107.793945312 478.227539062 41.7822265625 455.266601562 4.873046875 c 1
 455.266601562 4.873046875 540.17578125 -47.9462890625 540.241210938 -47.841796875 c 0
 584.852539062 23.8720703125 598.635742188 145.596679688 525.850585938 203.154296875 c 0
 481.069335938 238.522460938 376.922851562 263.81640625 330.62890625 346.958984375 c 0
 318.103515625 369.454101562 306.672851562 401.336914062 308.083007812 448.883789062 c 0
 308.588867188 465.926757812 315.400390625 480.053710938 331.861328125 494.85546875 c 0
 407.095703125 562.5078125 609.329101562 564.7578125 675.014648438 503.55078125 c 0
 686.186523438 493.140625 701.095703125 476.045898438 685.262695312 436.869140625 c 1
 685.262695312 436.869140625 777.9921875 399.392578125 778.018554688 399.458984375 c 0
 816.891601562 495.646484375 775.022460938 587.345703125 652.260742188 627.619140625 c 0
EndSplineSet
EndChar

StartChar: uniE235
Encoding: 57909 57909 185
Width: 1000
Flags: HW
LayerCount: 2
Fore
SplineSet
155.271484375 467.0859375 m 1
 155.271484375 367.0859375 l 1
 844.724609375 367.0859375 l 1
 844.724609375 467.0859375 l 1
 155.271484375 467.0859375 l 1
711.364257812 409.52734375 m 1
 613.421875 389.263671875 l 1
 613.436523438 389.194335938 666.463867188 132.895507812 666.463867188 132.895507812 c 1
 764.405273438 153.159179688 l 1
 711.364257812 409.52734375 l 1
386.559570312 389.194335938 m 1
 288.631835938 409.52734375 l 1
 235.604492188 153.228515625 l 1
 333.532226562 132.895507812 l 1
 386.559570312 389.194335938 l 1
EndSplineSet
EndChar

StartChar: uniE222
Encoding: 57890 57890 186
Width: 1000
Flags: HW
LayerCount: 2
Fore
SplineSet
806.982421875 -50.146484375 m 1
 193.017578125 -50.146484375 l 1
 193.017578125 223.388671875 l 1
 93.017578125 223.388671875 l 1
 93.017578125 -150.146484375 l 1
 906.982421875 -150.146484375 l 1
 906.982421875 223.388671875 l 1
 806.982421875 223.388671875 l 1
 806.982421875 -50.146484375 l 1
97.265625 381.34765625 m 1
 97.265625 281.34765625 l 1
 596.844726562 281.34765625 l 1
 709.373046875 513.225585938 l 1
 709.373046875 513.225585938 811.393554688 284.551757812 811.431640625 284.465820312 c 2
 902.766601562 325.213867188 l 1
 713.185546875 750.153320312 l 1
 534.209960938 381.34765625 l 1
 97.265625 381.34765625 l 1
EndSplineSet
Validated: 9
EndChar

StartChar: uniE223
Encoding: 57891 57891 187
Width: 1000
Flags: H
LayerCount: 2
Fore
SplineSet
100.00390625 662.985351562 m 1
 133.024414062 621.879882812 212.841796875 503.3984375 212.841796875 433.447265625 c 1
 312.841796875 433.447265625 l 1
 312.841796875 452.431640625 310.547851562 491.5859375 282.592773438 555.109375 c 1
 491.090820312 468.8359375 684.590820312 512.272460938 900.004882812 652.302734375 c 1
 845.505859375 736.141601562 l 1
 585.133789062 566.885742188 395.209960938 571.7109375 168.19140625 734.821289062 c 1
 100.00390625 662.985351562 l 1
450 -82.91015625 m 1
 550 -82.91015625 l 1
 550 377.294921875 l 1
 450 377.294921875 l 1
 450 -82.91015625 l 1
EndSplineSet
Validated: 41
EndChar

StartChar: uniE224
Encoding: 57892 57892 188
Width: 1000
Flags: H
LayerCount: 2
Fore
SplineSet
199.1328125 553.676757812 m 1
 253.109375 469.5 l 1
 500 627.813476562 l 1
 746.890625 469.5 l 1
 764.875 497.588867188 782.92578125 525.610351562 800.8671875 553.7421875 c 0
 700.579101562 618.029296875 600.28125 682.307617188 500 746.600585938 c 1
 199.1328125 553.676757812 l 1
253.114257812 429.8125 m 1
 253.114257812 429.8125 199.126953125 345.643554688 199.229492188 345.578125 c 0
 500 152.662109375 500 152.662109375 500 152.662109375 c 1
 800.873046875 345.643554688 l 1
 746.885742188 429.8125 l 1
 500 271.458984375 l 1
 253.114257812 429.8125 l 1
100.00390625 82.9072265625 m 1
 133.024414062 41.8017578125 212.841796875 -76.6796875 212.841796875 -146.630859375 c 1
 312.841796875 -146.630859375 l 1
 312.841796875 -127.646484375 310.547851562 -88.4921875 282.592773438 -24.96875 c 1
 491.090820312 -111.2421875 684.590820312 -67.8056640625 900.004882812 72.224609375 c 1
 845.505859375 156.063476562 l 1
 585.133789062 -13.1923828125 395.209960938 -8.3671875 168.19140625 154.743164062 c 1
 100.00390625 82.9072265625 l 1
EndSplineSet
Validated: 41
EndChar

StartChar: uniE225
Encoding: 57893 57893 189
Width: 1000
Flags: H
LayerCount: 2
Fore
SplineSet
100.00390625 647.360351562 m 1
 132.975585938 606.315429688 212.841796875 487.793945312 212.841796875 417.7734375 c 1
 312.841796875 417.7734375 l 1
 312.841796875 436.760742188 310.548828125 475.926757812 282.59765625 539.45703125 c 1
 491.150390625 453.140625 684.665039062 496.657226562 900.010742188 636.681640625 c 1
 845.5 720.512695312 l 1
 585.08203125 551.1796875 395.16796875 556.071289062 168.197265625 719.192382812 c 1
 100.00390625 647.360351562 l 1
93.017578125 -120.458984375 m 1
 193.017578125 -120.458984375 l 1
 193.017578125 153.076171875 l 1
 806.982421875 153.076171875 l 1
 806.982421875 -120.458984375 l 1
 906.982421875 -120.458984375 l 1
 906.982421875 253.076171875 l 1
 93.017578125 253.076171875 l 1
 93.017578125 -120.458984375 l 1
EndSplineSet
Validated: 41
EndChar

StartChar: uniE226
Encoding: 57894 57894 190
Width: 1000
Flags: H
LayerCount: 2
Fore
SplineSet
288.0859375 519.239257812 m 1
 288.0859375 -149.365234375 l 1
 894.921875 -149.365234375 l 1
 894.921875 -49.365234375 l 1
 388.0859375 -49.365234375 l 1
 388.0859375 749.315429688 l 1
 105.091796875 485.220703125 l 1
 173.306640625 412.125 l 1
 288.0859375 519.239257812 l 1
EndSplineSet
Validated: 9
EndChar

StartChar: uniE228
Encoding: 57896 57896 191
Width: 1000
Flags: H
LayerCount: 2
Fore
SplineSet
252.493164062 -111.028320312 m 1
 252.493164062 -111.028320312 336.762695312 -164.861328125 336.828125 -164.758789062 c 2
 496.77734375 85.625 l 1
 664.325195312 -165.676757812 l 1
 747.522460938 -110.208007812 l 1
 537.512695312 204.782226562 l 1
 453.713867188 203.961914062 l 1
 252.493164062 -111.028320312 l 1
537.141601562 765.622070312 m 1
 437.141601562 765.622070312 l 1
 437.141601562 150.827148438 l 1
 537.141601562 150.827148438 l 1
 537.141601562 765.622070312 l 1
256.93359375 573.14453125 m 1
 256.93359375 473.14453125 l 1
 743.06640625 473.14453125 l 1
 743.06640625 573.14453125 l 1
 256.93359375 573.14453125 l 1
EndSplineSet
Validated: 37
EndChar

StartChar: uniE229
Encoding: 57897 57897 192
Width: 1000
Flags: H
LayerCount: 2
Fore
SplineSet
258.301757812 698.453125 m 1
 260.537109375 349.116210938 501.357421875 249.192382812 639.65234375 392.640625 c 1
 641.69921875 -99.1865234375 l 1
 641.69921875 -99.1865234375 741.69921875 -98.7705078125 741.69921875 -98.7626953125 c 2
 738.37890625 698.991210938 l 1
 638.380859375 698.991210938 l 1
 636.923828125 522.424804688 567.901367188 429.372070312 500.02734375 429.372070312 c 0
 431.805664062 429.372070312 359.42578125 523.056640625 358.299804688 699.10546875 c 1
 258.301757812 698.453125 l 1
EndSplineSet
Validated: 41
EndChar

StartChar: uniE22A
Encoding: 57898 57898 193
Width: 1000
Flags: H
LayerCount: 2
Fore
SplineSet
284.909179688 385.782226562 m 1
 284.909179688 385.782226562 370.298828125 333.740234375 370.364257812 333.846679688 c 0
 500 546.552734375 500 546.552734375 500 546.552734375 c 1
 500 546.552734375 629.635742188 333.846679688 629.701171875 333.740234375 c 1
 715.090820312 385.782226562 l 1
 500 738.701171875 l 1
 284.909179688 385.782226562 l 1
284.907226562 -82.140625 m 1
 284.907226562 -82.140625 370.30078125 -134.17578125 370.366210938 -134.0703125 c 0
 500 78.669921875 500 78.669921875 500 78.669921875 c 1
 500 78.669921875 629.633789062 -134.0703125 629.69921875 -134.17578125 c 2
 715.092773438 -82.140625 l 1
 500 270.841796875 l 1
 284.907226562 -82.140625 l 1
EndSplineSet
Validated: 41
EndChar

StartChar: uniE22B
Encoding: 57899 57899 194
Width: 1000
Flags: H
LayerCount: 2
Fore
SplineSet
821.19140625 -168.65234375 m 1
 921.19140625 -168.65234375 l 1
 921.19140625 221.58203125 l 1
 821.19140625 221.58203125 l 1
 821.19140625 -168.65234375 l 1
78.80859375 -168.65234375 m 1
 178.80859375 -168.65234375 l 1
 178.80859375 221.58203125 l 1
 78.80859375 221.58203125 l 1
 78.80859375 -168.65234375 l 1
894.775390625 -23.53515625 m 1
 894.775390625 76.46484375 l 1
 123.193359375 76.46484375 l 1
 123.193359375 -23.53515625 l 1
 894.775390625 -23.53515625 l 1
271.330078125 241.908203125 m 1
 271.330078125 241.908203125 355.65625 188.165039062 355.720703125 188.267578125 c 0
 497.182617188 410.229492188 497.182617188 410.229492188 497.182617188 410.229492188 c 1
 497.182617188 410.229492188 645.348632812 187.44921875 645.4140625 187.3515625 c 2
 728.674804688 242.7265625 l 1
 537.952148438 529.494140625 l 1
 454.09375 528.67578125 l 1
 271.330078125 241.908203125 l 1
538.330078125 772.65625 m 1
 438.330078125 772.65625 l 1
 438.330078125 477.9296875 l 1
 538.330078125 477.9296875 l 1
 538.330078125 772.65625 l 1
EndSplineSet
Validated: 37
EndChar

StartChar: uniE22C
Encoding: 57900 57900 195
Width: 1000
Flags: H
LayerCount: 2
Fore
SplineSet
509.163085938 517.182617188 m 0
 645.653320312 514.049804688 801.462890625 293.727539062 736.581054688 174.65234375 c 0
 687.346679688 84.2666015625 462.62890625 53.919921875 331.151367188 114.463867188 c 0
 268.978515625 143.09375 248.379882812 181.935546875 248.379882812 230.036132812 c 0
 248.379882812 356.446289062 397.801757812 517.182617188 509.163085938 517.182617188 c 0
148.379882812 230.036132812 m 0
 148.379882812 49.5166015625 331.032226562 -17.1630859375 495.178710938 -17.1630859375 c 0
 568.485351562 -17.1630859375 642.102539062 -4.189453125 704.3515625 23.85546875 c 0
 753.844726562 46.15234375 798.4296875 79.1337890625 824.454101562 126.91015625 c 0
 888.919921875 245.220703125 831.864257812 406.263671875 725.791015625 512.952148438 c 0
 667.979492188 571.098632812 594.088867188 615.236328125 514.140625 617.125 c 0
 366.5 617.333007812 235.36328125 484.138671875 181.032226562 366.607421875 c 0
 160.970703125 323.209960938 148.379882812 276.994140625 148.379882812 230.036132812 c 0
558.7890625 -154.98046875 m 1
 658.7890625 -154.98046875 l 1
 658.7890625 754.98046875 l 1
 558.7890625 754.98046875 l 1
 558.7890625 -154.98046875 l 1
341.2109375 -154.98046875 m 1
 441.2109375 -154.98046875 l 1
 441.2109375 754.98046875 l 1
 341.2109375 754.98046875 l 1
 341.2109375 -154.98046875 l 1
EndSplineSet
Validated: 37
EndChar

StartChar: uniE22F
Encoding: 57903 57903 196
Width: 1000
Flags: H
LayerCount: 2
Fore
SplineSet
6690.91796875 -1490.33203125 m 0
 6753.73144531 -1488.10253906 6806.38964844 -1503.22070312 6844.921875 -1532.6171875 c 0
 6883.453125 -1562.01367188 6905.59082031 -1604.27636719 6913.18359375 -1646.77734375 c 0
 6928.36914062 -1731.77929688 6894.85449219 -1822.01171875 6822.36328125 -1870.01953125 c 1
 6767.1875 -1786.62109375 l 2
 6798.8828125 -1765.62988281 6822.55273438 -1708.05273438 6814.74609375 -1664.35546875 c 0
 6810.84277344 -1642.50683594 6801.46484375 -1625.22265625 6784.27734375 -1612.109375 c 0
 6767.08984375 -1598.99609375 6739.84960938 -1588.62207031 6694.43359375 -1590.234375 c 0
 6648.74023438 -1591.85644531 6621.77832031 -1603.91992188 6604.98046875 -1618.06640625 c 0
 6588.18261719 -1632.21289062 6579.48730469 -1649.83886719 6576.171875 -1671.484375 c 0
 6569.54199219 -1714.77441406 6594.94628906 -1770.53515625 6619.04296875 -1787.20703125 c 2
 6590.52734375 -1878.3203125 l 1
 6068.75 -1878.3203125 l 1
 6068.75 -1778.3203125 l 1
 6491.30859375 -1778.3203125 l 1
 6476.26367188 -1740.75292969 6470.87890625 -1698.56347656 6477.34375 -1656.34765625 c 0
 6483.72167969 -1614.70214844 6503.86035156 -1572.48144531 6540.52734375 -1541.6015625 c 0
 6577.19433594 -1510.72167969 6628.3828125 -1492.55175781 6690.91796875 -1490.33203125 c 0
6822.32910156 -1870.04003906 m 1
 6880.0078125 -1831.84863281 6916.49414062 -1759.11328125 6916.49414062 -1684.57128906 c 0
 6916.49414062 -1577.59863281 6841.37011719 -1490.09375 6703.25878906 -1490.09375 c 0
 6499.90429688 -1490.09375 6440.97753906 -1651.50976562 6492.33789062 -1778.3203125 c 1
 6068.75 -1778.3203125 l 1
 6068.75 -1878.3203125 l 1
 6590.52734375 -1878.3203125 l 1
 6618.91699219 -1787.16699219 l 2
 6594.42285156 -1770.22851562 6574.88574219 -1729.09667969 6574.88574219 -1689.15429688 c 0
 6574.88574219 -1671.24902344 6575.99023438 -1590.09375 6703.25878906 -1590.09375 c 0
 6756.58398438 -1590.09375 6783.11621094 -1606.93457031 6797.68554688 -1625.171875 c 0
 6834.32910156 -1671.03710938 6813.7109375 -1755.81835938 6767.12402344 -1786.66601562 c 1
 6822.32910156 -1870.04003906 l 1
6822.32910156 -1870.04003906 m 1
 6880.0078125 -1831.84863281 6916.49414062 -1759.11328125 6916.49414062 -1684.57128906 c 0
 6916.49414062 -1577.59863281 6841.37011719 -1490.09375 6703.25878906 -1490.09375 c 0
 6499.90429688 -1490.09375 6440.97753906 -1651.50976562 6492.33789062 -1778.3203125 c 1
 6068.75 -1778.3203125 l 1
 6068.75 -1878.3203125 l 1
 6590.52734375 -1878.3203125 l 1
 6618.91699219 -1787.16699219 l 2
 6594.42285156 -1770.22851562 6574.88574219 -1729.09667969 6574.88574219 -1689.15429688 c 0
 6574.88574219 -1671.24902344 6575.99023438 -1590.09375 6703.25878906 -1590.09375 c 0
 6756.58398438 -1590.09375 6783.11621094 -1606.93457031 6797.68554688 -1625.171875 c 0
 6834.32910156 -1671.03710938 6813.7109375 -1755.81835938 6767.12402344 -1786.66601562 c 1
 6822.32910156 -1870.04003906 l 1
61.6259765625 -107.0703125 m 1
 118.260742188 -189.477539062 l 1
 494.677734375 69.2177734375 l 1
 871.094726562 -189.477539062 l 1
 889.963867188 -161.978515625 908.90234375 -134.548828125 927.729492188 -107.006835938 c 0
 783.379882812 -7.8212890625 639.0234375 91.357421875 494.677734375 190.547851562 c 1
 61.6259765625 -107.0703125 l 1
497.346679688 624.616210938 m 0
 497.346679688 565.041992188 402.689453125 510.846679688 402.689453125 403.0234375 c 0
 402.689453125 342.890625 432.852539062 280.368164062 499.213867188 207.842773438 c 1
 572.9765625 275.3359375 l 1
 514.803710938 338.911132812 502.689453125 378.762695312 502.689453125 403.0234375 c 0
 502.689453125 468.530273438 597.346679688 523.182617188 597.346679688 624.616210938 c 0
 597.346679688 679.634765625 569.405273438 734.873046875 511.559570312 796.16796875 c 1
 438.831054688 727.5625 l 1
 488.15234375 675.30078125 497.346679688 643.354492188 497.346679688 624.616210938 c 0
EndSplineSet
EndChar

StartChar: uniE230
Encoding: 57904 57904 197
Width: 1000
Flags: HW
LayerCount: 2
Fore
SplineSet
284.907226562 149.5 m 1
 284.907226562 149.5 370.30078125 97.46484375 370.366210938 97.5703125 c 0
 500 310.310546875 500 310.310546875 500 310.310546875 c 1
 500 310.310546875 629.633789062 97.5703125 629.69921875 97.46484375 c 2
 715.092773438 149.5 l 1
 500 502.482421875 l 1
 284.907226562 149.5 l 1
EndSplineSet
EndChar

StartChar: uniE111
Encoding: 57617 57617 198
Width: 500
Flags: HW
LayerCount: 2
Fore
SplineSet
203.911132812 780.162109375 m 1
 103.911132812 780.162109375 l 1
 103.911132812 278.111328125 l 1
 203.911132812 278.111328125 l 1
 203.911132812 780.162109375 l 1
1.4208984375 685.630859375 m 1
 1.4208984375 585.630859375 l 1
 503.471679688 585.630859375 l 1
 503.471679688 685.630859375 l 1
 1.4208984375 685.630859375 l 1
-24.755859375 -41.796875 m 1
 -24.755859375 -141.796875 l 1
 524.755859375 -141.796875 l 1
 524.755859375 -41.796875 l 1
 -24.755859375 -41.796875 l 1
EndSplineSet
Validated: 5
EndChar

StartChar: uniE112
Encoding: 57618 57618 199
Width: 500
Flags: HW
LayerCount: 2
Fore
SplineSet
-24.755859375 -41.796875 m 1
 -24.755859375 -141.796875 l 1
 524.755859375 -141.796875 l 1
 524.755859375 -41.796875 l 1
 -24.755859375 -41.796875 l 1
24.6435546875 350.244140625 m 1
 308.823242188 350.244140625 l 1
 158.470703125 67.830078125 l 2
 158.470703125 67.830078125 246.74609375 20.833984375 246.802734375 20.939453125 c 0
 475.356445312 450.244140625 475.356445312 450.244140625 475.356445312 450.244140625 c 1
 191.176757812 450.244140625 l 1
 341.529296875 732.658203125 l 1
 341.529296875 732.658203125 253.25390625 779.654296875 253.197265625 779.548828125 c 0
 24.6435546875 350.244140625 24.6435546875 350.244140625 24.6435546875 350.244140625 c 1
EndSplineSet
Validated: 41
EndChar

StartChar: uniE113
Encoding: 57619 57619 200
Width: 500
Flags: HW
LayerCount: 2
Fore
SplineSet
-24.755859375 -41.796875 m 1
 -24.755859375 -141.796875 l 1
 524.755859375 -141.796875 l 1
 524.755859375 -41.796875 l 1
 -24.755859375 -41.796875 l 1
208.49609375 769.775390625 m 1
 108.49609375 769.775390625 l 1
 108.49609375 0.46875 l 1
 391.475585938 264.619140625 l 1
 323.270507812 337.724609375 l 1
 208.49609375 230.5859375 l 1
 208.49609375 769.775390625 l 1
EndSplineSet
Validated: 9
EndChar

StartChar: uniE114
Encoding: 57620 57620 201
Width: 500
Flags: HW
LayerCount: 2
Fore
SplineSet
-24.755859375 -41.796875 m 1
 -24.755859375 -141.796875 l 1
 524.755859375 -141.796875 l 1
 524.755859375 -41.796875 l 1
 -24.755859375 -41.796875 l 1
116.483398438 759.756835938 m 1
 63.6943359375 723.252929688 29.2119140625 651.901367188 29.2119140625 579.405273438 c 0
 29.2119140625 473.65625 103.642578125 380.376953125 257.555664062 380.376953125 c 0
 457.967773438 380.376953125 512.315429688 561.202148438 440.993164062 689.374023438 c 0
 425.575195312 717.081054688 404.172851562 742.106445312 376.68359375 760.317382812 c 1
 358.284179688 732.5 339.81640625 704.750976562 321.4609375 676.889648438 c 0
 333.409179688 668.974609375 344.8046875 656.56640625 353.547851562 640.85546875 c 0
 381.594726562 590.453125 391.034179688 480.376953125 257.555664062 480.376953125 c 0
 208.6171875 480.376953125 129.211914062 493.59765625 129.211914062 579.405273438 c 0
 129.211914062 619.073242188 148.53125 660.34765625 173.35546875 677.513671875 c 1
 116.483398438 759.756835938 l 1
EndSplineSet
Validated: 41
EndChar

StartChar: uniE115
Encoding: 57621 57621 202
Width: 500
Flags: HW
LayerCount: 2
Fore
SplineSet
-24.755859375 -41.796875 m 1
 -24.755859375 -141.796875 l 1
 524.755859375 -141.796875 l 1
 524.755859375 -41.796875 l 1
 -24.755859375 -41.796875 l 1
26.7578125 768.5546875 m 1
 26.7578125 668.5546875 l 1
 373.2421875 668.5546875 l 1
 373.2421875 353.955078125 l 1
 473.2421875 353.955078125 l 1
 473.2421875 768.5546875 l 1
 26.7578125 768.5546875 l 1
EndSplineSet
Validated: 9
EndChar

StartChar: uniE117
Encoding: 57623 57623 203
Width: 500
Flags: HW
LayerCount: 2
Fore
SplineSet
-24.755859375 -41.796875 m 1
 -24.755859375 -141.796875 l 1
 524.755859375 -141.796875 l 1
 524.755859375 -41.796875 l 1
 -24.755859375 -41.796875 l 1
162.5859375 198.297851562 m 1
 141.426757812 213.399414062 83.7626953125 250.55859375 13.037109375 243.39453125 c 0
 13.037109375 243.39453125 23.0927734375 143.822265625 23.193359375 143.83203125 c 0
 80.662109375 149.65234375 147.616210938 88.4912109375 161.293945312 50.802734375 c 2
 162.731445312 45.5166015625 l 1
 262.51171875 49.36328125 l 1
 262.51171875 738.06640625 l 1
 162.5859375 738.06640625 l 1
 162.5859375 198.297851562 l 1
265.7421875 406.98046875 m 1
 324.829101562 326.291015625 l 1
 378.823242188 365.986328125 432.907226562 405.590820312 486.844726562 445.34375 c 1
 427.837890625 526.034179688 l 1
 427.837890625 526.034179688 265.823242188 407.041015625 265.7421875 406.98046875 c 1
EndSplineSet
Validated: 41
EndChar

StartChar: uniE118
Encoding: 57624 57624 204
Width: 500
Flags: HW
LayerCount: 2
Fore
SplineSet
-24.755859375 -41.796875 m 1
 -24.755859375 -141.796875 l 1
 524.755859375 -141.796875 l 1
 524.755859375 -41.796875 l 1
 -24.755859375 -41.796875 l 1
20.1171875 585.64453125 m 1
 20.1171875 485.64453125 l 1
 480.322265625 485.64453125 l 1
 480.322265625 585.64453125 l 1
 20.1171875 585.64453125 l 1
EndSplineSet
Validated: 1
EndChar

StartChar: uniE119
Encoding: 57625 57625 205
Width: 500
Flags: HW
LayerCount: 2
Fore
SplineSet
-24.755859375 -41.796875 m 1
 -24.755859375 -141.796875 l 1
 524.755859375 -141.796875 l 1
 524.755859375 -41.796875 l 1
 -24.755859375 -41.796875 l 1
98.681640625 79.98046875 m 1
 168.612304688 79.98046875 287.063476562 0.2392578125 328.227539062 -32.814453125 c 1
 400.053710938 35.3828125 l 1
 236.948242188 262.348632812 232.1171875 452.31640625 401.375976562 712.693359375 c 1
 401.375976562 712.693359375 317.537109375 767.192382812 317.471679688 767.091796875 c 0
 177.440429688 551.676757812 134.108398438 358.135742188 220.353515625 149.737304688 c 1
 173.559570312 170.32421875 133.697265625 179.98046875 98.681640625 179.98046875 c 1
 98.681640625 79.98046875 l 1
EndSplineSet
Validated: 41
EndChar

StartChar: uniE11A
Encoding: 57626 57626 206
Width: 500
Flags: HW
LayerCount: 2
Fore
SplineSet
-24.755859375 -41.796875 m 1
 -24.755859375 -141.796875 l 1
 524.755859375 -141.796875 l 1
 524.755859375 -41.796875 l 1
 -24.755859375 -41.796875 l 1
469.236328125 424.328125 m 1
 466.392578125 771.221679688 217.971679688 841.180664062 98.3720703125 672.159179688 c 0
 56.8232421875 613.44140625 32.314453125 530.041992188 31.6416015625 424.25 c 0
 29.6748046875 109.171875 31.6474609375 -8.3046875 31.6474609375 -12.673828125 c 1
 31.6474609375 -12.673828125 131.634765625 -11.0849609375 131.633789062 -11.056640625 c 0
 130.759765625 43.6025390625 130.2578125 202.268554688 131.639648438 423.6015625 c 0
 132.612304688 576.618164062 194.374023438 660.189453125 251.9375 660.189453125 c 0
 308.87890625 660.189453125 367.97265625 578.123046875 369.240234375 423.5078125 c 1
 469.236328125 424.328125 l 1
EndSplineSet
Validated: 41
EndChar

StartChar: uniE11B
Encoding: 57627 57627 207
Width: 500
Flags: HW
LayerCount: 2
Fore
SplineSet
-24.755859375 -41.796875 m 1
 -24.755859375 -141.796875 l 1
 524.755859375 -141.796875 l 1
 524.755859375 -41.796875 l 1
 -24.755859375 -41.796875 l 1
257.618164062 403.122070312 m 0
 40.6767578125 403.122070312 -10.9326171875 219.993164062 57.31640625 92.1689453125 c 0
 71.5947265625 65.42578125 91.1123046875 41.296875 116.467773438 23.75 c 1
 116.467773438 23.75 173.370117188 105.971679688 173.278320312 106.03515625 c 0
 148.75 123.010742188 129.211914062 164.1796875 129.211914062 204.111328125 c 0
 129.211914062 222.349609375 130.52734375 303.122070312 257.618164062 303.122070312 c 0
 310.91796875 303.122070312 337.432617188 286.28515625 351.997070312 268.047851562 c 0
 388.630859375 222.17578125 368.015625 137.380859375 321.4609375 106.541015625 c 1
 376.68359375 23.1787109375 l 1
 434.333007812 61.369140625 470.799804688 134.099609375 470.799804688 208.635742188 c 0
 470.799804688 315.634765625 395.672851562 403.122070312 257.618164062 403.122070312 c 0
EndSplineSet
Validated: 41
EndChar

StartChar: uniE11E
Encoding: 57630 57630 208
Width: 500
Flags: HW
LayerCount: 2
Fore
SplineSet
-24.755859375 -41.796875 m 1
 -24.755859375 -141.796875 l 1
 524.755859375 -141.796875 l 1
 524.755859375 -41.796875 l 1
 -24.755859375 -41.796875 l 1
9.90234375 408.38671875 m 2
 17.2802734375 405.997070312 173.483398438 355.916992188 300.26171875 355.916992188 c 0
 337.498046875 355.916992188 374.099609375 359.665039062 407.567382812 373.33984375 c 0
 434.229492188 384.234375 460.616210938 403.1796875 476.1171875 432.870117188 c 0
 505.470703125 489.112304688 496.677734375 568.956054688 387.564453125 679.2578125 c 0
 325.328125 742.169921875 258.138671875 787.84375 256.702148438 788.825195312 c 1
 200.288085938 706.266601562 l 1
 234.10546875 683.158203125 335.453125 605.158203125 375.389648438 535.352539062 c 0
 384.126953125 520.08203125 395.650390625 494.8359375 387.412109375 479.05078125 c 0
 378.930664062 462.807617188 338.736328125 455.916992188 300.26171875 455.916992188 c 0
 190.577148438 455.916992188 40.720703125 503.540039062 40.720703125 503.540039062 c 1
 9.90234375 408.38671875 l 2
278.541992188 438.28515625 m 1
 178.541992188 438.28515625 l 1
 178.541992188 146.732421875 l 1
 278.541992188 146.732421875 l 1
 278.541992188 438.28515625 l 1
EndSplineSet
Validated: 37
EndChar

StartChar: uniE11F
Encoding: 57631 57631 209
Width: 500
Flags: HW
LayerCount: 2
Fore
SplineSet
-24.755859375 -41.796875 m 1
 -24.755859375 -141.796875 l 1
 524.755859375 -141.796875 l 1
 524.755859375 -41.796875 l 1
 -24.755859375 -41.796875 l 1
460.498046875 540.380859375 m 1
 360.498046875 540.380859375 l 1
 360.498046875 13.76953125 l 1
 460.498046875 13.76953125 l 1
 460.498046875 540.380859375 l 1
375.146484375 227.099609375 m 1
 375.146484375 327.099609375 l 1
 39.501953125 327.099609375 l 1
 39.501953125 227.099609375 l 1
 375.146484375 227.099609375 l 1
EndSplineSet
Validated: 5
EndChar

StartChar: uniE120
Encoding: 57632 57632 210
Width: 500
Flags: HW
LayerCount: 2
Fore
SplineSet
-24.755859375 -41.796875 m 1
 -24.755859375 -141.796875 l 1
 524.755859375 -141.796875 l 1
 524.755859375 -41.796875 l 1
 -24.755859375 -41.796875 l 1
239.69921875 550.7265625 m 1
 452.530273438 680.37890625 l 1
 400.505859375 765.779296875 l 1
 47.5078125 550.73828125 l 1
 400.5 335.639648438 l 2
 400.5 335.639648438 452.53515625 421.033203125 452.4296875 421.098632812 c 0
 239.69921875 550.7265625 239.69921875 550.7265625 239.69921875 550.7265625 c 1
EndSplineSet
Validated: 41
EndChar

StartChar: uniE121
Encoding: 57633 57633 211
Width: 500
Flags: HW
LayerCount: 2
Fore
SplineSet
-24.755859375 -41.796875 m 1
 -24.755859375 -141.796875 l 1
 524.755859375 -141.796875 l 1
 524.755859375 -41.796875 l 1
 -24.755859375 -41.796875 l 1
369.240234375 324.001953125 m 1
 367.677734375 133.508789062 277.013671875 44.5029296875 202.967773438 107.525390625 c 0
 168.358398438 136.982421875 132.384765625 206.6796875 131.639648438 323.908203125 c 0
 131.612304688 328.254882812 129.704101562 637.065429688 131.634765625 758.594726562 c 1
 31.6474609375 760.18359375 l 1
 30.7529296875 703.900390625 30.259765625 544.588867188 31.6416015625 323.259765625 c 0
 32.314453125 217.467773438 56.8232421875 134.068359375 98.3720703125 75.3505859375 c 0
 217.9453125 -93.634765625 466.392578125 -23.7548828125 469.236328125 323.166015625 c 1
 369.240234375 324.001953125 l 1
EndSplineSet
Validated: 41
EndChar

StartChar: uniE122
Encoding: 57634 57634 212
Width: 500
Flags: HW
LayerCount: 2
Fore
SplineSet
-24.755859375 -41.796875 m 1
 -24.755859375 -141.796875 l 1
 524.755859375 -141.796875 l 1
 524.755859375 -41.796875 l 1
 -24.755859375 -41.796875 l 1
16.263671875 338.75390625 m 1
 83.908203125 265.130859375 l 1
 381.325195312 538.395507812 l 1
 381.056640625 512.501953125 380.788085938 486.608398438 380.520507812 460.713867188 c 2
 480.514648438 459.676757812 l 1
 483.713867188 768.245117188 l 1
 16.263671875 338.75390625 l 1
EndSplineSet
Validated: 9
EndChar

StartChar: uniE124
Encoding: 57636 57636 214
Width: 500
Flags: HW
LayerCount: 2
Fore
SplineSet
-24.755859375 -41.796875 m 1
 -24.755859375 -141.796875 l 1
 524.755859375 -141.796875 l 1
 524.755859375 -41.796875 l 1
 -24.755859375 -41.796875 l 1
41.4609375 239.858398438 m 0
 41.4609375 39.44921875 222.311523438 -14.9052734375 350.499023438 56.443359375 c 0
 378.212890625 71.869140625 403.245117188 93.283203125 421.456054688 120.786132812 c 1
 421.456054688 120.786132812 338.08203125 175.991210938 338.016601562 175.893554688 c 0
 317.90625 145.520507812 274.891601562 126.62109375 235.96875 126.62109375 c 0
 200.159179688 126.62109375 141.4609375 141.606445312 141.4609375 239.858398438 c 0
 141.4609375 288.533203125 154.5859375 368.229492188 240.545898438 368.229492188 c 0
 280.477539062 368.229492188 321.625976562 348.700195312 338.59375 324.182617188 c 2
 429.736328125 352.587890625 l 1
 429.736328125 768.5546875 l 1
 329.736328125 768.5546875 l 1
 329.736328125 450.768554688 l 1
 202.747070312 502.2109375 41.4609375 443.01953125 41.4609375 239.858398438 c 0
EndSplineSet
Validated: 41
EndChar

